SplineFontDB: 3.0
FontName: Oswald-Bold
FullName: Oswald Bold
FamilyName: Oswald
Weight: Bold
Copyright: Copyright (c) 2011 by vernon adams. All rights reserved.
Version: 1.000
ItalicAngle: 0
UnderlinePosition: -205
UnderlineWidth: 102
Ascent: 1638
Descent: 410
sfntRevision: 0x00010000
LayerCount: 2
Layer: 0 1 "Back"  1
Layer: 1 1 "Fore"  0
NeedsXUIDChange: 1
XUID: [1021 14 500265001 2178636]
FSType: 0
OS2Version: 1
OS2_WeightWidthSlopeOnly: 0
OS2_UseTypoMetrics: 1
CreationTime: 1331556123
ModificationTime: 1337199690
PfmFamily: 17
TTFWeight: 700
TTFWidth: 5
LineGap: 0
VLineGap: 0
Panose: 2 0 5 6 0 0 0 2 0 4
OS2TypoAscent: 806
OS2TypoAOffset: 1
OS2TypoDescent: -236
OS2TypoDOffset: 1
OS2TypoLinegap: 0
OS2WinAscent: 29
OS2WinAOffset: 1
OS2WinDescent: -58
OS2WinDOffset: 1
HheadAscent: 29
HheadAOffset: 1
HheadDescent: 58
HheadDOffset: 1
OS2SubXSize: 6015
OS2SubYSize: 5583
OS2SubXOff: 0
OS2SubYOff: 1204
OS2SupXSize: 6015
OS2SupYSize: 5583
OS2SupXOff: 0
OS2SupYOff: 4098
OS2StrikeYSize: 102
OS2StrikeYPos: 512
OS2Vendor: 'newt'
OS2CodePages: 00000093.00000000
OS2UnicodeRanges: a00000ef.4000004b.00000000.00000000
Lookup: 4 0 1 "'liga' Standard Ligatures lookup 0"  {"'liga' Standard Ligatures lookup 0 subtable"  } ['liga' ('DFLT' <'dflt' > 'grek' <'dflt' > 'latn' <'dflt' > ) ]
Lookup: 258 0 0 "'kern' Horizontal Kerning in Latin lookup 0"  {"'kern' Horizontal Kerning in Latin lookup 0 per glyph data 0"  "'kern' Horizontal Kerning in Latin lookup 0 kerning class 1"  } ['kern' ('DFLT' <'dflt' > 'latn' <'dflt' > ) ]
MarkAttachClasses: 1
DEI: 91125
KernClass2: 27 24 "'kern' Horizontal Kerning in Latin lookup 0 kerning class 1" 
 81 A Agrave Aacute Acircumflex Atilde Adieresis Aring Amacron Abreve Aogonek uni0202
 75 D O Q Eth Ograve Oacute Ocircumflex Otilde Odieresis Oslash uni020C uni020E
 1 F
 1 K
 1 L
 1 P
 44 R Racute Rcommaaccent Rcaron uni0210 uni0212
 22 T uni021A Tcommaaccent
 45 U Ugrave Uacute Ucircumflex Udieresis uni0216
 1 V
 1 W
 18 Y Yacute Ydieresis

StartChar: .notdef
Encoding: 65536 -1 0
Width: 748
Flags: HW
LayerCount: 2
Fore
SplineSet
136 68 m 1,0,-1
 544 68 l 1,1,-1
 544 1297 l 1,2,-1
 136 1297 l 1,3,-1
 136 68 l 1,0,-1
68 0 m 1,4,-1
 68 1365 l 1,5,-1
 612 1365 l 1,6,-1
 612 0 l 1,7,-1
 68 0 l 1,4,-1
EndSplineSet
EndChar

StartChar: exclam
Encoding: 33 33 4
Width: 524
GlyphClass: 2
Flags: HW
LayerCount: 2
Fore
SplineSet
199 462 m 1,0,-1
 95 1800 l 1,1,-1
 438 1800 l 1,2,-1
 315 462 l 1,3,-1
 199 462 l 1,0,-1
95 0 m 1,4,-1
 95 317 l 1,5,-1
 418 317 l 1,6,-1
 418 0 l 1,7,-1
 95 0 l 1,4,-1
EndSplineSet
EndChar

StartChar: quotedbl
Encoding: 34 34 5
Width: 758
GlyphClass: 2
Flags: HW
LayerCount: 2
Fore
SplineSet
130 1202 m 1,0,-1
 40 1801 l 1,1,-1
 334 1801 l 1,2,-1
 333 1202 l 1,3,-1
 130 1202 l 1,0,-1
434 1202 m 1,4,-1
 433 1801 l 1,5,-1
 718 1801 l 1,6,-1
 616 1202 l 1,7,-1
 434 1202 l 1,4,-1
EndSplineSet
EndChar

StartChar: numbersign
Encoding: 35 35 6
Width: 1150
GlyphClass: 2
Flags: HW
LayerCount: 2
Fore
SplineSet
153 0 m 1,0,-1
 241 616 l 1,1,-1
 99 616 l 1,2,-1
 99 871 l 1,3,-1
 277 871 l 1,4,-1
 293 985 l 1,5,-1
 99 985 l 1,6,-1
 99 1240 l 1,7,-1
 330 1240 l 1,8,-1
 410 1801 l 1,9,-1
 619 1801 l 1,10,-1
 538 1240 l 1,11,-1
 680 1240 l 1,12,-1
 760 1801 l 1,13,-1
 969 1801 l 1,14,-1
 888 1240 l 1,15,-1
 1024 1240 l 1,16,-1
 1024 985 l 1,17,-1
 851 985 l 1,18,-1
 835 871 l 1,19,-1
 1024 871 l 1,20,-1
 1024 616 l 1,21,-1
 798 616 l 1,22,-1
 709 0 l 1,23,-1
 503 0 l 1,24,-1
 591 616 l 1,25,-1
 448 616 l 1,26,-1
 359 0 l 1,27,-1
 153 0 l 1,0,-1
485 871 m 1,28,-1
 627 871 l 1,29,-1
 643 985 l 1,30,-1
 501 985 l 1,31,-1
 485 871 l 1,28,-1
EndSplineSet
EndChar

StartChar: dollar
Encoding: 36 36 7
Width: 1145
GlyphClass: 2
Flags: HW
LayerCount: 2
Fore
SplineSet
529 -100 m 1,0,-1
 529 71 l 1,1,2
 203 100 203 100 118 384 c 0,3,4
 93 468 93 468 93 568 c 1,5,-1
 457 637 l 1,6,-1
 457 588 l 2,7,8
 456 464 456 464 490 406 c 0,9,10
 523 349 523 349 595 349 c 0,11,12
 698 349 698 349 698 472 c 0,13,14
 698 526 698 526 679 556.5 c 128,-1,15
 660 587 660 587 650 601.5 c 128,-1,16
 640 616 640 616 614 639 c 128,-1,17
 588 662 588 662 577.5 671.5 c 128,-1,18
 567 681 567 681 532.5 707.5 c 128,-1,19
 498 734 498 734 489 741 c 2,20,-1
 377 830 l 2,21,22
 203 968 203 968 152 1061 c 0,23,24
 94 1167 94 1167 94 1287 c 0,25,26
 94 1481 94 1481 212 1598.5 c 128,-1,27
 330 1716 330 1716 529 1734 c 1,28,-1
 529 1931 l 1,29,-1
 625 1931 l 1,30,-1
 625 1737 l 1,31,32
 808 1728 808 1728 931.5 1610.5 c 128,-1,33
 1055 1493 1055 1493 1055 1321 c 2,34,-1
 1055 1275 l 1,35,-1
 682 1225 l 1,36,37
 685 1279 685 1279 685 1299 c 0,38,39
 685 1461 685 1461 573 1461 c 0,40,41
 512 1461 512 1461 482 1422 c 128,-1,42
 452 1383 452 1383 452 1321 c 128,-1,43
 452 1259 452 1259 490.5 1207.5 c 128,-1,44
 529 1156 529 1156 604 1099 c 2,45,-1
 727 1006 l 1,46,47
 942 845 942 845 1000 731 c 0,48,49
 1056 620 1056 620 1056.5 463 c 128,-1,50
 1057 306 1057 306 932 192.5 c 128,-1,51
 807 79 807 79 625 70 c 1,52,-1
 625 -100 l 1,53,-1
 529 -100 l 1,0,-1
EndSplineSet
EndChar

StartChar: percent
Encoding: 37 37 8
Width: 2041
GlyphClass: 2
Flags: HW
LayerCount: 2
Fore
SplineSet
94 1295 m 2,0,-1
 94 1301 l 2,1,2
 94 1674 94 1674 298 1766 c 0,3,4
 374 1800 374 1800 479 1800 c 128,-1,5
 584 1800 584 1800 659.5 1765.5 c 0,6,7
 736 1731 736 1731 780 1664 c 0,8,9
 865 1537 865 1537 866 1303 c 1,10,-1
 866 1295 l 2,11,12
 866 784 866 784 480 784 c 128,-1,13
 94 784 94 784 94 1295 c 2,0,-1
360 1306 m 2,14,-1
 360 1295 l 2,15,16
 360 1108 360 1108 390 1048 c 1,17,18
 432 1000 432 1000 469 992 c 1,19,20
 518 992 518 992 542.5 1013.5 c 0,21,22
 566 1035 566 1035 578 1081 c 0,23,24
 596 1155 596 1155 597 1295 c 2,25,-1
 597 1304 l 2,26,27
 597 1461 597 1461 584.5 1497.5 c 128,-1,28
 572 1534 572 1534 559 1554 c 0,29,30
 535 1591 535 1591 491 1591 c 128,-1,31
 447 1591 447 1591 424.5 1577 c 128,-1,32
 402 1563 402 1563 389.5 1541 c 0,33,34
 376 1519 376 1519 370 1479 c 0,35,36
 360 1414 360 1414 360 1306 c 2,14,-1
1170 511 m 2,37,-1
 1170 520 l 1,38,39
 1173 890 1173 890 1374 982 c 0,40,41
 1449 1016 1449 1016 1554.5 1016 c 128,-1,42
 1660 1016 1660 1016 1735.5 981.5 c 0,43,44
 1812 946 1812 946 1856 880 c 0,45,46
 1940 754 1940 754 1942 520 c 1,47,-1
 1942 511 l 2,48,49
 1942 0 1942 0 1556 0 c 128,-1,50
 1170 0 1170 0 1170 511 c 2,37,-1
1436 517 m 2,51,-1
 1436 511 l 2,52,53
 1436 324 1436 324 1466 264 c 1,54,55
 1508 216 1508 216 1545 208 c 1,56,57
 1594 208 1594 208 1618.5 229.5 c 0,58,59
 1642 251 1642 251 1654 297 c 0,60,61
 1672 371 1672 371 1673 511 c 2,62,-1
 1673 516 l 2,63,64
 1673 680 1673 680 1660.5 714.5 c 128,-1,65
 1648 749 1648 749 1635.5 769 c 128,-1,66
 1623 789 1623 789 1602.5 798 c 128,-1,67
 1582 807 1582 807 1555 807 c 128,-1,68
 1528 807 1528 807 1508 798 c 128,-1,69
 1488 789 1488 789 1475 769.5 c 128,-1,70
 1462 750 1462 750 1454 727.5 c 0,71,72
 1446 704 1446 704 1442 668 c 0,73,74
 1436 614 1436 614 1436 517 c 2,51,-1
634 0 m 1,75,-1
 1211 1835 l 1,76,-1
 1391 1835 l 1,77,-1
 813 0 l 1,78,-1
 634 0 l 1,75,-1
EndSplineSet
EndChar

StartChar: ampersand
Encoding: 38 38 9
Width: 1194
GlyphClass: 2
Flags: HW
LayerCount: 2
Fore
SplineSet
969 342 m 1,0,1
 1032 271 1032 271 1129 262 c 1,2,-1
 1129 -23 l 1,3,4
 1099 -29 1099 -29 1069 -29 c 0,5,6
 952 -29 952 -29 795 121 c 1,7,8
 661 -30 661 -30 467.5 -30 c 128,-1,9
 274 -30 274 -30 170 88.5 c 128,-1,10
 66 207 66 207 66 389 c 0,11,12
 66 652 66 652 294 906 c 1,13,14
 134 1261 134 1261 134 1433.5 c 128,-1,15
 134 1606 134 1606 231.5 1720 c 128,-1,16
 329 1834 329 1834 502.5 1834 c 128,-1,17
 676 1834 676 1834 785.5 1730 c 128,-1,18
 895 1626 895 1626 895 1457 c 128,-1,19
 895 1288 895 1288 821.5 1150.5 c 128,-1,20
 748 1013 748 1013 615 876 c 1,21,-1
 802 564 l 1,22,23
 843 671 843 671 843 874 c 1,24,-1
 1119 874 l 1,25,26
 1119 691 1119 691 1085 576.5 c 128,-1,27
 1051 462 1051 462 969 342 c 1,0,1
507 1105 m 1,28,29
 556 1176 556 1176 587.5 1265.5 c 0,30,31
 619 1354 619 1354 619 1424 c 0,32,33
 619 1582 619 1582 522 1583 c 0,34,35
 436 1583 436 1583 436 1430.5 c 128,-1,36
 436 1278 436 1278 507 1105 c 1,28,29
606 313 m 1,37,38
 481 515 481 515 424 628 c 1,39,40
 405 609 405 609 391.5 546.5 c 128,-1,41
 378 484 378 484 378 408 c 128,-1,42
 378 332 378 332 399 276.5 c 128,-1,43
 420 221 420 221 464 221 c 0,44,45
 534 221 534 221 606 313 c 1,37,38
EndSplineSet
EndChar

StartChar: quotesingle
Encoding: 39 39 10
Width: 356
GlyphClass: 2
Flags: HW
LayerCount: 2
Fore
SplineSet
101 1201 m 1,0,-1
 31 1799 l 1,1,-1
 335 1799 l 1,2,-1
 264 1201 l 1,3,-1
 101 1201 l 1,0,-1
EndSplineSet
EndChar

StartChar: parenleft
Encoding: 40 40 11
Width: 696
GlyphClass: 2
Flags: HW
LayerCount: 2
Fore
SplineSet
637 158 m 1,0,-1
 637 -64 l 1,1,2
 634 -64 634 -64 632 -64 c 0,3,4
 534 -64 534 -64 458 -28 c 0,5,6
 380 8 380 8 330.5 59 c 128,-1,7
 281 110 281 110 245.5 200.5 c 128,-1,8
 210 291 210 291 193 361.5 c 128,-1,9
 176 432 176 432 167 547 c 0,10,11
 156 688 156 688 156 793 c 2,12,-1
 156 951 l 2,13,14
 156 1326 156 1326 193 1481 c 0,15,16
 244 1694 244 1694 330 1784 c 0,17,18
 380 1836 380 1836 458.5 1871.5 c 128,-1,19
 537 1907 537 1907 637 1907 c 1,20,-1
 637 1685 l 1,21,22
 635 1685 635 1685 633 1685 c 0,23,24
 558 1686 558 1686 516 1606 c 0,25,26
 472 1523 472 1523 461 1438 c 128,-1,27
 450 1353 450 1353 445 1298.5 c 128,-1,28
 440 1244 440 1244 440 1181 c 0,29,30
 440 1149 440 1149 439.5 1122.5 c 0,31,32
 440 1096 440 1096 440 1074 c 0,33,34
 440 1030 440 1030 441.5 983 c 128,-1,35
 443 936 443 936 443 921 c 128,-1,36
 443 906 443 906 441.5 859 c 128,-1,37
 440 812 440 812 440 768 c 0,38,39
 440 746 440 746 439.5 720 c 0,40,41
 440 694 440 694 440 662 c 0,42,43
 440 599 440 599 445 544.5 c 128,-1,44
 450 490 450 490 457.5 430 c 128,-1,45
 465 370 465 370 480 323 c 0,46,47
 496 276 496 276 516 238 c 0,48,49
 558 158 558 158 633 158 c 0,50,51
 635 158 635 158 637 158 c 1,0,-1
EndSplineSet
EndChar

StartChar: parenright
Encoding: 41 41 12
Width: 696
GlyphClass: 2
Flags: HW
LayerCount: 2
Fore
SplineSet
304 921 m 1,0,-1
 307 1074 l 1,1,2
 306 1398 306 1398 266 1520 c 0,3,4
 229 1631 229 1631 180 1665 c 0,5,6
 150 1685 150 1685 114 1685 c 0,7,8
 112 1685 112 1685 110 1685 c 1,9,-1
 110 1907 l 1,10,11
 210 1907 210 1907 288.5 1870.5 c 128,-1,12
 367 1834 367 1834 417 1782.5 c 128,-1,13
 467 1731 467 1731 502.5 1640 c 128,-1,14
 538 1549 538 1549 555 1478 c 0,15,16
 572 1408 572 1408 581 1292 c 0,17,18
 592 1151 592 1151 592 1040 c 2,19,-1
 592 895 l 2,20,21
 592 520 592 520 555 364 c 0,22,23
 504 150 504 150 417 60 c 0,24,25
 366 8 366 8 288 -28 c 0,26,27
 212 -64 212 -64 115 -64 c 0,28,29
 112 -64 112 -64 110 -64 c 1,30,-1
 110 158 l 1,31,32
 112 158 112 158 114 158 c 0,33,34
 190 158 190 158 231 238 c 0,35,36
 276 325 276 325 286.5 407.5 c 0,37,38
 298 490 298 490 302 545 c 0,39,40
 308 612 308 612 307 768 c 1,41,-1
 304 921 l 1,0,-1
EndSplineSet
EndChar

StartChar: asterisk
Encoding: 42 42 13
Width: 913
GlyphClass: 2
Flags: HW
LayerCount: 2
Fore
SplineSet
158 974 m 1,0,-1
 320 1205 l 1,1,-1
 76 1299 l 1,2,-1
 150 1496 l 1,3,-1
 373 1378 l 1,4,-1
 346 1642 l 1,5,-1
 596 1642 l 1,6,-1
 571 1377 l 1,7,-1
 794 1497 l 1,8,-1
 868 1298 l 1,9,-1
 622 1204 l 1,10,-1
 787 974 l 1,11,-1
 589 858 l 1,12,-1
 471 1093 l 1,13,-1
 354 858 l 1,14,-1
 158 974 l 1,0,-1
EndSplineSet
EndChar

StartChar: plus
Encoding: 43 43 14
Width: 762
GlyphClass: 2
Flags: HW
LayerCount: 2
Fore
SplineSet
70 583 m 1,0,-1
 70 806 l 1,1,-1
 265 806 l 1,2,-1
 265 1000 l 1,3,-1
 487 1000 l 1,4,-1
 487 806 l 1,5,-1
 682 806 l 1,6,-1
 682 583 l 1,7,-1
 487 583 l 1,8,-1
 487 389 l 1,9,-1
 265 389 l 1,10,-1
 265 583 l 1,11,-1
 70 583 l 1,0,-1
EndSplineSet
EndChar

StartChar: comma
Encoding: 44 44 15
Width: 469
GlyphClass: 2
Flags: HW
LayerCount: 2
Fore
SplineSet
153 -244 m 1,0,-1
 113 -78 l 1,1,-1
 128 -78 l 2,2,3
 154 -78 154 -78 163.5 -77.5 c 0,4,5
 173 -76 173 -76 182 -68 c 0,6,7
 194 -57 194 -57 194 -1 c 1,8,-1
 84 -1 l 1,9,-1
 84 317 l 1,10,-1
 407 317 l 1,11,12
 407 70 407 70 406 49 c 0,13,14
 398 -132 398 -132 340 -198 c 0,15,16
 295 -249 295 -249 207 -248 c 0,17,18
 182 -248 182 -248 153 -244 c 1,0,-1
EndSplineSet
EndChar

StartChar: hyphen
Encoding: 45 45 16
Width: 429
GlyphClass: 2
Flags: HW
LayerCount: 2
Fore
SplineSet
4 453 m 1,0,-1
 4 676 l 1,1,-1
 421 676 l 1,2,-1
 421 453 l 1,3,-1
 4 453 l 1,0,-1
EndSplineSet
EndChar

StartChar: period
Encoding: 46 46 17
Width: 522
GlyphClass: 2
Flags: HW
LayerCount: 2
Fore
SplineSet
99 0 m 1,0,-1
 99 317 l 1,1,-1
 424 317 l 1,2,-1
 424 0 l 1,3,-1
 99 0 l 1,0,-1
EndSplineSet
EndChar

StartChar: slash
Encoding: 47 47 18
Width: 895
GlyphClass: 2
Flags: HW
LayerCount: 2
Fore
SplineSet
91 0 m 1,0,-1
 668 1835 l 1,1,-1
 848 1835 l 1,2,-1
 270 0 l 1,3,-1
 91 0 l 1,0,-1
EndSplineSet
EndChar

StartChar: zero
Encoding: 48 48 19
Width: 1137
GlyphClass: 2
Flags: HW
LayerCount: 2
Fore
SplineSet
84 528 m 2,0,-1
 84 1269 l 2,1,2
 84 1512 84 1512 198 1668 c 0,3,4
 319 1834 319 1834 569 1834 c 0,5,6
 818 1834 818 1834 939 1668 c 0,7,8
 1053 1511 1053 1511 1053 1269 c 2,9,-1
 1053 528 l 2,10,11
 1052 292 1052 292 934 134 c 0,12,13
 876 56 876 56 782 10.5 c 128,-1,14
 688 -35 688 -35 568 -35 c 128,-1,15
 448 -35 448 -35 353.5 10 c 128,-1,16
 259 55 259 55 201 133 c 0,17,18
 84 290 84 290 84 528 c 2,0,-1
704 528 m 2,19,-1
 704 1269 l 2,20,21
 704 1528 704 1528 569 1528 c 0,22,23
 446 1528 446 1528 436 1332 c 0,24,25
 434 1305 434 1305 435 1269 c 2,26,-1
 435 528 l 2,27,28
 436 345 436 345 510 289 c 0,29,30
 536 270 536 270 573.5 270 c 128,-1,31
 611 270 611 270 640 296.5 c 128,-1,32
 669 323 669 323 682 367 c 0,33,34
 704 441 704 441 704 528 c 2,19,-1
EndSplineSet
EndChar

StartChar: one
Encoding: 49 49 20
Width: 676
GlyphClass: 2
Flags: HW
LayerCount: 2
Fore
SplineSet
225 0 m 1,0,-1
 225 1337 l 1,1,-1
 43 1337 l 1,2,-1
 43 1602 l 1,3,4
 71 1619 71 1619 118 1641.5 c 128,-1,5
 165 1664 165 1664 191 1678 c 128,-1,6
 217 1692 217 1692 249 1724 c 128,-1,7
 281 1756 281 1756 303 1801 c 1,8,-1
 569 1801 l 1,9,-1
 569 0 l 1,10,-1
 225 0 l 1,0,-1
EndSplineSet
EndChar

StartChar: two
Encoding: 50 50 21
Width: 1067
GlyphClass: 2
Flags: HW
LayerCount: 2
Fore
SplineSet
874 880 m 0,0,1
 767 713 767 713 633 557 c 128,-1,2
 499 401 499 401 458 346 c 1,3,-1
 1018 346 l 1,4,-1
 1018 0 l 1,5,-1
 60 0 l 1,6,-1
 60 309 l 1,7,-1
 498 936 l 1,8,9
 628 1125 628 1125 658 1233 c 0,10,11
 672 1287 672 1287 672 1328.5 c 128,-1,12
 672 1370 672 1370 664.5 1402 c 128,-1,13
 657 1434 657 1434 642 1464 c 0,14,15
 608 1531 608 1531 540 1531 c 0,16,17
 475 1531 475 1531 444 1467 c 0,18,19
 414 1405 414 1405 411 1346.5 c 128,-1,20
 408 1288 408 1288 406 1251.5 c 128,-1,21
 404 1215 404 1215 405 1192.5 c 128,-1,22
 406 1170 406 1170 406 1163 c 1,23,-1
 61 1163 l 1,24,-1
 61 1276 l 2,25,26
 61 1708 61 1708 356 1808 c 0,27,28
 437 1836 437 1836 540 1835 c 0,29,30
 768 1835 768 1835 893 1701.5 c 128,-1,31
 1018 1568 1018 1568 1018 1336 c 128,-1,32
 1018 1104 1018 1104 874 880 c 0,0,1
EndSplineSet
EndChar

StartChar: three
Encoding: 51 51 22
Width: 1094
GlyphClass: 2
Flags: HW
LayerCount: 2
Fore
SplineSet
555 271 m 0,0,1
 689 270 689 270 689 484 c 2,2,-1
 689 530 l 2,3,4
 690 656 690 656 628 724 c 0,5,6
 569 790 569 790 452 789 c 0,7,8
 447 789 447 789 442 789 c 1,9,-1
 442 1139 l 1,10,11
 453 1139 453 1139 463 1139 c 0,12,13
 634 1139 634 1139 672 1234 c 0,14,15
 688 1275 688 1275 688.5 1326 c 128,-1,16
 689 1377 689 1377 684 1407.5 c 128,-1,17
 679 1438 679 1438 666 1468 c 0,18,19
 639 1531 639 1531 555 1531 c 0,20,21
 505 1531 505 1531 484 1508.5 c 128,-1,22
 463 1486 463 1486 452.5 1467 c 128,-1,23
 442 1448 442 1448 436.5 1425.5 c 128,-1,24
 431 1403 431 1403 426.5 1379 c 128,-1,25
 422 1355 422 1355 421.5 1331 c 128,-1,26
 421 1307 421 1307 420 1284 c 128,-1,27
 419 1261 419 1261 419.5 1245 c 128,-1,28
 420 1229 420 1229 420 1223 c 1,29,-1
 71 1223 l 1,30,-1
 71 1337 l 2,31,32
 71 1570 71 1570 197.5 1703 c 128,-1,33
 324 1836 324 1836 554.5 1836 c 128,-1,34
 785 1836 785 1836 912 1702 c 128,-1,35
 1039 1568 1039 1568 1039 1337 c 0,36,37
 1039 1224 1039 1224 992.5 1120.5 c 128,-1,38
 946 1017 946 1017 857 961 c 1,39,40
 952 891 952 891 995.5 776.5 c 128,-1,41
 1039 662 1039 662 1039 533.5 c 128,-1,42
 1039 405 1039 405 1012.5 305 c 128,-1,43
 986 205 986 205 930 127 c 0,44,45
 815 -35 815 -35 555 -35 c 0,46,47
 154 -35 154 -35 88 341 c 0,48,49
 74 421 74 421 72 521 c 1,50,-1
 72 582 l 1,51,-1
 420 582 l 1,52,53
 420 454 420 454 429 405 c 0,54,55
 455 271 455 271 555 271 c 0,0,1
EndSplineSet
EndChar

StartChar: four
Encoding: 52 52 23
Width: 1107
GlyphClass: 2
Flags: HW
LayerCount: 2
Fore
SplineSet
62 437 m 1,0,-1
 62 719 l 1,1,-1
 502 1801 l 1,2,-1
 911 1801 l 1,3,-1
 911 717 l 1,4,-1
 1079 717 l 1,5,-1
 1079 437 l 1,6,-1
 911 437 l 1,7,-1
 911 0 l 1,8,-1
 566 0 l 1,9,-1
 566 437 l 1,10,-1
 62 437 l 1,0,-1
370 717 m 1,11,-1
 566 717 l 1,12,-1
 566 1257 l 1,13,-1
 370 717 l 1,11,-1
EndSplineSet
EndChar

StartChar: five
Encoding: 53 53 24
Width: 1115
GlyphClass: 2
Flags: HW
LayerCount: 2
Fore
SplineSet
553 260 m 0,0,1
 710 260 710 260 710 563 c 0,2,3
 710 589 710 589 709 618 c 1,4,-1
 709 645 l 2,5,6
 709 760 709 760 695 798 c 0,7,8
 680 836 680 836 666 859 c 0,9,10
 636 907 636 907 580.5 907 c 128,-1,11
 525 907 525 907 487.5 864.5 c 128,-1,12
 450 822 450 822 428 767 c 1,13,-1
 133 767 l 1,14,-1
 133 1801 l 1,15,-1
 990 1801 l 1,16,-1
 990 1459 l 1,17,-1
 457 1459 l 1,18,-1
 457 1134 l 1,19,20
 553 1193 553 1193 640.5 1193 c 128,-1,21
 728 1193 728 1193 802.5 1162 c 128,-1,22
 877 1131 877 1131 922.5 1080 c 128,-1,23
 968 1029 968 1029 998 956 c 0,24,25
 1050 829 1050 829 1049 640 c 0,26,27
 1050 334 1050 334 960 178 c 0,28,29
 837 -34 837 -34 569 -35 c 0,30,31
 254 -36 254 -36 152 216 c 0,32,33
 94 357 94 357 95 571 c 1,34,-1
 441 571 l 1,35,36
 440 538 440 538 440 510 c 0,37,38
 440 402 440 402 450 368 c 0,39,40
 464 326 464 326 476 304 c 0,41,42
 500 260 500 260 553 260 c 0,0,1
EndSplineSet
EndChar

StartChar: six
Encoding: 54 54 25
Width: 1112
GlyphClass: 2
Flags: HW
LayerCount: 2
Fore
SplineSet
87 550 m 2,0,-1
 87 1188 l 2,1,2
 87 1519 87 1519 234 1694 c 0,3,4
 287 1757 287 1757 374 1796 c 128,-1,5
 461 1835 461 1835 572 1835 c 128,-1,6
 683 1835 683 1835 770.5 1795 c 0,7,8
 858 1754 858 1754 914 1684 c 0,9,10
 1028 1540 1028 1540 1027 1314 c 2,11,-1
 1027 1282 l 1,12,-1
 688 1282 l 1,13,14
 688 1418 688 1418 662 1472 c 0,15,16
 633 1530 633 1530 572 1530 c 0,17,18
 436 1530 436 1530 436 1193 c 0,19,20
 436 1186 436 1186 436 1178 c 2,21,-1
 436 1075 l 1,22,23
 528 1137 528 1137 633.5 1137 c 128,-1,24
 739 1137 739 1137 812.5 1107.5 c 128,-1,25
 886 1078 886 1078 932 1029 c 128,-1,26
 978 980 978 980 1006 908 c 0,27,28
 1056 780 1056 780 1057 590 c 0,29,30
 1057 270 1057 270 897 100 c 0,31,32
 776 -28 776 -28 572 -29 c 0,33,34
 287 -29 287 -29 158 225 c 0,35,36
 87 365 87 365 87 550 c 2,0,-1
438 762 m 1,37,-1
 438 529 l 2,38,39
 438 346 438 346 512 290 c 0,40,41
 538 271 538 271 565 271 c 128,-1,42
 592 271 592 271 609.5 276.5 c 128,-1,43
 627 282 627 282 640 295 c 128,-1,44
 653 308 653 308 663 320 c 128,-1,45
 673 332 673 332 680 354.5 c 128,-1,46
 687 377 687 377 692.5 391 c 128,-1,47
 698 405 698 405 700.5 433 c 128,-1,48
 703 461 703 461 705 473 c 128,-1,49
 707 485 707 485 707.5 514 c 0,50,51
 708 542 708 542 708 548 c 2,52,-1
 708 580 l 2,53,54
 708 704 708 704 694.5 739.5 c 0,55,56
 681 774 681 774 667 798 c 0,57,58
 639 846 639 846 565 846 c 128,-1,59
 491 846 491 846 438 762 c 1,37,-1
EndSplineSet
EndChar

StartChar: seven
Encoding: 55 55 26
Width: 827
GlyphClass: 2
Flags: HW
LayerCount: 2
Fore
SplineSet
155 0 m 1,0,-1
 467 1496 l 1,1,-1
 29 1496 l 1,2,-1
 29 1799 l 1,3,-1
 804 1799 l 1,4,-1
 804 1622 l 1,5,-1
 494 0 l 1,6,-1
 155 0 l 1,0,-1
EndSplineSet
EndChar

StartChar: eight
Encoding: 56 56 27
Width: 1088
GlyphClass: 2
Flags: HW
LayerCount: 2
Fore
SplineSet
657 1367 m 0,0,1
 657 1561 657 1561 543 1561 c 128,-1,2
 429 1561 429 1561 429 1367 c 0,3,4
 429 1241 429 1241 440.5 1199.5 c 128,-1,5
 452 1158 452 1158 464 1130 c 0,6,7
 489 1074 489 1074 544 1074 c 0,8,9
 612 1074 612 1074 636 1161 c 0,10,11
 657 1237 657 1237 657 1367 c 0,0,1
214 952 m 1,12,13
 82 1088 82 1088 82 1328 c 128,-1,14
 82 1568 82 1568 199.5 1702 c 128,-1,15
 317 1836 317 1836 544 1836 c 128,-1,16
 771 1836 771 1836 887 1701.5 c 128,-1,17
 1003 1567 1003 1567 1003 1325.5 c 128,-1,18
 1003 1084 1003 1084 872 952 c 1,19,20
 1000 848 1000 848 1022 650 c 0,21,22
 1028 596 1028 596 1028 498 c 128,-1,23
 1028 400 1028 400 1002.5 301 c 128,-1,24
 977 202 977 202 922 126 c 0,25,26
 809 -30 809 -30 544 -31 c 0,27,28
 60 -31 60 -31 60 528 c 0,29,30
 60 671 60 671 91 774.5 c 128,-1,31
 122 878 122 878 214 952 c 1,12,13
544 251 m 128,-1,33
 574 251 574 251 597.5 261 c 128,-1,34
 621 271 621 271 635.5 284.5 c 128,-1,35
 650 298 650 298 661 322.5 c 128,-1,36
 672 347 672 347 677 366 c 128,-1,37
 682 385 682 385 684 416 c 0,38,39
 688 459 688 459 688 508 c 0,40,41
 688 804 688 804 543.5 804 c 128,-1,42
 399 804 399 804 399 508 c 0,43,44
 399 412 399 412 407.5 379 c 128,-1,45
 416 346 416 346 427 322 c 128,-1,46
 438 298 438 298 453 284 c 128,-1,47
 468 270 468 270 491 260.5 c 128,-1,32
 514 251 514 251 544 251 c 128,-1,33
EndSplineSet
EndChar

StartChar: nine
Encoding: 57 57 28
Width: 1135
GlyphClass: 2
Flags: HW
LayerCount: 2
Fore
SplineSet
101 489 m 1,0,-1
 101 519 l 1,1,-1
 442 519 l 1,2,3
 442 402 442 402 454.5 369.5 c 128,-1,4
 467 337 467 337 480 315 c 0,5,6
 506 271 506 271 566 271 c 0,7,8
 636 270 636 270 672 360 c 0,9,10
 701 434 701 434 702 503.5 c 128,-1,11
 703 573 703 573 704 601 c 128,-1,12
 705 629 705 629 704.5 646.5 c 128,-1,13
 704 664 704 664 704 670 c 2,14,-1
 704 715 l 1,15,16
 614 665 614 665 504 665 c 0,17,18
 81 665 81 665 81 1212 c 0,19,20
 81 1530 81 1530 242 1704 c 0,21,22
 363 1834 363 1834 566 1835 c 0,23,24
 850 1835 850 1835 979 1561 c 0,25,26
 1051 1408 1051 1408 1051 1212 c 2,27,-1
 1051 652 l 2,28,29
 1051 147 1051 147 765 12 c 0,30,31
 678 -29 678 -29 565 -29 c 128,-1,32
 452 -29 452 -29 363.5 10 c 0,33,34
 276 50 276 50 220 120 c 0,35,36
 108 262 108 262 101 489 c 1,0,-1
702 1034 m 1,37,-1
 702 1271 l 2,38,39
 702 1444 702 1444 638 1503 c 0,40,41
 608 1530 608 1530 573 1530 c 128,-1,42
 538 1530 538 1530 516 1517.5 c 128,-1,43
 494 1505 494 1505 480.5 1487.5 c 128,-1,44
 467 1470 467 1470 457 1440 c 128,-1,45
 447 1410 447 1410 442.5 1387 c 128,-1,46
 438 1364 438 1364 436 1328 c 0,47,48
 432 1278 432 1278 432 1237 c 2,49,-1
 432 1182 l 2,50,51
 432 1097 432 1097 449 1051 c 128,-1,52
 466 1005 466 1005 480 990 c 0,53,54
 515 953 515 953 560 953 c 0,55,56
 649 953 649 953 702 1034 c 1,37,-1
EndSplineSet
EndChar

StartChar: colon
Encoding: 58 58 29
Width: 518
GlyphClass: 2
Flags: HW
LayerCount: 2
Fore
SplineSet
99 897 m 1,0,-1
 99 1213 l 1,1,-1
 420 1213 l 1,2,-1
 420 897 l 1,3,-1
 99 897 l 1,0,-1
99 151 m 1,4,-1
 99 466 l 1,5,-1
 420 466 l 1,6,-1
 420 151 l 1,7,-1
 99 151 l 1,4,-1
EndSplineSet
EndChar

StartChar: semicolon
Encoding: 59 59 30
Width: 510
GlyphClass: 2
Flags: HW
LayerCount: 2
Fore
SplineSet
87 897 m 1,0,-1
 87 1213 l 1,1,-1
 408 1213 l 1,2,-1
 408 897 l 1,3,-1
 87 897 l 1,0,-1
154 -95 m 1,4,-1
 114 71 l 1,5,-1
 129 71 l 2,6,7
 155 71 155 71 164.5 71.5 c 128,-1,8
 174 72 174 72 183 80 c 0,9,10
 195 91 195 91 195 148 c 1,11,-1
 85 148 l 1,12,-1
 85 466 l 1,13,-1
 408 466 l 1,14,15
 408 219 408 219 407 198 c 0,16,17
 400 18 400 18 342 -48 c 0,18,19
 297 -99 297 -99 208 -99 c 0,20,21
 183 -99 183 -99 154 -95 c 1,4,-1
EndSplineSet
EndChar

StartChar: less
Encoding: 60 60 31
Width: 865
GlyphClass: 2
Flags: HW
LayerCount: 2
Fore
SplineSet
74 525 m 1,0,-1
 74 799 l 1,1,-1
 750 1272 l 1,2,-1
 750 979 l 1,3,-1
 306 664 l 1,4,5
 380 610 380 610 750 345 c 1,6,-1
 750 53 l 1,7,-1
 74 525 l 1,0,-1
EndSplineSet
EndChar

StartChar: equal
Encoding: 61 61 32
Width: 762
GlyphClass: 2
Flags: HW
LayerCount: 2
Fore
SplineSet
70 583 m 1,0,-1
 70 806 l 1,1,-1
 682 806 l 1,2,-1
 682 583 l 1,3,-1
 70 583 l 1,0,-1
70 258 m 1,4,-1
 70 480 l 1,5,-1
 682 480 l 1,6,-1
 682 258 l 1,7,-1
 70 258 l 1,4,-1
EndSplineSet
EndChar

StartChar: greater
Encoding: 62 62 33
Width: 865
GlyphClass: 2
Flags: HW
LayerCount: 2
Fore
SplineSet
115 53 m 1,0,-1
 115 345 l 1,1,-1
 559 664 l 1,2,-1
 115 979 l 1,3,-1
 115 1272 l 1,4,-1
 791 799 l 1,5,-1
 791 525 l 1,6,-1
 115 53 l 1,0,-1
EndSplineSet
EndChar

StartChar: question
Encoding: 63 63 34
Width: 974
GlyphClass: 2
Flags: HW
LayerCount: 2
Fore
SplineSet
609 1402 m 0,0,1
 609 1541 609 1541 483 1541 c 0,2,3
 427 1541 427 1541 398.5 1495.5 c 128,-1,4
 370 1450 370 1450 370 1385 c 128,-1,5
 370 1320 370 1320 389 1258 c 1,6,-1
 75 1198 l 1,7,8
 46 1309 46 1309 46 1408 c 0,9,10
 46 1600 46 1600 155 1717.5 c 128,-1,11
 264 1835 264 1835 484 1835 c 128,-1,12
 704 1835 704 1835 825 1717.5 c 128,-1,13
 946 1600 946 1600 946 1394 c 128,-1,14
 946 1188 946 1188 852.5 1022 c 128,-1,15
 759 856 759 856 593 760 c 1,16,-1
 593 480 l 1,17,-1
 259 480 l 1,18,-1
 259 868 l 1,19,20
 393 959 393 959 496 1094 c 0,21,22
 609 1242 609 1242 609 1402 c 0,0,1
259 0 m 1,23,-1
 259 324 l 1,24,-1
 593 324 l 1,25,-1
 593 0 l 1,26,-1
 259 0 l 1,23,-1
EndSplineSet
EndChar

StartChar: at
Encoding: 64 64 35
Width: 1727
GlyphClass: 2
Flags: HW
LayerCount: 2
Fore
SplineSet
759 716 m 0,0,1
 759 537 759 537 862 537 c 0,2,3
 896 537 896 537 923 565 c 1,4,-1
 923 969 l 1,5,6
 921 985 921 985 910 996.5 c 128,-1,7
 899 1008 899 1008 879.5 1008 c 128,-1,8
 860 1008 860 1008 841.5 1000.5 c 128,-1,9
 823 993 823 993 810.5 979.5 c 128,-1,10
 798 966 798 966 788 948 c 128,-1,11
 778 930 778 930 773 909 c 128,-1,12
 768 888 768 888 764.5 865.5 c 128,-1,13
 761 843 761 843 760.5 820.5 c 128,-1,14
 760 798 760 798 759 776 c 0,15,16
 758 762 758 762 758 750 c 0,17,18
 758 744 758 744 758 738 c 0,19,20
 758 722 758 722 759 716 c 0,0,1
993 412 m 1,21,22
 905 295 905 295 817 295 c 0,23,24
 706 295 706 295 626 358 c 0,25,26
 472 479 472 479 472 716 c 0,27,28
 472 959 472 959 568 1113 c 0,29,30
 602 1168 602 1168 660.5 1204 c 128,-1,31
 719 1240 719 1240 800 1240 c 128,-1,32
 881 1240 881 1240 923 1177 c 1,33,-1
 923 1231 l 1,34,-1
 1210 1231 l 1,35,-1
 1210 642 l 2,36,37
 1210 576 1210 576 1224 556.5 c 128,-1,38
 1238 537 1238 537 1268 537 c 128,-1,39
 1298 537 1298 537 1321 566.5 c 128,-1,40
 1344 596 1344 596 1353 643 c 0,41,42
 1368 721 1368 721 1368 826 c 128,-1,43
 1368 931 1368 931 1345 1035.5 c 128,-1,44
 1322 1140 1322 1140 1268 1224 c 0,45,46
 1157 1396 1157 1396 874 1397 c 0,47,48
 745 1397 745 1397 646 1349 c 128,-1,49
 547 1301 547 1301 488 1216 c 0,50,51
 370 1046 370 1046 370 791 c 0,52,53
 370 378 370 378 544 218 c 0,54,55
 679 94 679 94 937 94 c 0,56,57
 1064 94 1064 94 1245 152 c 1,58,-1
 1353 -74 l 1,59,60
 1105 -130 1105 -130 905.5 -130 c 128,-1,61
 706 -130 706 -130 542 -71 c 128,-1,62
 378 -12 378 -12 277 107 c 0,63,64
 83 336 83 336 83 791 c 0,65,66
 82 1160 82 1160 290 1388 c 0,67,68
 390 1498 390 1498 540 1558.5 c 128,-1,69
 690 1619 690 1619 874 1619 c 0,70,71
 1128 1619 1128 1619 1305 1516 c 0,72,73
 1655 1312 1655 1312 1655 791 c 0,74,75
 1654 596 1654 596 1566 452 c 0,76,77
 1522 380 1522 380 1445.5 337.5 c 128,-1,78
 1369 295 1369 295 1270 295 c 0,79,80
 1094 295 1094 295 993 412 c 1,21,22
EndSplineSet
EndChar

StartChar: A
Encoding: 65 65 36
Width: 1117
GlyphClass: 2
Flags: HW
LayerCount: 2
Fore
SplineSet
9 0 m 1,0,-1
 398 1800 l 1,1,-1
 720 1800 l 1,2,-1
 1108 0 l 1,3,-1
 749 0 l 1,4,-1
 675 385 l 1,5,-1
 440 385 l 1,6,-1
 370 0 l 1,7,-1
 9 0 l 1,0,-1
465 609 m 1,8,-1
 651 609 l 1,9,-1
 560 1277 l 1,10,-1
 465 609 l 1,8,-1
EndSplineSet
EndChar

StartChar: B
Encoding: 66 66 37
Width: 1140
GlyphClass: 2
Flags: HW
LayerCount: 2
Fore
SplineSet
107 0 m 1,0,-1
 107 1800 l 1,1,-1
 478 1800 l 2,2,3
 802 1800 802 1800 926 1667 c 0,4,5
 1030 1555 1030 1555 1030 1335 c 0,6,7
 1030 1194 1030 1194 963.5 1113 c 128,-1,8
 897 1032 897 1032 757 985 c 1,9,10
 1078 907 1078 907 1078 531 c 0,11,12
 1078 260 1078 260 948 130 c 128,-1,13
 818 0 818 0 551 0 c 2,14,-1
 107 0 l 1,0,-1
469 1092 m 1,15,-1
 531 1092 l 2,16,17
 630 1092 630 1092 666 1166 c 0,18,19
 698 1232 698 1232 698 1310.5 c 128,-1,20
 698 1389 698 1389 691.5 1423 c 128,-1,21
 685 1457 685 1457 677 1479.5 c 128,-1,22
 669 1502 669 1502 650 1517.5 c 128,-1,23
 631 1533 631 1533 616.5 1540.5 c 128,-1,24
 602 1548 602 1548 572 1552 c 0,25,26
 534 1556 534 1556 469 1556 c 1,27,-1
 469 1092 l 1,15,-1
471 257 m 1,28,-1
 505 257 l 2,29,30
 645 257 645 257 687 330 c 0,31,32
 725 396 725 396 725 546.5 c 128,-1,33
 725 697 725 697 675.5 775 c 128,-1,34
 626 853 626 853 507 853 c 2,35,-1
 471 853 l 1,36,-1
 471 257 l 1,28,-1
EndSplineSet
EndChar

StartChar: C
Encoding: 67 67 38
Width: 1174
GlyphClass: 2
Flags: HW
LayerCount: 2
Fore
SplineSet
84 601 m 2,0,-1
 84 1197 l 2,1,2
 84 1835 84 1835 606 1835 c 0,3,4
 922 1835 922 1835 1040 1596 c 0,5,6
 1110 1453 1110 1453 1111 1235 c 2,7,-1
 1111 1080 l 1,8,-1
 753 1080 l 1,9,-1
 753 1246 l 2,10,11
 754 1416 754 1416 718 1486 c 1,12,13
 662 1544 662 1544 606 1554 c 1,14,15
 448 1554 448 1554 448 1288 c 2,16,-1
 448 511 l 2,17,18
 448 246 448 246 606 246 c 0,19,20
 702 246 702 246 731 350 c 0,21,22
 755 435 755 435 755 555 c 2,23,-1
 755 740 l 1,24,-1
 1111 740 l 1,25,-1
 1111 588 l 1,26,27
 1104 246 1104 246 952 90 c 0,28,29
 829 -35 829 -35 606 -35 c 0,30,31
 274 -34 274 -34 153 228 c 0,32,33
 84 378 84 378 84 601 c 2,0,-1
EndSplineSet
EndChar

StartChar: D
Encoding: 68 68 39
Width: 1164
GlyphClass: 2
Flags: HW
LayerCount: 2
Fore
SplineSet
485 255 m 1,0,1
 637 254 637 254 671 280 c 0,2,3
 706 306 706 306 711 346 c 128,-1,4
 716 386 716 386 716 427 c 2,5,-1
 716 1396 l 2,6,7
 716 1485 716 1485 663 1514 c 128,-1,8
 610 1543 610 1543 485 1544 c 1,9,-1
 485 255 l 1,0,1
107 0 m 1,10,-1
 107 1800 l 1,11,-1
 483 1800 l 2,12,13
 663 1800 663 1800 779.5 1767.5 c 128,-1,14
 896 1735 896 1735 962.5 1660.5 c 128,-1,15
 1029 1586 1029 1586 1054.5 1482 c 128,-1,16
 1080 1378 1080 1378 1080 1217 c 2,17,-1
 1080 627 l 2,18,19
 1080 326 1080 326 1006 204 c 0,20,21
 940 94 940 94 824 50 c 0,22,23
 692 0 692 0 479 0 c 2,24,-1
 107 0 l 1,10,-1
EndSplineSet
EndChar

StartChar: E
Encoding: 69 69 40
Width: 881
GlyphClass: 2
Flags: HW
LayerCount: 2
Fore
SplineSet
107 0 m 1,0,-1
 107 1800 l 1,1,-1
 858 1800 l 1,2,-1
 858 1550 l 1,3,-1
 471 1550 l 1,4,-1
 471 1060 l 1,5,-1
 745 1060 l 1,6,-1
 745 804 l 1,7,-1
 471 804 l 1,8,-1
 471 250 l 1,9,-1
 858 250 l 1,10,-1
 858 0 l 1,11,-1
 107 0 l 1,0,-1
EndSplineSet
EndChar

StartChar: F
Encoding: 70 70 41
Width: 856
GlyphClass: 2
Flags: HW
LayerCount: 2
Fore
SplineSet
107 0 m 1,0,-1
 107 1800 l 1,1,-1
 858 1800 l 1,2,-1
 858 1550 l 1,3,-1
 471 1550 l 1,4,-1
 471 1060 l 1,5,-1
 745 1060 l 1,6,-1
 745 804 l 1,7,-1
 471 804 l 1,8,-1
 471 0 l 1,9,-1
 107 0 l 1,0,-1
EndSplineSet
EndChar

StartChar: G
Encoding: 71 71 42
Width: 1238
GlyphClass: 2
Flags: HW
LayerCount: 2
Fore
SplineSet
84 563 m 2,0,-1
 84 1197 l 2,1,2
 84 1835 84 1835 615 1835 c 0,3,4
 939 1835 939 1835 1058 1596 c 0,5,6
 1130 1452 1130 1452 1130 1235 c 2,7,-1
 1130 1129 l 1,8,-1
 782 1129 l 1,9,-1
 782 1255 l 2,10,11
 782 1419 782 1419 740 1488 c 0,12,13
 700 1554 700 1554 615 1554 c 0,14,15
 448 1554 448 1554 448 1288 c 2,16,-1
 448 511 l 2,17,18
 448 246 448 246 614.5 246 c 128,-1,19
 781 246 781 246 781 521 c 2,20,-1
 781 665 l 1,21,-1
 575 665 l 1,22,-1
 575 926 l 1,23,-1
 1145 926 l 1,24,-1
 1145 0 l 1,25,-1
 895 0 l 1,26,-1
 849 126 l 1,27,28
 803 54 803 54 718 9.5 c 128,-1,29
 633 -35 633 -35 539.5 -35 c 128,-1,30
 446 -35 446 -35 366.5 0.5 c 128,-1,31
 287 36 287 36 235.5 94.5 c 128,-1,32
 184 153 184 153 149 232 c 0,33,34
 84 379 84 379 84 563 c 2,0,-1
EndSplineSet
EndChar

StartChar: H
Encoding: 72 72 43
Width: 1205
GlyphClass: 2
Flags: HW
LayerCount: 2
Fore
SplineSet
107 0 m 1,0,-1
 107 1800 l 1,1,-1
 471 1800 l 1,2,-1
 471 1062 l 1,3,-1
 732 1062 l 1,4,-1
 732 1800 l 1,5,-1
 1098 1800 l 1,6,-1
 1098 0 l 1,7,-1
 732 0 l 1,8,-1
 732 803 l 1,9,-1
 471 803 l 1,10,-1
 471 0 l 1,11,-1
 107 0 l 1,0,-1
EndSplineSet
EndChar

StartChar: I
Encoding: 73 73 44
Width: 578
GlyphClass: 2
Flags: HW
LayerCount: 2
Fore
SplineSet
107 0 m 1,0,-1
 107 1800 l 1,1,-1
 471 1800 l 1,2,-1
 471 0 l 1,3,-1
 107 0 l 1,0,-1
EndSplineSet
EndChar

StartChar: J
Encoding: 74 74 45
Width: 691
GlyphClass: 2
Flags: HW
LayerCount: 2
Fore
SplineSet
0 -34 m 1,0,-1
 0 222 l 1,1,2
 6 222 6 222 12 222 c 0,3,4
 134 222 134 222 176 262 c 0,5,6
 220 304 220 304 220 435 c 2,7,-1
 220 1800 l 1,8,-1
 584 1800 l 1,9,-1
 584 432 l 2,10,11
 584 130 584 130 468 40 c 0,12,13
 373 -34 373 -34 179 -34 c 2,14,-1
 0 -34 l 1,0,-1
EndSplineSet
EndChar

StartChar: K
Encoding: 75 75 46
Width: 1149
GlyphClass: 2
Flags: HW
LayerCount: 2
Fore
SplineSet
107 0 m 1,0,-1
 107 1800 l 1,1,-1
 471 1800 l 1,2,-1
 471 1117 l 1,3,-1
 753 1800 l 1,4,-1
 1160 1800 l 1,5,-1
 793 1063 l 1,6,-1
 1187 0 l 1,7,-1
 809 0 l 1,8,-1
 537 823 l 1,9,-1
 471 653 l 1,10,-1
 471 0 l 1,11,-1
 107 0 l 1,0,-1
EndSplineSet
EndChar

StartChar: L
Encoding: 76 76 47
Width: 838
GlyphClass: 2
Flags: HW
LayerCount: 2
Fore
SplineSet
107 0 m 1,0,-1
 107 1800 l 1,1,-1
 471 1800 l 1,2,-1
 471 250 l 1,3,-1
 829 250 l 1,4,-1
 829 0 l 1,5,-1
 107 0 l 1,0,-1
EndSplineSet
EndChar

StartChar: M
Encoding: 77 77 48
Width: 1470
GlyphClass: 2
Flags: HW
LayerCount: 2
Fore
SplineSet
1087 1266 m 1,0,-1
 877 0 l 1,1,-1
 605 0 l 1,2,-1
 384 1274 l 1,3,-1
 376 0 l 1,4,-1
 107 0 l 1,5,-1
 107 1800 l 1,6,-1
 543 1800 l 1,7,-1
 735 600 l 1,8,-1
 942 1800 l 1,9,-1
 1363 1800 l 1,10,-1
 1363 0 l 1,11,-1
 1095 0 l 1,12,-1
 1087 1266 l 1,0,-1
EndSplineSet
EndChar

StartChar: N
Encoding: 78 78 49
Width: 1173
GlyphClass: 2
Flags: HW
LayerCount: 2
Fore
SplineSet
107 0 m 1,0,-1
 107 1801 l 1,1,-1
 369 1801 l 1,2,-1
 764 859 l 1,3,-1
 764 1801 l 1,4,-1
 1066 1801 l 1,5,-1
 1066 0 l 1,6,-1
 814 0 l 1,7,-1
 420 999 l 1,8,-1
 420 0 l 1,9,-1
 107 0 l 1,0,-1
EndSplineSet
EndChar

StartChar: O
Encoding: 79 79 50
Width: 1221
GlyphClass: 2
Flags: HW
LayerCount: 2
Fore
SplineSet
773 1288 m 2,0,1
 773 1554 773 1554 610.5 1554 c 128,-1,2
 448 1554 448 1554 448 1288 c 2,3,-1
 448 510 l 2,4,5
 448 245 448 245 610.5 245 c 128,-1,6
 773 245 773 245 773 510 c 2,7,-1
 773 1288 l 2,0,1
84 592 m 2,8,-1
 84 1197 l 2,9,10
 84 1835 84 1835 610.5 1835 c 128,-1,11
 1137 1835 1137 1835 1137 1197 c 2,12,-1
 1137 601 l 2,13,14
 1137 114 1137 114 818 -2 c 0,15,16
 727 -35 727 -35 610.5 -35 c 128,-1,17
 494 -35 494 -35 403 -2.5 c 128,-1,18
 312 30 312 30 253 85.5 c 0,19,20
 194 142 194 142 156 222 c 0,21,22
 84 372 84 372 84 592 c 2,8,-1
EndSplineSet
EndChar

StartChar: P
Encoding: 80 80 51
Width: 1022
GlyphClass: 2
Flags: HW
LayerCount: 2
Fore
SplineSet
107 0 m 1,0,-1
 107 1800 l 1,1,-1
 542 1800 l 2,2,3
 777 1800 777 1800 884 1669 c 128,-1,4
 991 1538 991 1538 991 1290 c 0,5,6
 991 942 991 942 794 836 c 0,7,8
 676 773 676 773 473 770 c 1,9,-1
 473 0 l 1,10,-1
 107 0 l 1,0,-1
474 1027 m 1,11,12
 565 1027 565 1027 595 1055 c 0,13,14
 608 1067 608 1067 616.5 1075.5 c 128,-1,15
 625 1084 625 1084 631 1105 c 128,-1,16
 637 1126 637 1126 640 1138.5 c 128,-1,17
 643 1151 643 1151 644.5 1180.5 c 128,-1,18
 646 1210 646 1210 646 1227 c 2,19,-1
 646 1297 l 2,20,21
 646 1421 646 1421 636 1445 c 128,-1,22
 626 1469 626 1469 613.5 1489 c 128,-1,23
 601 1509 601 1509 583 1518 c 0,24,25
 537 1541 537 1541 474 1541 c 1,26,-1
 474 1027 l 1,11,12
EndSplineSet
EndChar

StartChar: Q
Encoding: 81 81 52
Width: 1228
GlyphClass: 2
Flags: HW
LayerCount: 2
Fore
SplineSet
84 592 m 2,0,-1
 84 1197 l 2,1,2
 84 1555 84 1555 254 1714 c 0,3,4
 384 1835 384 1835 614 1835 c 0,5,6
 950 1835 950 1835 1072 1576 c 0,7,8
 1144 1424 1144 1424 1144 1197 c 2,9,-1
 1144 601 l 2,10,11
 1144 231 1144 231 931 52 c 1,12,13
 961 -13 961 -13 1107 -13 c 1,14,-1
 1107 -234 l 1,15,16
 835 -234 835 -234 707 -32 c 1,17,18
 664 -37 664 -37 608 -37 c 0,19,20
 218 -37 218 -37 115 339 c 0,21,22
 84 452 84 452 84 592 c 2,0,-1
780 1288 m 2,23,24
 780 1554 780 1554 614 1554 c 0,25,26
 514 1554 514 1554 478 1463 c 0,27,28
 448 1385 448 1385 448 1288 c 2,29,-1
 448 511 l 2,30,31
 448 246 448 246 614 246 c 128,-1,32
 780 246 780 246 780 511 c 2,33,-1
 780 1288 l 2,23,24
EndSplineSet
EndChar

StartChar: R
Encoding: 82 82 53
Width: 1122
GlyphClass: 2
Flags: HW
LayerCount: 2
Fore
SplineSet
107 0 m 1,0,-1
 107 1800 l 1,1,-1
 503 1800 l 2,2,3
 928 1800 928 1800 1037 1548 c 0,4,5
 1077 1456 1077 1456 1077 1326 c 0,6,7
 1077 1134 1077 1134 1015 1026 c 0,8,9
 957 925 957 925 832 870 c 1,10,11
 994 356 994 356 1114 0 c 1,12,-1
 737 0 l 1,13,-1
 531 829 l 1,14,-1
 471 829 l 1,15,-1
 471 0 l 1,16,-1
 107 0 l 1,0,-1
471 1051 m 1,17,-1
 575 1051 l 2,18,19
 617 1051 617 1051 647 1079 c 128,-1,20
 677 1107 677 1107 690.5 1150 c 128,-1,21
 704 1193 704 1193 709.5 1229 c 128,-1,22
 715 1265 715 1265 715 1297 c 128,-1,23
 715 1329 715 1329 710.5 1363 c 128,-1,24
 706 1397 706 1397 694.5 1438.5 c 128,-1,25
 683 1480 683 1480 656.5 1506.5 c 128,-1,26
 630 1533 630 1533 592 1533 c 2,27,-1
 471 1533 l 1,28,-1
 471 1051 l 1,17,-1
EndSplineSet
EndChar

StartChar: S
Encoding: 83 83 54
Width: 1053
GlyphClass: 2
Flags: HW
LayerCount: 2
Fore
SplineSet
636 1278 m 1,0,-1
 639 1351 l 1,1,2
 639 1558 639 1558 524 1558 c 0,3,4
 464 1558 464 1558 434 1511 c 128,-1,5
 404 1464 404 1464 404 1404 c 128,-1,6
 404 1344 404 1344 421.5 1295 c 128,-1,7
 439 1246 439 1246 474.5 1203.5 c 128,-1,8
 510 1161 510 1161 540 1133 c 128,-1,9
 570 1105 570 1105 620 1064.5 c 128,-1,10
 670 1024 670 1024 719 980.5 c 128,-1,11
 768 937 768 937 821 877.5 c 128,-1,12
 874 818 874 818 921 743 c 0,13,14
 1015 593 1015 593 1015 398.5 c 128,-1,15
 1015 204 1015 204 880 83.5 c 128,-1,16
 745 -37 745 -37 552 -37 c 0,17,18
 427 -37 427 -37 330 9 c 0,19,20
 234 55 234 55 174 134 c 0,21,22
 56 291 56 291 45 515 c 1,23,-1
 414 586 l 1,24,25
 414 394 414 394 450 316 c 0,26,27
 484 242 484 242 553 242 c 0,28,29
 661 242 661 242 661 380 c 0,30,31
 661 569 661 569 448 756 c 1,32,-1
 335 852 l 1,33,34
 164 996 164 996 106 1106 c 0,35,36
 46 1221 46 1221 46 1363 c 0,37,38
 46 1582 46 1582 185 1709.5 c 128,-1,39
 324 1837 324 1837 554 1837 c 0,40,41
 745 1837 745 1837 879 1701 c 128,-1,42
 1013 1565 1013 1565 1013 1373 c 1,43,-1
 1012 1360 l 1,44,-1
 1012 1330 l 1,45,-1
 636 1278 l 1,0,-1
EndSplineSet
EndChar

StartChar: T
Encoding: 84 84 55
Width: 915
GlyphClass: 2
Flags: HW
LayerCount: 2
Fore
SplineSet
278 0 m 1,0,-1
 278 1528 l 1,1,-1
 14 1528 l 1,2,-1
 14 1800 l 1,3,-1
 901 1800 l 1,4,-1
 901 1528 l 1,5,-1
 642 1528 l 1,6,-1
 642 0 l 1,7,-1
 278 0 l 1,0,-1
EndSplineSet
EndChar

StartChar: U
Encoding: 85 85 56
Width: 1248
GlyphClass: 2
Flags: HW
LayerCount: 2
Fore
SplineSet
99 669 m 2,0,-1
 99 1800 l 1,1,-1
 463 1800 l 1,2,-1
 463 680 l 2,3,4
 463 397 463 397 478 359.5 c 128,-1,5
 493 322 493 322 510.5 293 c 128,-1,6
 528 264 528 264 556 255 c 128,-1,7
 584 246 584 246 624 246 c 128,-1,8
 664 246 664 246 692 255 c 128,-1,9
 720 264 720 264 737.5 292.5 c 128,-1,10
 755 321 755 321 765 346 c 0,11,12
 775 370 775 370 779 432 c 0,13,14
 785 524 785 524 785 601 c 2,15,-1
 785 1800 l 1,16,-1
 1149 1800 l 1,17,-1
 1149 669 l 2,18,19
 1149 384 1149 384 1087 236 c 0,20,21
 1032 104 1032 104 928 39 c 0,22,23
 809 -35 809 -35 624 -35 c 0,24,25
 275 -34 275 -34 162 236 c 0,26,27
 99 386 99 386 99 669 c 2,0,-1
EndSplineSet
EndChar

StartChar: V
Encoding: 86 86 57
Width: 1044
GlyphClass: 2
Flags: HW
LayerCount: 2
Fore
SplineSet
343 0 m 1,0,-1
 12 1800 l 1,1,-1
 357 1800 l 1,2,-1
 516 709 l 1,3,-1
 692 1800 l 1,4,-1
 1032 1800 l 1,5,-1
 676 0 l 1,6,-1
 343 0 l 1,0,-1
EndSplineSet
EndChar

StartChar: W
Encoding: 87 87 58
Width: 1464
GlyphClass: 2
Flags: HW
LayerCount: 2
Fore
SplineSet
270 0 m 1,0,-1
 21 1800 l 1,1,-1
 331 1800 l 1,2,-1
 443 608 l 1,3,-1
 597 1800 l 1,4,-1
 864 1800 l 1,5,-1
 1015 615 l 1,6,-1
 1132 1800 l 1,7,-1
 1443 1800 l 1,8,-1
 1191 0 l 1,9,-1
 880 0 l 1,10,-1
 729 1178 l 1,11,-1
 581 0 l 1,12,-1
 270 0 l 1,0,-1
EndSplineSet
EndChar

StartChar: X
Encoding: 88 88 59
Width: 1077
GlyphClass: 2
Flags: HW
LayerCount: 2
Fore
SplineSet
23 0 m 1,0,-1
 314 931 l 1,1,-1
 21 1800 l 1,2,-1
 367 1800 l 1,3,-1
 536 1262 l 1,4,-1
 718 1800 l 1,5,-1
 1056 1800 l 1,6,-1
 765 937 l 1,7,-1
 1052 0 l 1,8,-1
 709 0 l 1,9,-1
 537 595 l 1,10,-1
 367 0 l 1,11,-1
 23 0 l 1,0,-1
EndSplineSet
EndChar

StartChar: Y
Encoding: 89 89 60
Width: 1027
GlyphClass: 2
Flags: HW
LayerCount: 2
Fore
SplineSet
510 1009 m 1,0,1
 586 1329 586 1329 695 1800 c 1,2,-1
 1028 1800 l 1,3,-1
 689 595 l 1,4,-1
 689 0 l 1,5,-1
 337 0 l 1,6,-1
 337 595 l 1,7,-1
 -1 1800 l 1,8,-1
 342 1800 l 1,9,-1
 510 1009 l 1,0,1
EndSplineSet
EndChar

StartChar: Z
Encoding: 90 90 61
Width: 998
GlyphClass: 2
Flags: HW
LayerCount: 2
Fore
SplineSet
80 0 m 1,0,-1
 80 228 l 1,1,-1
 555 1549 l 1,2,-1
 135 1549 l 1,3,-1
 135 1799 l 1,4,-1
 911 1799 l 1,5,-1
 911 1570 l 1,6,-1
 434 250 l 1,7,-1
 911 250 l 1,8,-1
 911 0 l 1,9,-1
 80 0 l 1,0,-1
EndSplineSet
EndChar

StartChar: bracketleft
Encoding: 91 91 62
Width: 779
GlyphClass: 2
Flags: HW
LayerCount: 2
Fore
SplineSet
156 -64 m 1,0,-1
 156 1907 l 1,1,-1
 703 1907 l 1,2,-1
 703 1749 l 1,3,-1
 444 1749 l 1,4,-1
 444 94 l 1,5,-1
 703 94 l 1,6,-1
 703 -64 l 1,7,-1
 156 -64 l 1,0,-1
EndSplineSet
EndChar

StartChar: backslash
Encoding: 92 92 63
Width: 629
GlyphClass: 2
Flags: HW
LayerCount: 2
Fore
SplineSet
265 0 m 1,0,-1
 68 1843 l 1,1,-1
 356 1843 l 1,2,-1
 554 0 l 1,3,-1
 265 0 l 1,0,-1
EndSplineSet
EndChar

StartChar: bracketright
Encoding: 93 93 64
Width: 728
GlyphClass: 2
Flags: HW
LayerCount: 2
Fore
SplineSet
76 -64 m 1,0,-1
 76 64 l 1,1,-1
 332 64 l 1,2,-1
 332 1728 l 1,3,-1
 76 1728 l 1,4,-1
 76 1856 l 1,5,-1
 588 1856 l 1,6,-1
 588 -64 l 1,7,-1
 76 -64 l 1,0,-1
EndSplineSet
EndChar

StartChar: asciicircum
Encoding: 94 94 65
Width: 962
GlyphClass: 2
Flags: HW
LayerCount: 2
Fore
SplineSet
65 907 m 1,0,-1
 336 1583 l 1,1,-1
 613 1583 l 1,2,-1
 884 907 l 1,3,-1
 594 907 l 1,4,-1
 474 1325 l 1,5,-1
 355 907 l 1,6,-1
 65 907 l 1,0,-1
EndSplineSet
EndChar

StartChar: underscore
Encoding: 95 95 66
Width: 829
GlyphClass: 2
Flags: HW
LayerCount: 2
Fore
SplineSet
6 0 m 1,0,-1
 6 223 l 1,1,-1
 812 223 l 1,2,-1
 812 0 l 1,3,-1
 6 0 l 1,0,-1
EndSplineSet
EndChar

StartChar: grave
Encoding: 96 96 67
Width: 640
GlyphClass: 2
Flags: HW
LayerCount: 2
Fore
SplineSet
353 1393 m 1,0,-1
 76 1835 l 1,1,-1
 422 1835 l 1,2,-1
 558 1393 l 1,3,-1
 353 1393 l 1,0,-1
EndSplineSet
EndChar

StartChar: a
Encoding: 97 97 68
Width: 976
GlyphClass: 2
Flags: HW
LayerCount: 2
Fore
SplineSet
620 0 m 1,0,-1
 587 135 l 1,1,2
 558 44 558 44 492 7.5 c 128,-1,3
 426 -29 426 -29 341 -29 c 128,-1,4
 256 -29 256 -29 202 -1 c 0,5,6
 148 26 148 26 118 74 c 0,7,8
 58 167 58 167 58 291 c 0,9,10
 58 488 58 488 168 605 c 0,11,12
 240 682 240 682 316 723 c 0,13,14
 425 781 425 781 551 833 c 1,15,-1
 551 943 l 2,16,17
 551 1012 551 1012 534 1046 c 128,-1,18
 517 1080 517 1080 482.5 1080 c 128,-1,19
 448 1080 448 1080 430.5 1068.5 c 128,-1,20
 413 1057 413 1057 406 1034 c 0,21,22
 395 998 395 998 395 943 c 2,23,-1
 395 869 l 1,24,-1
 68 869 l 1,25,26
 68 1094 68 1094 181 1214.5 c 128,-1,27
 294 1335 294 1335 509 1335 c 0,28,29
 659 1335 659 1335 772 1226 c 128,-1,30
 885 1117 885 1117 885 967 c 2,31,-1
 885 347 l 2,32,33
 885 186 885 186 928 0 c 1,34,-1
 620 0 l 1,0,-1
386 322 m 0,35,36
 386 225 386 225 454 225 c 0,37,38
 492 225 492 225 525 262 c 0,39,40
 534 272 534 272 552 295 c 1,41,-1
 552 616 l 1,42,43
 386 482 386 482 386 322 c 0,35,36
EndSplineSet
EndChar

StartChar: b
Encoding: 98 98 69
Width: 999
GlyphClass: 2
Flags: HW
LayerCount: 2
Fore
SplineSet
583 319 m 2,0,-1
 583 994 l 2,1,2
 583 1080 583 1080 527 1080 c 0,3,4
 510 1080 510 1080 488 1063 c 0,5,6
 464 1044 464 1044 432 1002 c 1,7,-1
 432 306 l 1,8,-1
 445 288 l 2,9,10
 447 286 447 286 453 278 c 128,-1,11
 459 270 459 270 462 266 c 0,12,13
 477 249 477 249 481.5 246 c 128,-1,14
 486 243 486 243 492 238 c 128,-1,15
 498 233 498 233 504 231 c 0,16,17
 528 225 528 225 536 225 c 0,18,19
 552 225 552 225 564 241 c 0,20,21
 582 263 582 263 583 319 c 2,0,-1
432 1217 m 1,22,23
 523 1335 523 1335 643.5 1335 c 128,-1,24
 764 1335 764 1335 842 1240 c 128,-1,25
 920 1145 920 1145 920 1021 c 2,26,-1
 920 250 l 2,27,28
 920 138 920 138 845 54.5 c 128,-1,29
 770 -29 770 -29 659 -29 c 0,30,31
 592 -29 592 -29 532 5 c 128,-1,32
 472 39 472 39 432 98 c 1,33,-1
 432 0 l 1,34,-1
 95 0 l 1,35,-1
 95 1800 l 1,36,-1
 432 1800 l 1,37,-1
 432 1217 l 1,22,23
EndSplineSet
EndChar

StartChar: c
Encoding: 99 99 70
Width: 928
GlyphClass: 2
Flags: HW
LayerCount: 2
Fore
SplineSet
78 334 m 2,0,-1
 78 894 l 2,1,2
 78 1102 78 1102 177 1218.5 c 128,-1,3
 276 1335 276 1335 479.5 1335 c 128,-1,4
 683 1335 683 1335 781.5 1219 c 128,-1,5
 880 1103 880 1103 880 894 c 2,6,-1
 880 780 l 1,7,-1
 549 780 l 1,8,-1
 549 929 l 2,9,10
 549 1007 549 1007 535.5 1043.5 c 128,-1,11
 522 1080 522 1080 479 1080 c 0,12,13
 415 1080 415 1080 415 981 c 2,14,-1
 415 335 l 2,15,16
 415 225 415 225 479 225 c 0,17,18
 526 225 526 225 538 269 c 0,19,20
 548 308 548 308 549 390 c 2,21,-1
 549 529 l 1,22,-1
 880 529 l 1,23,-1
 880 334 l 2,24,25
 880 226 880 226 824 141.5 c 128,-1,26
 768 57 768 57 677 14 c 128,-1,27
 586 -29 586 -29 479 -29 c 0,28,29
 314 -29 314 -29 196 71.5 c 128,-1,30
 78 172 78 172 78 334 c 2,0,-1
EndSplineSet
EndChar

StartChar: d
Encoding: 100 100 71
Width: 999
GlyphClass: 2
Flags: HW
LayerCount: 2
Fore
SplineSet
567 297 m 1,0,-1
 567 1005 l 1,1,2
 510 1080 510 1080 472 1080 c 0,3,4
 416 1080 416 1080 416 994 c 2,5,-1
 416 319 l 2,6,7
 416 225 416 225 472 225 c 0,8,9
 515 225 515 225 567 297 c 1,0,-1
157 1240 m 128,-1,11
 235 1335 235 1335 355.5 1335 c 128,-1,12
 476 1335 476 1335 567 1217 c 1,13,-1
 567 1800 l 1,14,-1
 904 1800 l 1,15,-1
 904 0 l 1,16,-1
 567 0 l 1,17,-1
 567 98 l 1,18,19
 527 39 527 39 467 5 c 128,-1,20
 407 -29 407 -29 340 -29 c 0,21,22
 229 -29 229 -29 154 54.5 c 128,-1,23
 79 138 79 138 79 250 c 2,24,-1
 79 1021 l 2,25,10
 79 1145 79 1145 157 1240 c 128,-1,11
EndSplineSet
EndChar

StartChar: e
Encoding: 101 101 72
Width: 940
GlyphClass: 2
Flags: HW
LayerCount: 2
Fore
SplineSet
78 339 m 2,0,-1
 78 894 l 2,1,2
 78 1102 78 1102 177 1218.5 c 128,-1,3
 276 1335 276 1335 479.5 1335 c 128,-1,4
 683 1335 683 1335 781.5 1219 c 128,-1,5
 880 1103 880 1103 880 894 c 2,6,-1
 880 624 l 1,7,-1
 415 624 l 1,8,-1
 415 335 l 2,9,10
 415 225 415 225 479 225 c 0,11,12
 549 225 549 225 549 343 c 2,13,-1
 549 486 l 1,14,-1
 880 486 l 1,15,-1
 880 339 l 2,16,17
 880 176 880 176 762 73.5 c 128,-1,18
 644 -29 644 -29 479 -29 c 128,-1,19
 314 -29 314 -29 196 74 c 128,-1,20
 78 177 78 177 78 339 c 2,0,-1
415 801 m 1,21,-1
 546 801 l 1,22,-1
 546 981 l 2,23,24
 546 1080 546 1080 480.5 1080 c 128,-1,25
 415 1080 415 1080 415 981 c 2,26,-1
 415 801 l 1,21,-1
EndSplineSet
EndChar

StartChar: f
Encoding: 102 102 73
Width: 647
GlyphClass: 2
Flags: HW
LayerCount: 2
Fore
SplineSet
141 0 m 1,0,-1
 141 1080 l 1,1,-1
 65 1080 l 1,2,-1
 65 1305 l 1,3,-1
 141 1305 l 1,4,-1
 141 1307 l 1,5,6
 144 1514 144 1514 192 1600 c 0,7,8
 241 1690 241 1690 322 1718 c 0,9,10
 370 1734 370 1734 422 1735 c 0,11,12
 524 1735 524 1735 612 1724 c 1,13,-1
 644 1721 l 1,14,-1
 644 1469 l 1,15,16
 574 1475 574 1475 544 1475 c 0,17,18
 478 1475 478 1475 478 1366 c 2,19,-1
 478 1305 l 1,20,-1
 641 1305 l 1,21,-1
 641 1080 l 1,22,-1
 478 1080 l 1,23,-1
 478 0 l 1,24,-1
 141 0 l 1,0,-1
EndSplineSet
EndChar

StartChar: g
Encoding: 103 103 74
Width: 965
GlyphClass: 2
Flags: HW
LayerCount: 2
Fore
SplineSet
459 378 m 0,0,1
 441 378 441 378 351 393 c 1,2,3
 328 348 328 348 328 339 c 0,4,5
 328 296 328 296 452 272 c 0,6,7
 507 262 507 262 573.5 251 c 128,-1,8
 640 240 640 240 707 222.5 c 128,-1,9
 774 205 774 205 829 180 c 128,-1,10
 884 155 884 155 918.5 110 c 128,-1,11
 953 65 953 65 953 -6.5 c 128,-1,12
 953 -78 953 -78 928.5 -140.5 c 128,-1,13
 904 -203 904 -203 863.5 -240.5 c 128,-1,14
 823 -278 823 -278 763 -301 c 0,15,16
 659 -341 659 -341 503 -341 c 0,17,18
 22 -341 22 -341 22 -106 c 0,19,20
 22 -37 22 -37 60 31.5 c 128,-1,21
 98 100 98 100 159 144 c 1,22,23
 42 204 42 204 42 248 c 0,24,25
 42 305 42 305 175 474 c 1,26,27
 73 660 73 660 73 848 c 0,28,29
 73 1045 73 1045 164 1183 c 0,30,31
 210 1253 210 1253 288.5 1294 c 128,-1,32
 367 1335 367 1335 470 1335 c 0,33,34
 624 1335 624 1335 702 1252 c 1,35,36
 775 1335 775 1335 947 1335 c 2,37,-1
 989 1335 l 1,38,-1
 961 1094 l 1,39,40
 862 1094 862 1094 818 1050 c 1,41,42
 860 975 860 975 860 854.5 c 128,-1,43
 860 734 860 734 833.5 654 c 128,-1,44
 807 574 807 574 757.5 512 c 128,-1,45
 708 450 708 450 630.5 414 c 128,-1,46
 553 378 553 378 459 378 c 0,0,1
462 632 m 0,47,48
 544 632 544 632 544 867 c 128,-1,49
 544 1102 544 1102 467 1102 c 0,50,51
 426 1102 426 1102 410 1062 c 0,52,53
 387 1007 387 1007 386 946.5 c 128,-1,54
 385 886 385 886 385 851 c 0,55,56
 385 632 385 632 462 632 c 0,47,48
631 -37 m 1,57,58
 631 70 631 70 358 79 c 1,59,-1
 334 79 l 1,60,61
 289 8 289 8 289 -46 c 0,62,63
 289 -105 289 -105 511 -105 c 0,64,65
 582 -105 582 -105 606 -86.5 c 128,-1,66
 630 -68 630 -68 631 -37 c 1,57,58
EndSplineSet
EndChar

StartChar: h
Encoding: 104 104 75
Width: 1005
GlyphClass: 2
Flags: HW
LayerCount: 2
Fore
SplineSet
431 1005 m 1,0,-1
 431 0 l 1,1,-1
 94 0 l 1,2,-1
 94 1800 l 1,3,-1
 431 1800 l 1,4,-1
 431 1212 l 1,5,6
 480 1267 480 1267 547.5 1301 c 128,-1,7
 615 1335 615 1335 685.5 1335 c 128,-1,8
 756 1335 756 1335 810 1291 c 0,9,10
 918 1204 918 1204 918 1051 c 2,11,-1
 918 0 l 1,12,-1
 581 0 l 1,13,-1
 581 963 l 2,14,15
 581 967 581 967 581.5 980.5 c 128,-1,16
 582 994 582 994 581.5 1002.5 c 128,-1,17
 581 1011 581 1011 580.5 1024.5 c 128,-1,18
 580 1038 580 1038 577 1046 c 128,-1,19
 574 1054 574 1054 569 1063 c 0,20,21
 560 1080 560 1080 527.5 1080 c 128,-1,22
 495 1080 495 1080 431 1005 c 1,0,-1
EndSplineSet
EndChar

StartChar: i
Encoding: 105 105 76
Width: 529
GlyphClass: 2
Flags: HW
LayerCount: 2
Fore
SplineSet
96 0 m 1,0,-1
 96 1305 l 1,1,-1
 433 1305 l 1,2,-1
 433 0 l 1,3,-1
 96 0 l 1,0,-1
96 1419 m 1,4,-1
 96 1734 l 1,5,-1
 433 1734 l 1,6,-1
 433 1419 l 1,7,-1
 96 1419 l 1,4,-1
EndSplineSet
EndChar

StartChar: j
Encoding: 106 106 77
Width: 572
GlyphClass: 2
Flags: HW
LayerCount: 2
Fore
SplineSet
-21 -284 m 1,0,-1
 -21 -40 l 1,1,2
 35 -56 35 -56 67 -56 c 0,3,4
 143 -56 143 -56 143 55 c 2,5,-1
 143 1305 l 1,6,-1
 478 1305 l 1,7,-1
 478 26 l 2,8,9
 478 -131 478 -131 395.5 -221 c 128,-1,10
 313 -311 313 -311 158 -311 c 0,11,12
 83 -311 83 -311 -21 -284 c 1,0,-1
143 1419 m 1,13,-1
 143 1734 l 1,14,-1
 478 1734 l 1,15,-1
 478 1419 l 1,16,-1
 143 1419 l 1,13,-1
EndSplineSet
EndChar

StartChar: k
Encoding: 107 107 78
Width: 981
GlyphClass: 2
Flags: HW
LayerCount: 2
Fore
SplineSet
99 0 m 1,0,-1
 99 1800 l 1,1,-1
 436 1800 l 1,2,-1
 436 852 l 1,3,-1
 642 1305 l 1,4,-1
 1003 1305 l 1,5,-1
 682 754 l 1,6,-1
 1002 0 l 1,7,-1
 653 0 l 1,8,-1
 481 582 l 1,9,-1
 436 506 l 1,10,-1
 436 0 l 1,11,-1
 99 0 l 1,0,-1
EndSplineSet
EndChar

StartChar: l
Encoding: 108 108 79
Width: 529
GlyphClass: 2
Flags: HW
LayerCount: 2
Fore
SplineSet
96 0 m 1,0,-1
 96 1800 l 1,1,-1
 433 1800 l 1,2,-1
 433 0 l 1,3,-1
 96 0 l 1,0,-1
EndSplineSet
EndChar

StartChar: m
Encoding: 109 109 80
Width: 1473
GlyphClass: 2
Flags: HW
LayerCount: 2
Fore
SplineSet
94 0 m 1,0,-1
 94 1305 l 1,1,-1
 431 1305 l 1,2,-1
 431 1212 l 1,3,4
 478 1267 478 1267 543 1301 c 128,-1,5
 608 1335 608 1335 675 1335 c 128,-1,6
 742 1335 742 1335 797 1293 c 128,-1,7
 852 1251 852 1251 880 1188 c 1,8,9
 929 1254 929 1254 1000.5 1294.5 c 128,-1,10
 1072 1335 1072 1335 1146.5 1335 c 128,-1,11
 1221 1335 1221 1335 1276 1291 c 0,12,13
 1386 1203 1386 1203 1386 1051 c 2,14,-1
 1386 0 l 1,15,-1
 1049 0 l 1,16,-1
 1049 984 l 2,17,18
 1049 1052 1049 1052 1033 1066 c 128,-1,19
 1017 1080 1017 1080 1000 1080 c 0,20,21
 964 1080 964 1080 908 1006 c 1,22,-1
 908 0 l 1,23,-1
 571 0 l 1,24,-1
 571 986 l 2,25,26
 571 1080 571 1080 525 1080 c 0,27,28
 487 1080 487 1080 430 1005 c 1,29,-1
 430 0 l 1,30,-1
 94 0 l 1,0,-1
EndSplineSet
EndChar

StartChar: n
Encoding: 110 110 81
Width: 1005
GlyphClass: 2
Flags: HW
LayerCount: 2
Fore
SplineSet
94 0 m 1,0,-1
 94 1305 l 1,1,-1
 431 1305 l 1,2,-1
 431 1213 l 1,3,4
 479 1268 479 1268 546.5 1301 c 128,-1,5
 614 1334 614 1334 685 1334 c 128,-1,6
 756 1334 756 1334 810 1290 c 0,7,8
 918 1204 918 1204 918 1052 c 2,9,-1
 918 0 l 1,10,-1
 581 0 l 1,11,-1
 581 993 l 2,12,13
 581 1080 581 1080 525 1080 c 0,14,15
 512 1080 512 1080 502.5 1075 c 128,-1,16
 493 1070 493 1070 488 1067.5 c 128,-1,17
 483 1065 483 1065 476 1059 c 0,18,19
 456 1042 456 1042 450 1034 c 0,20,21
 443 1025 443 1025 431 1012 c 1,22,-1
 431 0 l 1,23,-1
 94 0 l 1,0,-1
EndSplineSet
EndChar

StartChar: o
Encoding: 111 111 82
Width: 973
GlyphClass: 2
Flags: HW
LayerCount: 2
Fore
SplineSet
78 339 m 2,0,-1
 78 894 l 2,1,2
 78 1103 78 1103 176.5 1218.5 c 128,-1,3
 275 1334 275 1334 484 1334 c 128,-1,4
 693 1334 693 1334 794 1218.5 c 128,-1,5
 895 1103 895 1103 895 894 c 2,6,-1
 895 339 l 2,7,8
 895 176 895 176 774 73.5 c 128,-1,9
 653 -29 653 -29 484 -29 c 0,10,11
 375 -29 375 -29 283 15.5 c 128,-1,12
 191 60 191 60 134.5 145.5 c 128,-1,13
 78 231 78 231 78 339 c 2,0,-1
561 335 m 2,14,-1
 561 981 l 2,15,16
 561 1080 561 1080 484 1080 c 0,17,18
 415 1080 415 1080 415 981 c 2,19,-1
 415 335 l 2,20,21
 415 255 415 255 445 235 c 0,22,23
 460 225 460 225 484 225 c 0,24,25
 561 225 561 225 561 335 c 2,14,-1
EndSplineSet
EndChar

StartChar: p
Encoding: 112 112 83
Width: 999
GlyphClass: 2
Flags: HW
LayerCount: 2
Fore
SplineSet
583 319 m 2,0,-1
 583 994 l 2,1,2
 583 1080 583 1080 527 1080 c 0,3,4
 489 1080 489 1080 432 1005 c 1,5,-1
 432 297 l 1,6,7
 484 225 484 225 527 225 c 0,8,9
 550 225 550 225 564 241 c 0,10,11
 582 263 582 263 583 319 c 2,0,-1
432 1217 m 1,12,13
 523 1335 523 1335 643.5 1335 c 128,-1,14
 764 1335 764 1335 842 1240 c 128,-1,15
 920 1145 920 1145 920 1021 c 2,16,-1
 920 250 l 2,17,18
 920 138 920 138 845 54.5 c 128,-1,19
 770 -29 770 -29 659 -29 c 0,20,21
 592 -29 592 -29 532 5 c 128,-1,22
 472 39 472 39 432 98 c 1,23,-1
 432 -371 l 1,24,-1
 95 -371 l 1,25,-1
 95 1305 l 1,26,-1
 432 1305 l 1,27,-1
 432 1217 l 1,12,13
EndSplineSet
EndChar

StartChar: q
Encoding: 113 113 84
Width: 979
GlyphClass: 2
Flags: HW
LayerCount: 2
Fore
SplineSet
463 1080 m 1,0,1
 417 1080 417 1080 417 996 c 2,2,-1
 417 309 l 2,3,4
 417 225 417 225 463 225 c 0,5,6
 488 226 488 226 507 248 c 0,7,8
 530 275 530 275 548 301 c 1,9,-1
 548 1009 l 1,10,11
 489 1073 489 1073 463 1080 c 1,0,1
548 89 m 1,12,13
 461 -29 461 -29 346 -29 c 128,-1,14
 231 -29 231 -29 156.5 57 c 128,-1,15
 82 143 82 143 82 255 c 2,16,-1
 82 1056 l 2,17,18
 82 1168 82 1168 156.5 1251.5 c 128,-1,19
 231 1335 231 1335 341 1335 c 0,20,21
 402 1335 402 1335 456.5 1301 c 128,-1,22
 511 1267 511 1267 548 1208 c 1,23,-1
 548 1305 l 1,24,-1
 885 1305 l 1,25,-1
 885 -371 l 1,26,-1
 548 -371 l 1,27,-1
 548 89 l 1,12,13
EndSplineSet
EndChar

StartChar: r
Encoding: 114 114 85
Width: 714
GlyphClass: 2
Flags: HW
LayerCount: 2
Fore
SplineSet
569 1040 m 0,0,1
 429 1040 429 1040 429 876 c 2,2,-1
 429 0 l 1,3,-1
 94 0 l 1,4,-1
 94 1305 l 1,5,-1
 429 1305 l 1,6,-1
 429 1199 l 1,7,8
 506 1324 506 1324 609 1324 c 0,9,10
 638 1324 638 1324 700 1314 c 1,11,-1
 700 1030 l 1,12,13
 607 1040 607 1040 569 1040 c 0,0,1
EndSplineSet
EndChar

StartChar: s
Encoding: 115 115 86
Width: 867
GlyphClass: 2
Flags: HW
LayerCount: 2
Fore
SplineSet
38 315 m 1,0,-1
 296 407 l 1,1,2
 331 301 331 301 353 274 c 0,3,4
 397 218 397 218 441 218 c 0,5,6
 504 218 504 218 504 292 c 0,7,8
 504 366 504 366 418 450 c 0,9,10
 373 494 373 494 304 553 c 2,11,-1
 249 600 l 1,12,13
 142 693 142 693 81 783 c 128,-1,14
 20 873 20 873 20 970.5 c 128,-1,15
 20 1068 20 1068 55.5 1136.5 c 128,-1,16
 91 1205 91 1205 151 1247 c 0,17,18
 275 1334 275 1334 442 1334 c 0,19,20
 588 1334 588 1334 700 1220 c 0,21,22
 803 1115 803 1115 844 969 c 1,23,-1
 602 886 l 1,24,25
 558 996 558 996 532 1026 c 0,26,27
 481 1085 481 1085 439 1085 c 128,-1,28
 397 1085 397 1085 377.5 1060 c 128,-1,29
 358 1035 358 1035 358 997 c 0,30,31
 358 931 358 931 540 779 c 1,32,-1
 602 724 l 1,33,34
 774 570 774 570 818 445 c 0,35,36
 838 390 838 390 837 335 c 0,37,38
 837 177 837 177 725.5 74 c 128,-1,39
 614 -29 614 -29 458.5 -29 c 128,-1,40
 303 -29 303 -29 192 66 c 128,-1,41
 81 161 81 161 38 315 c 1,0,-1
EndSplineSet
EndChar

StartChar: t
Encoding: 116 116 87
Width: 668
GlyphClass: 2
Flags: HW
LayerCount: 2
Fore
SplineSet
117 448 m 2,0,-1
 117 1080 l 1,1,-1
 21 1080 l 1,2,-1
 21 1305 l 1,3,-1
 117 1305 l 1,4,-1
 117 1734 l 1,5,-1
 454 1734 l 1,6,-1
 454 1305 l 1,7,-1
 616 1305 l 1,8,-1
 616 1080 l 1,9,-1
 454 1080 l 1,10,-1
 454 367 l 2,11,12
 454 313 454 313 474 286.5 c 128,-1,13
 494 260 494 260 548.5 260 c 128,-1,14
 603 260 603 260 643 266 c 1,15,-1
 643 5 l 1,16,17
 577 -15 577 -15 474 -15 c 128,-1,18
 371 -15 371 -15 323.5 -1 c 128,-1,19
 276 13 276 13 243.5 36.5 c 128,-1,20
 211 60 211 60 187.5 96 c 128,-1,21
 164 132 164 132 150.5 169.5 c 0,22,23
 138 207 138 207 130 257 c 0,24,25
 118 340 118 340 117 448 c 2,0,-1
EndSplineSet
EndChar

StartChar: u
Encoding: 117 117 88
Width: 1006
GlyphClass: 2
Flags: HW
LayerCount: 2
Fore
SplineSet
87 253 m 2,0,-1
 87 1305 l 1,1,-1
 424 1305 l 1,2,-1
 424 335 l 2,3,4
 424 225 424 225 469.5 225 c 128,-1,5
 515 225 515 225 575 299 c 1,6,-1
 575 1305 l 1,7,-1
 912 1305 l 1,8,-1
 912 0 l 1,9,-1
 575 0 l 1,10,-1
 575 113 l 1,11,12
 524 51 524 51 456 11 c 128,-1,13
 388 -29 388 -29 318 -29 c 0,14,15
 215 -29 215 -29 151 58.5 c 128,-1,16
 87 146 87 146 87 253 c 2,0,-1
EndSplineSet
EndChar

StartChar: v
Encoding: 118 118 89
Width: 892
GlyphClass: 2
Flags: HW
LayerCount: 2
Fore
SplineSet
282 0 m 1,0,-1
 11 1305 l 1,1,-1
 327 1305 l 1,2,-1
 456 424 l 1,3,-1
 565 1305 l 1,4,-1
 881 1305 l 1,5,-1
 623 0 l 1,6,-1
 282 0 l 1,0,-1
EndSplineSet
EndChar

StartChar: w
Encoding: 119 119 90
Width: 1273
GlyphClass: 2
Flags: HW
LayerCount: 2
Fore
SplineSet
218 0 m 1,0,-1
 27 1305 l 1,1,-1
 308 1305 l 1,2,-1
 412 500 l 1,3,-1
 520 1305 l 1,4,-1
 774 1305 l 1,5,-1
 872 484 l 1,6,-1
 986 1305 l 1,7,-1
 1246 1305 l 1,8,-1
 1053 0 l 1,9,-1
 763 0 l 1,10,-1
 640 771 l 1,11,-1
 508 0 l 1,12,-1
 218 0 l 1,0,-1
EndSplineSet
EndChar

StartChar: x
Encoding: 120 120 91
Width: 922
GlyphClass: 2
Flags: HW
LayerCount: 2
Fore
SplineSet
461 896 m 1,0,-1
 556 1305 l 1,1,-1
 889 1305 l 1,2,-1
 650 688 l 1,3,-1
 888 0 l 1,4,-1
 556 0 l 1,5,-1
 460 410 l 1,6,-1
 366 0 l 1,7,-1
 34 0 l 1,8,-1
 274 688 l 1,9,-1
 33 1305 l 1,10,-1
 366 1305 l 1,11,-1
 461 896 l 1,0,-1
EndSplineSet
EndChar

StartChar: y
Encoding: 121 121 92
Width: 872
GlyphClass: 2
Flags: HW
LayerCount: 2
Fore
SplineSet
228.5 -30.5 m 128,-1,1
 270 15 270 15 270 131.5 c 128,-1,2
 270 248 270 248 217 498.5 c 128,-1,3
 164 749 164 749 94 1013 c 128,-1,4
 24 1277 24 1277 18 1305 c 1,5,-1
 325 1305 l 1,6,-1
 446 577 l 1,7,-1
 552 1305 l 1,8,-1
 861 1305 l 1,9,-1
 576 -35 l 1,10,11
 522 -275 522 -275 254 -305 c 0,12,13
 200 -311 200 -311 130 -311 c 2,14,-1
 87 -311 l 1,15,-1
 87 -78 l 1,16,0
 187 -76 187 -76 228.5 -30.5 c 128,-1,1
EndSplineSet
EndChar

StartChar: z
Encoding: 122 122 93
Width: 813
GlyphClass: 2
Flags: HW
LayerCount: 2
Fore
SplineSet
57 0 m 1,0,-1
 57 228 l 1,1,-1
 416 1062 l 1,2,-1
 113 1062 l 1,3,-1
 113 1305 l 1,4,-1
 764 1305 l 1,5,-1
 764 1082 l 1,6,-1
 402 244 l 1,7,-1
 764 244 l 1,8,-1
 764 0 l 1,9,-1
 57 0 l 1,0,-1
EndSplineSet
EndChar

StartChar: braceleft
Encoding: 123 123 94
Width: 762
GlyphClass: 2
Flags: HW
LayerCount: 2
Fore
SplineSet
682 158 m 1,0,-1
 682 -64 l 1,1,2
 452 -64 452 -64 338 39 c 0,3,4
 236 131 236 131 211 328 c 0,5,6
 200 414 200 414 200 480.5 c 128,-1,7
 200 547 200 547 200.5 577.5 c 128,-1,8
 201 608 201 608 201.5 623.5 c 128,-1,9
 202 639 202 639 200 664 c 128,-1,10
 198 689 198 689 193.5 702.5 c 128,-1,11
 189 716 189 716 179.5 733 c 128,-1,12
 170 750 170 750 156 758 c 0,13,14
 124 778 124 778 70 778 c 1,15,-1
 70 1065 l 1,16,17
 137 1065 137 1065 164 1116 c 0,18,19
 193 1170 193 1170 197 1220 c 128,-1,20
 201 1270 201 1270 201.5 1293 c 128,-1,21
 202 1316 202 1316 201 1353.5 c 128,-1,22
 200 1391 200 1391 200 1399 c 0,23,24
 200 1558 200 1558 223 1655 c 128,-1,25
 246 1752 246 1752 305.5 1809.5 c 128,-1,26
 365 1867 365 1867 452 1887 c 128,-1,27
 539 1907 539 1907 682 1907 c 1,28,-1
 682 1685 l 1,29,30
 582 1685 582 1685 530 1648 c 0,31,32
 495 1623 495 1623 489 1513 c 0,33,34
 487 1478 487 1478 487 1407.5 c 128,-1,35
 487 1337 487 1337 480 1276.5 c 0,36,37
 474 1216 474 1216 456 1147 c 0,38,39
 418 997 418 997 310 934 c 1,40,41
 412 875 412 875 448 764 c 0,42,43
 479 666 479 666 482.5 594.5 c 128,-1,44
 486 523 486 523 487.5 481 c 128,-1,45
 489 439 489 439 490.5 416.5 c 128,-1,46
 492 394 492 394 495 358 c 128,-1,47
 498 322 498 322 504 301.5 c 128,-1,48
 510 281 510 281 519 254.5 c 128,-1,49
 528 228 528 228 542 213.5 c 0,50,51
 556 198 556 198 575 184 c 0,52,53
 610 158 610 158 682 158 c 1,0,-1
EndSplineSet
EndChar

StartChar: bar
Encoding: 124 124 95
Width: 429
GlyphClass: 2
Flags: HW
LayerCount: 2
Fore
SplineSet
134 -130 m 1,0,-1
 134 1972 l 1,1,-1
 356 1972 l 1,2,-1
 356 -130 l 1,3,-1
 134 -130 l 1,0,-1
EndSplineSet
EndChar

StartChar: braceright
Encoding: 125 125 96
Width: 762
GlyphClass: 2
Flags: HW
LayerCount: 2
Fore
SplineSet
70 -64 m 1,0,-1
 70 158 l 1,1,2
 172 158 172 158 216 221 c 0,3,4
 251 271 251 271 257 347.5 c 128,-1,5
 263 424 263 424 264 465.5 c 128,-1,6
 265 507 265 507 266.5 541 c 128,-1,7
 268 575 268 575 272 614 c 128,-1,8
 276 653 276 653 287.5 703.5 c 128,-1,9
 299 754 299 754 317 790 c 0,10,11
 361 878 361 878 442 922 c 1,12,13
 336 989 336 989 298 1159 c 0,14,15
 266 1302 266 1302 265 1388 c 2,16,-1
 265 1491 l 2,17,18
 265 1603 265 1603 240 1632 c 0,19,20
 213 1663 213 1663 198.5 1667.5 c 128,-1,21
 184 1672 184 1672 165 1677 c 0,22,23
 135 1685 135 1685 70 1685 c 1,24,-1
 70 1907 l 1,25,26
 288 1908 288 1908 396 1854 c 128,-1,27
 504 1800 504 1800 537 1636 c 0,28,29
 553 1556 553 1556 553 1493.5 c 128,-1,30
 553 1431 553 1431 552 1389 c 0,31,32
 551 1361 551 1361 551 1340 c 0,33,34
 552 1330 552 1330 552 1321 c 0,35,36
 552 1295 552 1295 555 1251.5 c 128,-1,37
 558 1208 558 1208 566.5 1180 c 0,38,39
 574 1152 574 1152 588 1123 c 0,40,41
 615 1065 615 1065 682 1065 c 1,42,-1
 682 778 l 1,43,44
 600 778 600 778 574 733 c 0,45,46
 551 692 551 692 551 653 c 2,47,-1
 553 495 l 1,48,49
 553 413 553 413 542 327 c 128,-1,50
 531 241 531 241 499.5 163.5 c 128,-1,51
 468 86 468 86 415 38 c 0,52,53
 301 -64 301 -64 70 -64 c 1,0,-1
EndSplineSet
EndChar

StartChar: asciitilde
Encoding: 126 126 97
Width: 1028
GlyphClass: 2
Flags: HW
LayerCount: 2
Fore
SplineSet
139 842 m 1,0,1
 139 846 139 846 139 849 c 0,2,3
 140 1022 140 1022 240 1103 c 0,4,5
 294 1147 294 1147 356.5 1147 c 128,-1,6
 419 1147 419 1147 475.5 1125.5 c 128,-1,7
 532 1104 532 1104 581 1082 c 128,-1,8
 630 1060 630 1060 658 1060 c 0,9,10
 695 1060 695 1060 695 1129 c 1,11,-1
 876 1129 l 1,12,13
 876 1125 876 1125 876 1122 c 0,14,15
 876 948 876 948 776 866 c 0,16,17
 722 822 722 822 658.5 822 c 128,-1,18
 595 822 595 822 536 844 c 128,-1,19
 477 866 477 866 427.5 888 c 128,-1,20
 378 910 378 910 355 910 c 0,21,22
 321 910 321 910 321 842 c 1,23,-1
 139 842 l 1,0,1
EndSplineSet
EndChar

StartChar: exclamdown
Encoding: 161 161 99
Width: 524
GlyphClass: 2
Flags: HW
LayerCount: 2
Fore
SplineSet
334 842 m 1,0,-1
 438 -496 l 1,1,-1
 95 -496 l 1,2,-1
 218 842 l 1,3,-1
 334 842 l 1,0,-1
438 1305 m 1,4,-1
 438 987 l 1,5,-1
 115 987 l 1,6,-1
 115 1305 l 1,7,-1
 438 1305 l 1,4,-1
EndSplineSet
EndChar

StartChar: cent
Encoding: 162 162 100
Width: 965
GlyphClass: 2
Flags: HW
LayerCount: 2
Fore
SplineSet
559 421 m 1,0,-1
 557 526 l 1,1,-1
 889 526 l 1,2,-1
 889 399 l 2,3,4
 889 249 889 249 787.5 148.5 c 128,-1,5
 686 48 686 48 537 32 c 1,6,-1
 537 -263 l 1,7,-1
 447 -263 l 1,8,-1
 447 32 l 1,9,10
 295 45 295 45 191 146 c 128,-1,11
 87 247 87 247 87 399 c 2,12,-1
 87 844 l 2,13,14
 87 1041 87 1041 175.5 1155 c 128,-1,15
 264 1269 264 1269 447 1281 c 1,16,-1
 447 1568 l 1,17,-1
 537 1568 l 1,18,-1
 537 1281 l 1,19,20
 716 1267 716 1267 802.5 1153.5 c 128,-1,21
 889 1040 889 1040 889 844 c 2,22,-1
 889 788 l 1,23,-1
 557 788 l 1,24,-1
 558 862 l 2,25,26
 558 867 558 867 558 872 c 0,27,28
 558 940 558 940 546 976 c 0,29,30
 532 1014 532 1014 488 1013 c 0,31,32
 424 1013 424 1013 424 914 c 2,33,-1
 424 406 l 2,34,35
 424 296 424 296 488 296 c 0,36,37
 529 296 529 296 544 326 c 128,-1,38
 559 356 559 356 559 421 c 1,0,-1
EndSplineSet
EndChar

StartChar: sterling
Encoding: 163 163 101
Width: 1137
GlyphClass: 2
Flags: HW
LayerCount: 2
Fore
SplineSet
84 0 m 1,0,-1
 84 186 l 1,1,-1
 205 245 l 1,2,-1
 205 725 l 1,3,-1
 84 725 l 1,4,-1
 84 984 l 1,5,-1
 205 984 l 1,6,-1
 205 1206 l 2,7,8
 204 1445 204 1445 254 1577 c 0,9,10
 300 1702 300 1702 385 1762 c 0,11,12
 485 1834 485 1834 641 1834 c 0,13,14
 972 1834 972 1834 1024 1522 c 0,15,16
 1040 1427 1040 1427 1039 1305 c 1,17,-1
 712 1305 l 1,18,19
 712 1552 712 1552 641 1552 c 128,-1,20
 570 1552 570 1552 570 1204 c 2,21,-1
 570 984 l 1,22,-1
 815 984 l 1,23,-1
 815 725 l 1,24,-1
 570 725 l 1,25,-1
 570 284 l 1,26,-1
 1029 284 l 1,27,-1
 1029 0 l 1,28,-1
 84 0 l 1,0,-1
EndSplineSet
EndChar

StartChar: currency
Encoding: 164 164 102
Width: 1054
GlyphClass: 2
Flags: HW
LayerCount: 2
Fore
SplineSet
120 579 m 1,0,-1
 206 665 l 1,1,2
 143 762 143 762 143 896 c 128,-1,3
 143 1030 143 1030 206 1127 c 1,4,-1
 120 1213 l 1,5,-1
 210 1303 l 1,6,-1
 296 1217 l 1,7,8
 391 1280 391 1280 527 1280 c 128,-1,9
 663 1280 663 1280 758 1217 c 1,10,-1
 844 1303 l 1,11,-1
 934 1213 l 1,12,-1
 847 1126 l 1,13,14
 911 1029 911 1029 911 896.5 c 128,-1,15
 911 764 911 764 847 665 c 1,16,-1
 934 579 l 1,17,-1
 844 489 l 1,18,-1
 758 575 l 1,19,20
 663 512 663 512 527 512 c 128,-1,21
 391 512 391 512 296 575 c 1,22,-1
 210 489 l 1,23,-1
 120 579 l 1,0,-1
383.5 1048 m 128,-1,25
 335 986 335 986 335 897.5 c 128,-1,26
 335 809 335 809 387 745.5 c 128,-1,27
 439 682 439 682 530 682 c 128,-1,28
 621 682 621 682 670 745 c 128,-1,29
 719 808 719 808 719 896.5 c 128,-1,30
 719 985 719 985 670.5 1047.5 c 128,-1,31
 622 1110 622 1110 527 1110 c 128,-1,24
 432 1110 432 1110 383.5 1048 c 128,-1,25
EndSplineSet
EndChar

StartChar: yen
Encoding: 165 165 103
Width: 1095
GlyphClass: 2
Flags: HW
LayerCount: 2
Fore
SplineSet
397 0 m 1,0,-1
 397 259 l 1,1,-1
 202 259 l 1,2,-1
 202 458 l 1,3,-1
 397 458 l 1,4,-1
 397 560 l 1,5,-1
 202 560 l 1,6,-1
 202 756 l 1,7,-1
 348 756 l 1,8,9
 301 928 301 928 201.5 1291 c 128,-1,10
 102 1654 102 1654 51 1843 c 1,11,-1
 346 1843 l 1,12,-1
 540 942 l 1,13,-1
 733 1843 l 1,14,-1
 1027 1843 l 1,15,-1
 728 756 l 1,16,-1
 878 756 l 1,17,-1
 878 560 l 1,18,-1
 684 560 l 1,19,-1
 684 458 l 1,20,-1
 878 458 l 1,21,-1
 878 259 l 1,22,-1
 684 259 l 1,23,-1
 684 0 l 1,24,-1
 397 0 l 1,0,-1
EndSplineSet
EndChar

StartChar: brokenbar
Encoding: 166 166 104
Width: 441
GlyphClass: 2
Flags: HW
LayerCount: 2
Fore
SplineSet
98 -15 m 1,0,-1
 98 650 l 1,1,-1
 332 650 l 1,2,-1
 332 -15 l 1,3,-1
 98 -15 l 1,0,-1
98 900 m 1,4,-1
 98 1565 l 1,5,-1
 332 1565 l 1,6,-1
 332 900 l 1,7,-1
 98 900 l 1,4,-1
EndSplineSet
EndChar

StartChar: section
Encoding: 167 167 105
Width: 1028
GlyphClass: 2
Flags: HW
LayerCount: 2
Fore
SplineSet
592.5 254.5 m 128,-1,1
 623 285 623 285 623 336 c 128,-1,2
 623 387 623 387 605 427 c 128,-1,3
 587 467 587 467 557 496 c 128,-1,4
 527 525 527 525 488.5 550.5 c 128,-1,5
 450 576 450 576 407 599 c 128,-1,6
 364 622 364 622 320.5 645.5 c 128,-1,7
 277 669 277 669 238.5 698.5 c 128,-1,8
 200 728 200 728 170 762 c 0,9,10
 104 837 104 837 104 944 c 0,11,12
 104 1166 104 1166 278 1257 c 1,13,14
 104 1368 104 1368 104 1504 c 0,15,16
 104 1681 104 1681 222 1773 c 0,17,18
 335 1861 335 1861 502 1861 c 128,-1,19
 669 1861 669 1861 772.5 1760 c 128,-1,20
 876 1659 876 1659 914 1496 c 1,21,-1
 694 1423 l 1,22,23
 619 1619 619 1619 508 1619 c 0,24,25
 454 1619 454 1619 423.5 1588.5 c 128,-1,26
 393 1558 393 1558 393 1513.5 c 128,-1,27
 393 1469 393 1469 414 1440.5 c 128,-1,28
 435 1412 435 1412 458.5 1398 c 128,-1,29
 482 1384 482 1384 523 1363.5 c 128,-1,30
 564 1343 564 1343 606 1317.5 c 128,-1,31
 648 1292 648 1292 701 1251.5 c 0,32,33
 754 1212 754 1212 804 1158 c 0,34,35
 910 1046 910 1046 910 907 c 0,36,37
 910 712 910 712 761 617 c 1,38,39
 910 488 910 488 910 327 c 128,-1,40
 910 166 910 166 797.5 74 c 128,-1,41
 685 -18 685 -18 515.5 -18 c 128,-1,42
 346 -18 346 -18 244.5 82.5 c 128,-1,43
 143 183 143 183 101 348 c 1,44,-1
 322 421 l 1,45,46
 368 287 368 287 442 243 c 0,47,48
 474 224 474 224 518 224 c 128,-1,0
 562 224 562 224 592.5 254.5 c 128,-1,1
541 795 m 1,49,50
 623 839 623 839 623 898.5 c 128,-1,51
 623 958 623 958 517 1049 c 1,52,-1
 474 1084 l 1,53,54
 439 1062 439 1062 416 1026 c 128,-1,55
 393 990 393 990 393 956 c 128,-1,56
 393 922 393 922 410 896.5 c 128,-1,57
 427 871 427 871 444 858 c 128,-1,58
 461 845 461 845 496.5 823.5 c 128,-1,59
 532 802 532 802 541 795 c 1,49,50
EndSplineSet
EndChar

StartChar: dieresis
Encoding: 168 168 106
Width: 927
GlyphClass: 2
Flags: HW
LayerCount: 2
Fore
SplineSet
116 1492 m 1,0,-1
 116 1800 l 1,1,-1
 419 1800 l 1,2,-1
 419 1492 l 1,3,-1
 116 1492 l 1,0,-1
569 1492 m 1,4,-1
 569 1800 l 1,5,-1
 873 1800 l 1,6,-1
 873 1492 l 1,7,-1
 569 1492 l 1,4,-1
EndSplineSet
EndChar

StartChar: copyright
Encoding: 169 169 107
Width: 1619
GlyphClass: 2
Flags: HW
LayerCount: 2
Fore
SplineSet
803 398 m 0,0,1
 896 398 896 398 896 586 c 2,2,-1
 896 614 l 1,3,-1
 1106 614 l 1,4,5
 1106 435 1106 435 1032 327 c 128,-1,6
 958 219 958 219 803 219 c 0,7,8
 656 219 656 219 587 297 c 0,9,10
 539 351 539 351 524.5 402 c 128,-1,11
 510 453 510 453 504.5 483.5 c 128,-1,12
 499 514 499 514 496 560 c 0,13,14
 492 622 492 622 492 695.5 c 128,-1,15
 492 769 492 769 492.5 799 c 128,-1,16
 493 829 493 829 496 878 c 128,-1,17
 499 927 499 927 504.5 957 c 128,-1,18
 510 987 510 987 521 1027.5 c 128,-1,19
 532 1068 532 1068 547.5 1093 c 128,-1,20
 563 1118 563 1118 587.5 1145.5 c 128,-1,21
 612 1173 612 1173 643 1188 c 0,22,23
 715 1223 715 1223 804 1223 c 128,-1,24
 893 1223 893 1223 953 1193.5 c 128,-1,25
 1013 1164 1013 1164 1046 1110 c 0,26,27
 1108 1009 1108 1009 1108 851 c 1,28,-1
 894 851 l 1,29,30
 894 954 894 954 882 985 c 0,31,32
 856 1048 856 1048 812 1048 c 0,33,34
 745 1048 745 1048 716 980 c 128,-1,35
 687 912 687 912 687 750 c 128,-1,36
 687 588 687 588 701.5 513.5 c 128,-1,37
 716 439 716 439 739 418.5 c 128,-1,38
 762 398 762 398 803 398 c 0,0,1
533.5 242 m 128,-1,40
 653 163 653 163 781 163 c 128,-1,41
 909 163 909 163 1006 209.5 c 128,-1,42
 1103 256 1103 256 1169.5 333 c 128,-1,43
 1236 410 1236 410 1274.5 511 c 128,-1,44
 1313 612 1313 612 1313 719 c 128,-1,45
 1313 826 1313 826 1274.5 927 c 128,-1,46
 1236 1028 1236 1028 1169.5 1105 c 128,-1,47
 1103 1182 1103 1182 1006 1228.5 c 128,-1,48
 909 1275 909 1275 781 1275 c 128,-1,49
 653 1275 653 1275 533.5 1196 c 128,-1,50
 414 1117 414 1117 349 990.5 c 128,-1,51
 284 864 284 864 284 719 c 128,-1,52
 284 574 284 574 349 447.5 c 128,-1,39
 414 321 414 321 533.5 242 c 128,-1,40
799 -15 m 0,53,54
 651 -15 651 -15 517.5 44.5 c 128,-1,55
 384 104 384 104 289 204 c 128,-1,56
 194 304 194 304 138.5 439.5 c 128,-1,57
 83 575 83 575 83 722.5 c 128,-1,58
 83 870 83 870 138.5 1006 c 128,-1,59
 194 1142 194 1142 289 1242 c 128,-1,60
 384 1342 384 1342 517.5 1401.5 c 128,-1,61
 651 1461 651 1461 799 1461 c 0,62,63
 997 1461 997 1461 1162.5 1360 c 128,-1,64
 1328 1259 1328 1259 1422 1089.5 c 128,-1,65
 1516 920 1516 920 1516 723.5 c 128,-1,66
 1516 527 1516 527 1422 357.5 c 128,-1,67
 1328 188 1328 188 1162.5 86.5 c 128,-1,68
 997 -15 997 -15 799 -15 c 0,53,54
EndSplineSet
EndChar

StartChar: ordfeminine
Encoding: 170 170 108
Width: 906
GlyphClass: 2
Flags: HW
LayerCount: 2
Fore
SplineSet
554 0 m 1,0,-1
 554 85 l 1,1,2
 522 41 522 41 470.5 15 c 128,-1,3
 419 -11 419 -11 349 -11 c 128,-1,4
 279 -11 279 -11 217 51 c 128,-1,5
 155 113 155 113 155 184 c 128,-1,6
 155 255 155 255 180 302 c 128,-1,7
 205 349 205 349 232 377 c 0,8,9
 260 405 260 405 322 435 c 0,10,11
 418 481 418 481 536 515 c 1,12,-1
 536 601 l 2,13,14
 536 726 536 726 473 726 c 0,15,16
 396 726 396 726 396 574 c 1,17,-1
 188 574 l 1,18,19
 190 713 190 713 265.5 807 c 128,-1,20
 341 901 341 901 477 901 c 0,21,22
 636 902 636 902 702 802 c 0,23,24
 764 709 764 709 768 560 c 0,25,26
 770 498 770 498 770 443 c 0,27,28
 770 366 770 366 766 302 c 0,29,30
 762 234 762 234 762 178 c 0,31,32
 762 65 762 65 778 0 c 1,33,-1
 554 0 l 1,0,-1
380 244 m 0,34,35
 380 173 380 173 438 173 c 0,36,37
 468 173 468 173 495 192 c 128,-1,38
 522 211 522 211 536 239 c 1,39,-1
 536 403 l 1,40,41
 507 386 507 386 497.5 380.5 c 128,-1,42
 488 375 488 375 459.5 355.5 c 128,-1,43
 431 336 431 336 418 322 c 0,44,45
 380 281 380 281 380 244 c 0,34,35
EndSplineSet
EndChar

StartChar: guillemotleft
Encoding: 171 171 109
Width: 1054
GlyphClass: 2
Flags: HW
LayerCount: 2
Fore
SplineSet
527 64 m 1,0,-1
 79 576 l 1,1,-1
 79 704 l 1,2,-1
 527 1216 l 1,3,-1
 527 896 l 1,4,-1
 271 641 l 1,5,-1
 527 384 l 1,6,-1
 527 64 l 1,0,-1
975 64 m 1,7,-1
 527 576 l 1,8,-1
 527 704 l 1,9,-1
 975 1216 l 1,10,-1
 975 896 l 1,11,-1
 719 641 l 1,12,-1
 975 384 l 1,13,-1
 975 64 l 1,7,-1
EndSplineSet
EndChar

StartChar: logicalnot
Encoding: 172 172 110
Width: 829
GlyphClass: 2
Flags: HW
LayerCount: 2
Fore
SplineSet
136 453 m 1,0,-1
 136 676 l 1,1,-1
 683 676 l 1,2,-1
 683 259 l 1,3,-1
 525 259 l 1,4,-1
 525 453 l 1,5,-1
 136 453 l 1,0,-1
EndSplineSet
EndChar

StartChar: uni00AD
Encoding: 173 173 111
Width: 804
GlyphClass: 2
Flags: HW
LayerCount: 2
Fore
SplineSet
142 433 m 1,0,-1
 142 688 l 1,1,-1
 683 688 l 1,2,-1
 683 433 l 1,3,-1
 142 433 l 1,0,-1
EndSplineSet
EndChar

StartChar: registered
Encoding: 174 174 112
Width: 1619
GlyphClass: 2
Flags: HW
LayerCount: 2
Fore
SplineSet
1101 269 m 1,0,1
 1200 347 1200 347 1256.5 466.5 c 128,-1,2
 1313 586 1313 586 1313 706 c 128,-1,3
 1313 826 1313 826 1274.5 927 c 128,-1,4
 1236 1028 1236 1028 1169.5 1105 c 128,-1,5
 1103 1182 1103 1182 1006 1228.5 c 128,-1,6
 909 1275 909 1275 789 1275 c 128,-1,7
 669 1275 669 1275 556 1210 c 1,8,-1
 791 1210 l 2,9,10
 1078 1210 1078 1210 1078 918 c 0,11,12
 1078 758 1078 758 952 682 c 1,13,14
 969 593 969 593 1000 514.5 c 128,-1,15
 1031 436 1031 436 1060.5 366 c 128,-1,16
 1090 296 1090 296 1101 269 c 1,0,1
799 -15 m 0,17,18
 651 -15 651 -15 517.5 44.5 c 128,-1,19
 384 104 384 104 289 204 c 128,-1,20
 194 304 194 304 138.5 439.5 c 128,-1,21
 83 575 83 575 83 722.5 c 128,-1,22
 83 870 83 870 138.5 1006 c 128,-1,23
 194 1142 194 1142 289 1242 c 128,-1,24
 384 1342 384 1342 517.5 1401.5 c 128,-1,25
 651 1461 651 1461 799 1461 c 0,26,27
 997 1461 997 1461 1162.5 1360 c 128,-1,28
 1328 1259 1328 1259 1422 1089.5 c 128,-1,29
 1516 920 1516 920 1516 723.5 c 128,-1,30
 1516 527 1516 527 1422 357.5 c 128,-1,31
 1328 188 1328 188 1162.5 86.5 c 128,-1,32
 997 -15 997 -15 799 -15 c 0,17,18
534 251 m 1,33,-1
 534 1197 l 1,34,35
 419 1122 419 1122 351.5 993.5 c 128,-1,36
 284 865 284 865 284 719.5 c 128,-1,37
 284 574 284 574 349 447.5 c 128,-1,38
 414 321 414 321 533.5 242 c 128,-1,39
 653 163 653 163 803 163 c 128,-1,40
 953 163 953 163 1078 251 c 1,41,-1
 907 251 l 1,42,-1
 778 641 l 1,43,-1
 720 641 l 1,44,-1
 720 251 l 1,45,-1
 534 251 l 1,33,-1
720 766 m 1,46,47
 812 766 812 766 850 799.5 c 128,-1,48
 888 833 888 833 888 922 c 0,49,50
 888 1062 888 1062 777 1062 c 2,51,-1
 720 1062 l 1,52,-1
 720 766 l 1,46,47
EndSplineSet
EndChar

StartChar: macron
Encoding: 175 175 113
Width: 429
GlyphClass: 2
Flags: HW
LayerCount: 2
Fore
SplineSet
-36 1457 m 1,0,-1
 -36 1650 l 1,1,-1
 471 1650 l 1,2,-1
 471 1457 l 1,3,-1
 -36 1457 l 1,0,-1
EndSplineSet
EndChar

StartChar: degree
Encoding: 176 176 114
Width: 1095
GlyphClass: 2
Flags: HW
LayerCount: 2
Fore
SplineSet
835 1164.5 m 128,-1,1
 726 1055 726 1055 540.5 1055 c 128,-1,2
 355 1055 355 1055 246.5 1165 c 128,-1,3
 138 1275 138 1275 138 1459.5 c 128,-1,4
 138 1644 138 1644 247 1752.5 c 128,-1,5
 356 1861 356 1861 540.5 1861 c 128,-1,6
 725 1861 725 1861 834.5 1752 c 128,-1,7
 944 1643 944 1643 944 1458.5 c 128,-1,0
 944 1274 944 1274 835 1164.5 c 128,-1,1
408 1314 m 128,-1,9
 456 1255 456 1255 540.5 1255 c 128,-1,10
 625 1255 625 1255 672.5 1313.5 c 128,-1,11
 720 1372 720 1372 720 1458.5 c 128,-1,12
 720 1545 720 1545 673 1602.5 c 128,-1,13
 626 1660 626 1660 540.5 1660 c 128,-1,14
 455 1660 455 1660 407.5 1602.5 c 128,-1,15
 360 1545 360 1545 360 1459 c 128,-1,8
 360 1373 360 1373 408 1314 c 128,-1,9
EndSplineSet
EndChar

StartChar: plusminus
Encoding: 177 177 115
Width: 895
GlyphClass: 2
Flags: HW
LayerCount: 2
Fore
SplineSet
137 0 m 1,0,-1
 137 223 l 1,1,-1
 747 223 l 1,2,-1
 747 0 l 1,3,-1
 137 0 l 1,0,-1
330 389 m 1,4,-1
 330 583 l 1,5,-1
 137 583 l 1,6,-1
 137 806 l 1,7,-1
 330 806 l 1,8,-1
 330 1000 l 1,9,-1
 554 1000 l 1,10,-1
 554 806 l 1,11,-1
 747 806 l 1,12,-1
 747 583 l 1,13,-1
 554 583 l 1,14,-1
 554 389 l 1,15,-1
 330 389 l 1,4,-1
EndSplineSet
EndChar

StartChar: uni00B2
Encoding: 178 178 116
Width: 696
GlyphClass: 2
Flags: HW
LayerCount: 2
Fore
SplineSet
293 1263 m 2,0,-1
 293 1231 l 1,1,-1
 70 1231 l 1,2,3
 70 1363 70 1363 141 1440.5 c 128,-1,4
 212 1518 212 1518 342 1518 c 128,-1,5
 472 1518 472 1518 544.5 1445.5 c 128,-1,6
 617 1373 617 1373 617 1245 c 0,7,8
 617 1157 617 1157 530 1030 c 0,9,10
 463 932 463 932 392.5 846.5 c 128,-1,11
 322 761 322 761 307 742 c 1,12,-1
 617 742 l 1,13,-1
 617 583 l 1,14,-1
 70 583 l 1,15,-1
 70 731 l 1,16,17
 72 733 72 733 136.5 811.5 c 128,-1,18
 201 890 201 890 250.5 955 c 128,-1,19
 300 1020 300 1020 347 1106.5 c 128,-1,20
 394 1193 394 1193 394 1245 c 2,21,-1
 394 1275 l 2,22,23
 394 1360 394 1360 343.5 1360 c 128,-1,24
 293 1360 293 1360 293 1263 c 2,0,-1
EndSplineSet
EndChar

StartChar: uni00B3
Encoding: 179 179 117
Width: 829
GlyphClass: 2
Flags: HW
LayerCount: 2
Fore
SplineSet
358 1328 m 2,0,-1
 358 1296 l 1,1,-1
 136 1296 l 1,2,3
 136 1428 136 1428 206.5 1505.5 c 128,-1,4
 277 1583 277 1583 407.5 1583 c 128,-1,5
 538 1583 538 1583 610.5 1510.5 c 128,-1,6
 683 1438 683 1438 683 1303 c 128,-1,7
 683 1168 683 1168 551 1115 c 1,8,9
 683 1061 683 1061 683 927 c 128,-1,10
 683 793 683 793 610.5 720.5 c 128,-1,11
 538 648 538 648 407.5 648 c 128,-1,12
 277 648 277 648 206.5 725 c 128,-1,13
 136 802 136 802 136 935 c 1,14,-1
 358 935 l 1,15,-1
 358 902 l 2,16,17
 358 806 358 806 409 806 c 0,18,19
 446 806 446 806 454 846 c 0,20,21
 460 875 460 875 460 896 c 2,22,-1
 460 921 l 2,23,24
 460 990 460 990 431.5 1013.5 c 128,-1,25
 403 1037 403 1037 330 1037 c 1,26,-1
 330 1195 l 1,27,28
 404 1195 404 1195 432 1218.5 c 128,-1,29
 460 1242 460 1242 460 1310.5 c 128,-1,30
 460 1379 460 1379 448 1402.5 c 128,-1,31
 436 1426 436 1426 409 1426 c 0,32,33
 358 1426 358 1426 358 1328 c 2,0,-1
EndSplineSet
EndChar

StartChar: acute
Encoding: 180 180 118
Width: 638
GlyphClass: 2
Flags: HW
LayerCount: 2
Fore
SplineSet
113 1393 m 1,0,-1
 249 1835 l 1,1,-1
 594 1835 l 1,2,-1
 317 1393 l 1,3,-1
 113 1393 l 1,0,-1
EndSplineSet
EndChar

StartChar: paragraph
Encoding: 182 182 119
Width: 1020
GlyphClass: 2
Flags: HW
LayerCount: 2
Fore
SplineSet
394 0 m 1,0,-1
 394 887 l 1,1,2
 232 891 232 891 127.5 983 c 128,-1,3
 23 1075 23 1075 23 1233 c 0,4,5
 24 1500 24 1500 284 1564 c 0,6,7
 358 1582 358 1582 450 1583 c 2,8,-1
 943 1583 l 1,9,-1
 943 0 l 1,10,-1
 734 0 l 1,11,-1
 734 887 l 1,12,-1
 621 887 l 1,13,-1
 621 0 l 1,14,-1
 394 0 l 1,0,-1
EndSplineSet
EndChar

StartChar: periodcentered
Encoding: 183 183 120
Width: 520
GlyphClass: 2
Flags: HW
LayerCount: 2
Fore
SplineSet
99 679 m 1,0,-1
 99 994 l 1,1,-1
 422 994 l 1,2,-1
 422 679 l 1,3,-1
 99 679 l 1,0,-1
EndSplineSet
EndChar

StartChar: cedilla
Encoding: 184 184 121
Width: 585
GlyphClass: 2
Flags: HW
LayerCount: 2
Fore
SplineSet
190 -401 m 1,0,1
 354 -401 354 -401 353 -358 c 0,2,3
 353 -337 353 -337 340.5 -324.5 c 128,-1,4
 328 -312 328 -312 320 -304.5 c 128,-1,5
 312 -297 312 -297 298 -289.5 c 128,-1,6
 284 -282 284 -282 275 -277 c 128,-1,7
 266 -272 266 -272 249.5 -265.5 c 128,-1,8
 233 -259 233 -259 226.5 -256 c 128,-1,9
 220 -253 220 -253 205 -248 c 128,-1,10
 190 -243 190 -243 188 -242 c 1,11,-1
 188 0 l 1,12,-1
 359 0 l 1,13,-1
 359 -129 l 1,14,15
 580 -233 580 -233 580 -362 c 0,16,17
 580 -480 580 -480 446 -524 c 0,18,19
 334 -562 334 -562 132 -561 c 1,20,-1
 132 -400 l 1,21,-1
 190 -401 l 1,0,1
EndSplineSet
EndChar

StartChar: uni00B9
Encoding: 185 185 122
Width: 562
GlyphClass: 2
Flags: HW
LayerCount: 2
Fore
SplineSet
198 648 m 1,0,-1
 198 1231 l 1,1,-1
 69 1231 l 1,2,-1
 69 1384 l 1,3,4
 244 1472 244 1472 335 1583 c 1,5,-1
 421 1583 l 1,6,-1
 421 648 l 1,7,-1
 198 648 l 1,0,-1
EndSplineSet
EndChar

StartChar: ordmasculine
Encoding: 186 186 123
Width: 965
GlyphClass: 2
Flags: HW
LayerCount: 2
Fore
SplineSet
114 430 m 2,0,-1
 114 752 l 2,1,2
 114 1081 114 1081 304 1164 c 0,3,4
 378 1196 378 1196 479.5 1196 c 128,-1,5
 581 1196 581 1196 654 1161 c 0,6,7
 728 1126 728 1126 770 1064 c 0,8,9
 852 944 852 944 852 752 c 2,10,-1
 852 430 l 2,11,12
 852 236 852 236 770 116 c 0,13,14
 680 -15 680 -15 483 -15 c 0,15,16
 273 -15 273 -15 190 111 c 0,17,18
 114 226 114 226 114 430 c 2,0,-1
594 471 m 2,19,-1
 594 710 l 2,20,21
 594 717 594 717 594.5 743 c 128,-1,22
 595 769 595 769 594.5 781 c 128,-1,23
 594 793 594 793 593 817.5 c 128,-1,24
 592 842 592 842 588.5 855.5 c 128,-1,25
 585 869 585 869 580 889 c 128,-1,26
 575 909 575 909 566 920 c 0,27,28
 558 930 558 930 546 942 c 0,29,30
 524 964 524 964 486.5 964 c 128,-1,31
 449 964 449 964 427 954 c 128,-1,32
 405 944 405 944 392.5 922.5 c 128,-1,33
 380 901 380 901 372.5 882.5 c 128,-1,34
 365 864 365 864 362 830 c 0,35,36
 358 784 358 784 358 753 c 2,37,-1
 358 471 l 2,38,39
 358 358 358 358 368 316 c 0,40,41
 393 217 393 217 478 216 c 0,42,43
 524 216 524 216 540.5 232.5 c 128,-1,44
 557 249 557 249 566 260 c 128,-1,45
 575 271 575 271 580 291.5 c 128,-1,46
 585 312 585 312 588.5 325 c 128,-1,47
 592 338 592 338 593 363 c 128,-1,48
 594 388 594 388 594.5 400 c 128,-1,49
 595 412 595 412 594.5 438 c 128,-1,50
 594 464 594 464 594 471 c 2,19,-1
EndSplineSet
EndChar

StartChar: guillemotright
Encoding: 187 187 124
Width: 1054
GlyphClass: 2
Flags: HW
LayerCount: 2
Fore
SplineSet
527 64 m 1,0,-1
 527 384 l 1,1,-1
 783 641 l 1,2,-1
 527 896 l 1,3,-1
 527 1216 l 1,4,-1
 975 704 l 1,5,-1
 975 576 l 1,6,-1
 527 64 l 1,0,-1
79 64 m 1,7,-1
 79 384 l 1,8,-1
 335 641 l 1,9,-1
 79 896 l 1,10,-1
 79 1216 l 1,11,-1
 527 704 l 1,12,-1
 527 576 l 1,13,-1
 79 64 l 1,7,-1
EndSplineSet
EndChar

StartChar: onequarter
Encoding: 188 188 125
Width: 1695
GlyphClass: 2
Flags: HW
LayerCount: 2
Fore
SplineSet
198 648 m 1,0,-1
 198 1231 l 1,1,-1
 69 1231 l 1,2,-1
 69 1384 l 1,3,4
 244 1472 244 1472 335 1583 c 1,5,-1
 421 1583 l 1,6,-1
 421 648 l 1,7,-1
 198 648 l 1,0,-1
424 0 m 1,8,-1
 1001 1835 l 1,9,-1
 1181 1835 l 1,10,-1
 603 0 l 1,11,-1
 424 0 l 1,8,-1
936 244 m 1,12,-1
 936 392 l 1,13,-1
 1287 985 l 1,14,-1
 1482 985 l 1,15,-1
 1482 402 l 1,16,-1
 1612 402 l 1,17,-1
 1612 244 l 1,18,-1
 1482 244 l 1,19,-1
 1482 -15 l 1,20,-1
 1260 -15 l 1,21,-1
 1260 244 l 1,22,-1
 936 244 l 1,12,-1
1167 402 m 1,23,-1
 1260 402 l 1,24,-1
 1260 586 l 1,25,-1
 1167 402 l 1,23,-1
EndSplineSet
EndChar

StartChar: onehalf
Encoding: 189 189 126
Width: 1694
GlyphClass: 2
Flags: HW
LayerCount: 2
Fore
SplineSet
198 648 m 1,0,-1
 198 1231 l 1,1,-1
 69 1231 l 1,2,-1
 69 1384 l 1,3,4
 244 1472 244 1472 335 1583 c 1,5,-1
 421 1583 l 1,6,-1
 421 648 l 1,7,-1
 198 648 l 1,0,-1
424 0 m 1,8,-1
 1001 1835 l 1,9,-1
 1181 1835 l 1,10,-1
 603 0 l 1,11,-1
 424 0 l 1,8,-1
1291 665 m 2,12,-1
 1291 633 l 1,13,-1
 1068 633 l 1,14,15
 1068 765 1068 765 1139 842.5 c 128,-1,16
 1210 920 1210 920 1340 920 c 128,-1,17
 1470 920 1470 920 1542.5 847.5 c 128,-1,18
 1615 775 1615 775 1615 647 c 0,19,20
 1615 559 1615 559 1528 432 c 0,21,22
 1461 334 1461 334 1390.5 248.5 c 128,-1,23
 1320 163 1320 163 1305 144 c 1,24,-1
 1615 144 l 1,25,-1
 1615 -15 l 1,26,-1
 1068 -15 l 1,27,-1
 1068 133 l 1,28,29
 1070 135 1070 135 1134.5 213.5 c 128,-1,30
 1199 292 1199 292 1248.5 357 c 128,-1,31
 1298 422 1298 422 1345 508.5 c 128,-1,32
 1392 595 1392 595 1392 647 c 2,33,-1
 1392 677 l 2,34,35
 1392 762 1392 762 1341.5 762 c 128,-1,36
 1291 762 1291 762 1291 665 c 2,12,-1
EndSplineSet
EndChar

StartChar: threequarters
Encoding: 190 190 127
Width: 1895
GlyphClass: 2
Flags: HW
LayerCount: 2
Fore
SplineSet
358 1328 m 2,0,-1
 358 1296 l 1,1,-1
 136 1296 l 1,2,3
 136 1428 136 1428 206.5 1505.5 c 128,-1,4
 277 1583 277 1583 407.5 1583 c 128,-1,5
 538 1583 538 1583 610.5 1510.5 c 128,-1,6
 683 1438 683 1438 683 1303 c 128,-1,7
 683 1168 683 1168 551 1115 c 1,8,9
 683 1061 683 1061 683 927 c 128,-1,10
 683 793 683 793 610.5 720.5 c 128,-1,11
 538 648 538 648 407.5 648 c 128,-1,12
 277 648 277 648 206.5 725 c 128,-1,13
 136 802 136 802 136 935 c 1,14,-1
 358 935 l 1,15,-1
 358 902 l 2,16,17
 358 806 358 806 409 806 c 0,18,19
 446 806 446 806 454 846 c 0,20,21
 460 875 460 875 460 896 c 2,22,-1
 460 921 l 2,23,24
 460 990 460 990 431.5 1013.5 c 128,-1,25
 403 1037 403 1037 330 1037 c 1,26,-1
 330 1195 l 1,27,28
 404 1195 404 1195 432 1218.5 c 128,-1,29
 460 1242 460 1242 460 1310.5 c 128,-1,30
 460 1379 460 1379 448 1402.5 c 128,-1,31
 436 1426 436 1426 409 1426 c 0,32,33
 358 1426 358 1426 358 1328 c 2,0,-1
1069 244 m 1,34,-1
 1069 392 l 1,35,-1
 1420 985 l 1,36,-1
 1615 985 l 1,37,-1
 1615 402 l 1,38,-1
 1745 402 l 1,39,-1
 1745 244 l 1,40,-1
 1615 244 l 1,41,-1
 1615 -15 l 1,42,-1
 1393 -15 l 1,43,-1
 1393 244 l 1,44,-1
 1069 244 l 1,34,-1
1300 402 m 1,45,-1
 1393 402 l 1,46,-1
 1393 586 l 1,47,-1
 1300 402 l 1,45,-1
587 0 m 1,48,-1
 1164 1835 l 1,49,-1
 1344 1835 l 1,50,-1
 766 0 l 1,51,-1
 587 0 l 1,48,-1
EndSplineSet
EndChar

StartChar: AE
Encoding: 198 198 135
Width: 1609
GlyphClass: 2
Flags: HW
LayerCount: 2
Fore
SplineSet
44 0 m 1,0,-1
 817 1800 l 1,1,-1
 1578 1800 l 1,2,-1
 1578 1550 l 1,3,-1
 1191 1550 l 1,4,-1
 1191 1060 l 1,5,-1
 1465 1060 l 1,6,-1
 1465 804 l 1,7,-1
 1191 804 l 1,8,-1
 1191 250 l 1,9,-1
 1578 250 l 1,10,-1
 1578 0 l 1,11,-1
 854 0 l 1,12,-1
 854 385 l 1,13,-1
 570 385 l 1,14,-1
 428 0 l 1,15,-1
 44 0 l 1,0,-1
643 609 m 1,16,-1
 854 609 l 1,17,-1
 854 1183 l 1,18,-1
 643 609 l 1,16,-1
EndSplineSet
EndChar

StartChar: Eth
Encoding: 208 208 145
Width: 1156
GlyphClass: 2
Flags: HW
LayerCount: 2
Fore
SplineSet
97 0 m 1,0,-1
 97 829 l 1,1,-1
 5 829 l 1,2,-1
 5 1012 l 1,3,-1
 97 1012 l 1,4,-1
 97 1800 l 1,5,-1
 473 1800 l 2,6,7
 653 1800 653 1800 769.5 1767.5 c 128,-1,8
 886 1735 886 1735 952.5 1660.5 c 128,-1,9
 1019 1586 1019 1586 1044.5 1482 c 128,-1,10
 1070 1378 1070 1378 1070 1217 c 2,11,-1
 1070 627 l 2,12,13
 1070 326 1070 326 996 204 c 0,14,15
 930 94 930 94 814 50 c 0,16,17
 682 0 682 0 469 0 c 2,18,-1
 97 0 l 1,0,-1
461 255 m 1,19,-1
 476 255 l 2,20,21
 621 256 621 256 659 282 c 0,22,23
 694 307 694 307 700 346.5 c 128,-1,24
 706 386 706 386 706 427 c 2,25,-1
 706 1396 l 2,26,27
 706 1486 706 1486 652.5 1514.5 c 128,-1,28
 599 1543 599 1543 472 1544 c 1,29,-1
 461 1544 l 1,30,-1
 461 1012 l 1,31,-1
 585 1012 l 1,32,-1
 585 829 l 1,33,-1
 461 829 l 1,34,-1
 461 255 l 1,19,-1
EndSplineSet
EndChar

StartChar: multiply
Encoding: 215 215 152
Width: 829
GlyphClass: 2
Flags: HW
LayerCount: 2
Fore
SplineSet
65 468 m 1,0,-1
 259 662 l 1,1,-1
 65 856 l 1,2,-1
 215 1007 l 1,3,-1
 409 812 l 1,4,-1
 604 1007 l 1,5,-1
 753 856 l 1,6,-1
 559 662 l 1,7,8
 688 531 688 531 753 468 c 1,9,-1
 604 318 l 1,10,-1
 409 513 l 1,11,-1
 215 318 l 1,12,-1
 65 468 l 1,0,-1
EndSplineSet
EndChar

StartChar: Oslash
Encoding: 216 216 153
Width: 1221
GlyphClass: 2
Flags: HW
LayerCount: 2
Fore
SplineSet
258 -250 m 1,0,-1
 334 27 l 1,1,2
 84 166 84 166 84 592 c 2,3,-1
 84 1197 l 2,4,5
 84 1835 84 1835 610 1835 c 0,6,7
 729 1835 729 1835 822 1801 c 1,8,-1
 895 2067 l 1,9,-1
 992 2047 l 1,10,-1
 912 1757 l 1,11,12
 1137 1610 1137 1610 1137 1197 c 2,13,-1
 1137 601 l 2,14,15
 1137 114 1137 114 818 -2 c 0,16,17
 727 -35 727 -35 618 -35 c 128,-1,18
 509 -35 509 -35 425 -10 c 1,19,-1
 354 -270 l 1,20,-1
 258 -250 l 1,0,-1
610 1554 m 128,-1,22
 448 1554 448 1554 448 1288 c 2,23,-1
 448 501 l 2,24,25
 448 236 448 236 610.5 236 c 128,-1,26
 773 236 773 236 773 501 c 2,27,-1
 772 1288 l 2,28,21
 772 1554 772 1554 610 1554 c 128,-1,22
EndSplineSet
EndChar

StartChar: Thorn
Encoding: 222 222 159
Width: 1020
GlyphClass: 2
Flags: HW
LayerCount: 2
Fore
SplineSet
97 0 m 1,0,-1
 97 1800 l 1,1,-1
 480 1800 l 1,2,-1
 480 1564 l 1,3,-1
 532 1564 l 2,4,5
 767 1564 767 1564 874 1433 c 128,-1,6
 981 1302 981 1302 981 1054 c 0,7,8
 980 709 980 709 788 602 c 0,9,10
 673 538 673 538 475 534 c 1,11,-1
 475 0 l 1,12,-1
 97 0 l 1,0,-1
481 791 m 1,13,14
 562 792 562 792 602 830 c 0,15,16
 631 856 631 856 635 952 c 0,17,18
 636 982 636 982 636 1020 c 2,19,-1
 636 1061 l 2,20,21
 636 1174 636 1174 629.5 1195 c 128,-1,22
 623 1216 623 1216 616 1236 c 128,-1,23
 609 1256 609 1256 597.5 1266 c 128,-1,24
 586 1276 586 1276 570 1286 c 0,25,26
 542 1304 542 1304 481 1305 c 1,27,-1
 481 791 l 1,13,14
EndSplineSet
EndChar

StartChar: germandbls
Encoding: 223 223 160
Width: 1193
GlyphClass: 2
Flags: HW
LayerCount: 2
Fore
SplineSet
99 0 m 1,0,-1
 99 1358 l 2,1,2
 99 1607 99 1607 259 1740 c 0,3,4
 372 1834 372 1834 560 1834 c 0,5,6
 788 1834 788 1834 904.5 1707 c 128,-1,7
 1021 1580 1021 1580 1021 1349 c 0,8,9
 1021 1074 1021 1074 766 977 c 1,10,11
 977 919 977 919 1069 732 c 0,12,13
 1122 624 1122 624 1122 495 c 0,14,15
 1122 226 1122 226 976 95.5 c 128,-1,16
 830 -35 830 -35 528 -35 c 1,17,-1
 528 215 l 1,18,19
 676 214 676 214 723 294 c 0,20,21
 766 367 766 367 766 515 c 0,22,23
 766 813 766 813 529 815 c 1,24,-1
 529 1068 l 1,25,26
 573 1068 573 1068 606 1094.5 c 0,27,28
 639 1120 639 1120 656 1164 c 0,29,30
 689 1248 689 1248 689 1314.5 c 128,-1,31
 689 1381 689 1381 688 1404.5 c 128,-1,32
 687 1428 687 1428 684 1458 c 128,-1,33
 681 1488 681 1488 673.5 1508 c 128,-1,34
 666 1528 666 1528 654 1547 c 0,35,36
 631 1585 631 1585 592.5 1585 c 128,-1,37
 554 1585 554 1585 533.5 1576 c 128,-1,38
 513 1567 513 1567 500.5 1549 c 128,-1,39
 488 1531 488 1531 480.5 1512.5 c 128,-1,40
 473 1494 473 1494 470 1464 c 0,41,42
 465 1415 465 1415 465 1363 c 2,43,-1
 465 0 l 1,44,-1
 99 0 l 1,0,-1
EndSplineSet
EndChar

StartChar: ae
Encoding: 230 230 167
Width: 1427
GlyphClass: 2
Flags: HW
LayerCount: 2
Fore
SplineSet
397 950 m 1,0,-1
 400 869 l 1,1,-1
 73 869 l 1,2,3
 73 1087 73 1087 182 1211.5 c 128,-1,4
 291 1336 291 1336 486 1336 c 1,5,-1
 514 1335 l 2,6,7
 569 1333 569 1333 626 1304.5 c 128,-1,8
 683 1276 683 1276 718 1233 c 1,9,10
 763 1279 763 1279 833.5 1307 c 128,-1,11
 904 1335 904 1335 982 1335 c 128,-1,12
 1060 1335 1060 1335 1134.5 1303.5 c 128,-1,13
 1209 1272 1209 1272 1259 1223 c 0,14,15
 1368 1116 1368 1116 1368 998 c 0,16,17
 1368 923 1368 923 1332 863.5 c 128,-1,18
 1296 804 1296 804 1254 771.5 c 128,-1,19
 1212 739 1212 739 1135 712 c 128,-1,20
 1058 685 1058 685 1022.5 678 c 128,-1,21
 987 671 987 671 948 664 c 128,-1,22
 909 657 909 657 904 656.5 c 128,-1,23
 899 656 899 656 894 655 c 1,24,-1
 894 346 l 2,25,26
 894 236 894 236 958 236 c 0,27,28
 1028 236 1028 236 1028 384 c 1,29,-1
 1025 486 l 1,30,-1
 1359 486 l 1,31,-1
 1359 339 l 2,32,33
 1359 175 1359 175 1256 77.5 c 128,-1,34
 1153 -20 1153 -20 988 -29 c 1,35,36
 896 -29 896 -29 811 20.5 c 128,-1,37
 726 70 726 70 703 145 c 1,38,39
 659 65 659 65 569 18 c 128,-1,40
 479 -29 479 -29 391 -29 c 128,-1,41
 303 -29 303 -29 230 5 c 128,-1,42
 157 39 157 39 110 113.5 c 128,-1,43
 63 188 63 188 63 273.5 c 128,-1,44
 63 359 63 359 76.5 414 c 128,-1,45
 90 469 90 469 110.5 509.5 c 128,-1,46
 131 550 131 550 169 583.5 c 128,-1,47
 207 617 207 617 242.5 639 c 128,-1,48
 278 661 278 661 336 682 c 0,49,50
 425 715 425 715 556 746 c 1,51,-1
 556 881 l 2,52,53
 556 1070 556 1070 469 1070 c 0,54,55
 397 1070 397 1070 397 950 c 1,0,-1
581 421 m 1,56,-1
 575 586 l 1,57,58
 440 540 440 540 399 474 c 0,59,60
 366 422 366 422 366 363 c 128,-1,61
 366 304 366 304 390 264.5 c 128,-1,62
 414 225 414 225 467 225 c 128,-1,63
 520 225 520 225 550.5 282 c 128,-1,64
 581 339 581 339 581 421 c 1,56,-1
894 964 m 2,65,-1
 894 804 l 1,66,67
 902 806 902 806 915.5 809 c 128,-1,68
 929 812 929 812 963.5 825.5 c 128,-1,69
 998 839 998 839 1024 856 c 128,-1,70
 1050 873 1050 873 1071.5 903 c 128,-1,71
 1093 933 1093 933 1093 973.5 c 128,-1,72
 1093 1014 1093 1014 1064.5 1046 c 128,-1,73
 1036 1078 1036 1078 989 1078 c 128,-1,74
 942 1078 942 1078 918 1039.5 c 128,-1,75
 894 1001 894 1001 894 964 c 2,65,-1
EndSplineSet
EndChar

StartChar: eth
Encoding: 240 240 177
Width: 988
GlyphClass: 2
Flags: HW
LayerCount: 2
Fore
SplineSet
87 341 m 2,0,-1
 87 892 l 2,1,2
 87 1034 87 1034 175 1120 c 128,-1,3
 263 1206 263 1206 371 1206 c 128,-1,4
 479 1206 479 1206 553 1148 c 1,5,6
 553 1292 553 1292 541 1360 c 1,7,-1
 387 1282 l 1,8,-1
 321 1422 l 1,9,-1
 476 1501 l 1,10,11
 406 1570 406 1570 216 1570 c 1,12,-1
 264 1835 l 1,13,14
 615 1835 615 1835 765 1648 c 1,15,-1
 908 1721 l 1,16,-1
 974 1581 l 1,17,-1
 840 1513 l 1,18,19
 889 1380 889 1380 889 1188 c 2,20,-1
 889 341 l 2,21,22
 889 233 889 233 831.5 147 c 128,-1,23
 774 61 774 61 682 16 c 128,-1,24
 590 -29 590 -29 483 -29 c 0,25,26
 319 -29 319 -29 203 74.5 c 128,-1,27
 87 178 87 178 87 341 c 2,0,-1
552 340 m 2,28,-1
 552 874 l 2,29,30
 552 906 552 906 533 924 c 128,-1,31
 514 942 514 942 487 942 c 128,-1,32
 460 942 460 942 441 923 c 128,-1,33
 422 904 422 904 422 868 c 2,34,-1
 422 340 l 2,35,36
 422 266 422 266 450 246 c 0,37,38
 464 236 464 236 483 236 c 0,39,40
 552 236 552 236 552 340 c 2,28,-1
EndSplineSet
EndChar

StartChar: divide
Encoding: 247 247 184
Width: 696
GlyphClass: 2
Flags: HW
LayerCount: 2
Fore
SplineSet
6 583 m 1,0,-1
 6 806 l 1,1,-1
 682 806 l 1,2,-1
 682 583 l 1,3,-1
 6 583 l 1,0,-1
200 890 m 1,4,-1
 200 1177 l 1,5,-1
 487 1177 l 1,6,-1
 487 890 l 1,7,-1
 200 890 l 1,4,-1
200 236 m 1,8,-1
 200 523 l 1,9,-1
 487 523 l 1,10,-1
 487 236 l 1,11,-1
 200 236 l 1,8,-1
EndSplineSet
EndChar

StartChar: oslash
Encoding: 248 248 185
Width: 983
GlyphClass: 2
Flags: HW
LayerCount: 2
Fore
SplineSet
208 -233 m 1,0,-1
 281 21 l 1,1,2
 190 68 190 68 136.5 150.5 c 128,-1,3
 83 233 83 233 83 339 c 2,4,-1
 83 894 l 2,5,6
 83 1103 83 1103 181.5 1218.5 c 128,-1,7
 280 1334 280 1334 489 1334 c 0,8,9
 580 1334 580 1334 652 1311 c 1,10,-1
 725 1564 l 1,11,-1
 802 1544 l 1,12,-1
 725 1278 l 1,13,14
 900 1175 900 1175 900 894 c 2,15,-1
 900 339 l 2,16,17
 900 176 900 176 779 74 c 128,-1,18
 658 -28 658 -28 489 -28 c 0,19,20
 420 -28 420 -28 354 -8 c 1,21,-1
 284 -253 l 1,22,-1
 208 -233 l 1,0,-1
566 346 m 2,23,-1
 566 964 l 2,24,25
 566 1063 566 1063 489 1063 c 0,26,27
 420 1063 420 1063 420 964 c 2,28,-1
 420 346 l 2,29,30
 420 266 420 266 450 246 c 0,31,32
 465 236 465 236 489 236 c 0,33,34
 566 236 566 236 566 346 c 2,23,-1
EndSplineSet
EndChar

StartChar: thorn
Encoding: 254 254 191
Width: 988
GlyphClass: 2
Flags: HW
LayerCount: 2
Fore
SplineSet
521 216 m 0,0,1
 567 216 567 216 567 310 c 2,2,-1
 567 997 l 2,3,4
 567 1083 567 1083 521 1083 c 0,5,6
 506 1083 506 1083 495.5 1074.5 c 128,-1,7
 485 1066 485 1066 481 1063 c 128,-1,8
 477 1060 477 1060 471.5 1053.5 c 128,-1,9
 466 1047 466 1047 463 1043.5 c 128,-1,10
 460 1040 460 1040 455 1032.5 c 0,11,12
 450 1024 450 1024 448 1022 c 0,13,14
 436 1007 436 1007 436 1005 c 2,15,-1
 436 297 l 1,16,17
 488 216 488 216 521 216 c 0,0,1
436 1217 m 1,18,19
 523 1335 523 1335 638 1335 c 128,-1,20
 753 1335 753 1335 827.5 1249 c 128,-1,21
 902 1163 902 1163 902 1051 c 2,22,-1
 902 250 l 2,23,24
 902 138 902 138 827.5 54.5 c 128,-1,25
 753 -29 753 -29 643 -29 c 0,26,27
 582 -29 582 -29 527.5 5 c 128,-1,28
 473 39 473 39 436 98 c 1,29,-1
 436 -371 l 1,30,-1
 99 -371 l 1,31,-1
 99 1800 l 1,32,-1
 436 1800 l 1,33,-1
 436 1217 l 1,18,19
EndSplineSet
EndChar

StartChar: dcroat
Encoding: 273 273 208
Width: 999
GlyphClass: 2
Flags: HW
LayerCount: 2
Fore
SplineSet
157 1240 m 128,-1,1
 235 1335 235 1335 355.5 1335 c 128,-1,2
 476 1335 476 1335 567 1217 c 1,3,-1
 567 1504 l 1,4,-1
 284 1504 l 1,5,-1
 284 1637 l 1,6,-1
 567 1637 l 1,7,-1
 567 1800 l 1,8,-1
 904 1800 l 1,9,-1
 904 1637 l 1,10,-1
 999 1637 l 1,11,-1
 999 1504 l 1,12,-1
 904 1504 l 1,13,-1
 904 0 l 1,14,-1
 567 0 l 1,15,-1
 567 98 l 1,16,17
 527 39 527 39 467 5 c 128,-1,18
 407 -29 407 -29 340 -29 c 0,19,20
 229 -29 229 -29 154 54.5 c 128,-1,21
 79 138 79 138 79 250 c 2,22,-1
 79 1021 l 2,23,0
 79 1145 79 1145 157 1240 c 128,-1,1
567 297 m 1,24,-1
 567 1005 l 1,25,26
 510 1080 510 1080 472 1080 c 0,27,28
 416 1080 416 1080 416 994 c 2,29,-1
 416 319 l 2,30,31
 416 225 416 225 472 225 c 0,32,33
 515 225 515 225 567 297 c 1,24,-1
EndSplineSet
EndChar

StartChar: gcommaaccent
Encoding: 291 291 222
Width: 965
GlyphClass: 2
Flags: HW
LayerCount: 2
Fore
SplineSet
459 378 m 0,0,1
 441 378 441 378 351 393 c 1,2,3
 328 348 328 348 328 339 c 0,4,5
 328 296 328 296 452 272 c 0,6,7
 507 262 507 262 573.5 251 c 128,-1,8
 640 240 640 240 707 222.5 c 128,-1,9
 774 205 774 205 829 180 c 128,-1,10
 884 155 884 155 918.5 110 c 128,-1,11
 953 65 953 65 953 -6.5 c 128,-1,12
 953 -78 953 -78 928.5 -140.5 c 128,-1,13
 904 -203 904 -203 863.5 -240.5 c 128,-1,14
 823 -278 823 -278 763 -301 c 0,15,16
 659 -341 659 -341 503 -341 c 0,17,18
 22 -341 22 -341 22 -106 c 0,19,20
 22 -37 22 -37 60 31.5 c 128,-1,21
 98 100 98 100 159 144 c 1,22,23
 42 204 42 204 42 248 c 0,24,25
 42 305 42 305 175 474 c 1,26,27
 73 660 73 660 73 848 c 0,28,29
 73 1045 73 1045 164 1183 c 0,30,31
 210 1253 210 1253 288.5 1294 c 128,-1,32
 367 1335 367 1335 470 1335 c 0,33,34
 624 1335 624 1335 702 1252 c 1,35,36
 775 1335 775 1335 947 1335 c 2,37,-1
 989 1335 l 1,38,-1
 961 1094 l 1,39,40
 862 1094 862 1094 818 1050 c 1,41,42
 860 975 860 975 860 854.5 c 128,-1,43
 860 734 860 734 833.5 654 c 128,-1,44
 807 574 807 574 757.5 512 c 128,-1,45
 708 450 708 450 630.5 414 c 128,-1,46
 553 378 553 378 459 378 c 0,0,1
462 632 m 0,47,48
 544 632 544 632 544 867 c 128,-1,49
 544 1102 544 1102 467 1102 c 0,50,51
 426 1102 426 1102 410 1062 c 0,52,53
 387 1007 387 1007 386 946.5 c 128,-1,54
 385 886 385 886 385 851 c 0,55,56
 385 632 385 632 462 632 c 0,47,48
631 -37 m 1,57,58
 631 70 631 70 358 79 c 1,59,-1
 334 79 l 1,60,61
 289 8 289 8 289 -46 c 0,62,63
 289 -105 289 -105 511 -105 c 0,64,65
 582 -105 582 -105 606 -86.5 c 128,-1,66
 630 -68 630 -68 631 -37 c 1,57,58
574 1980 m 1,67,-1
 614 1814 l 1,68,-1
 599 1814 l 2,69,70
 573 1814 573 1814 563.5 1813.5 c 0,71,72
 554 1812 554 1812 545 1804 c 0,73,74
 533 1793 533 1793 533 1737 c 1,75,-1
 643 1737 l 1,76,-1
 643 1419 l 1,77,-1
 320 1419 l 1,78,79
 317 1487 317 1487 317 1547 c 0,80,81
 317 1732 317 1732 343 1830 c 0,82,83
 382 1980 382 1980 574 1980 c 1,67,-1
EndSplineSet
EndChar

StartChar: Hcircumflex
Encoding: 292 292 223
Width: 1257
GlyphClass: 2
Flags: HW
LayerCount: 2
Fore
SplineSet
281 1859 m 1,0,-1
 485 2300 l 1,1,-1
 774 2300 l 1,2,-1
 980 1859 l 1,3,-1
 702 1859 l 1,4,-1
 629 2030 l 1,5,-1
 556 1859 l 1,6,-1
 281 1859 l 1,0,-1
165 0 m 1,7,-1
 165 1797 l 1,8,-1
 489 1797 l 1,9,-1
 489 1056 l 1,10,-1
 769 1056 l 1,11,-1
 769 1797 l 1,12,-1
 1094 1797 l 1,13,-1
 1094 0 l 1,14,-1
 769 0 l 1,15,-1
 769 801 l 1,16,-1
 489 801 l 1,17,-1
 489 0 l 1,18,-1
 165 0 l 1,7,-1
EndSplineSet
EndChar

StartChar: Hbar
Encoding: 294 294 225
Width: 1185
GlyphClass: 2
Flags: HW
LayerCount: 2
Fore
SplineSet
97 0 m 1,0,-1
 97 1335 l 1,1,-1
 -4 1335 l 1,2,-1
 -4 1450 l 1,3,-1
 97 1450 l 1,4,-1
 97 1800 l 1,5,-1
 461 1800 l 1,6,-1
 461 1450 l 1,7,-1
 722 1450 l 1,8,-1
 722 1800 l 1,9,-1
 1088 1800 l 1,10,-1
 1088 1450 l 1,11,-1
 1188 1450 l 1,12,-1
 1188 1335 l 1,13,-1
 1088 1335 l 1,14,-1
 1088 0 l 1,15,-1
 722 0 l 1,16,-1
 722 803 l 1,17,-1
 461 803 l 1,18,-1
 461 0 l 1,19,-1
 97 0 l 1,0,-1
461 1062 m 1,20,-1
 722 1062 l 1,21,-1
 722 1335 l 1,22,-1
 461 1335 l 1,23,-1
 461 1062 l 1,20,-1
EndSplineSet
EndChar

StartChar: hbar
Encoding: 295 295 226
Width: 983
GlyphClass: 2
Flags: HW
LayerCount: 2
Fore
SplineSet
436 1005 m 1,0,-1
 436 0 l 1,1,-1
 99 0 l 1,2,-1
 99 1460 l 1,3,-1
 0 1460 l 1,4,-1
 0 1643 l 1,5,-1
 99 1643 l 1,6,-1
 99 1800 l 1,7,-1
 436 1800 l 1,8,-1
 436 1643 l 1,9,-1
 718 1643 l 1,10,-1
 718 1460 l 1,11,-1
 436 1460 l 1,12,-1
 436 1212 l 1,13,14
 485 1267 485 1267 552.5 1301 c 128,-1,15
 620 1335 620 1335 690.5 1335 c 0,16,17
 762 1335 762 1335 816 1291 c 0,18,19
 924 1204 924 1204 923 1051 c 2,20,-1
 923 0 l 1,21,-1
 586 0 l 1,22,-1
 586 963 l 2,23,24
 586 967 586 967 586.5 980.5 c 128,-1,25
 587 994 587 994 586.5 1002.5 c 128,-1,26
 586 1011 586 1011 585.5 1024.5 c 128,-1,27
 585 1038 585 1038 582 1046 c 128,-1,28
 579 1054 579 1054 574 1063 c 0,29,30
 565 1080 565 1080 532.5 1080 c 128,-1,31
 500 1080 500 1080 436 1005 c 1,0,-1
EndSplineSet
EndChar

StartChar: dotlessi
Encoding: 305 305 236
Width: 532
GlyphClass: 2
Flags: HW
LayerCount: 2
Fore
SplineSet
124 0 m 1,0,-1
 124 1305 l 1,1,-1
 461 1305 l 1,2,-1
 461 0 l 1,3,-1
 124 0 l 1,0,-1
EndSplineSet
EndChar

StartChar: kgreenlandic
Encoding: 312 312 243
Width: 1011
GlyphClass: 2
Flags: HW
LayerCount: 2
Fore
SplineSet
99 0 m 1,0,-1
 99 1305 l 1,1,-1
 436 1305 l 1,2,-1
 436 882 l 1,3,-1
 642 1305 l 1,4,-1
 973 1305 l 1,5,-1
 702 744 l 1,6,-1
 972 0 l 1,7,-1
 633 0 l 1,8,-1
 471 502 l 1,9,-1
 436 443 l 1,10,-1
 436 0 l 1,11,-1
 99 0 l 1,0,-1
EndSplineSet
EndChar

StartChar: Lslash
Encoding: 321 321 249
Width: 855
GlyphClass: 2
Flags: HW
LayerCount: 2
Fore
SplineSet
97 0 m 1,0,-1
 97 887 l 1,1,-1
 15 856 l 1,2,-1
 15 1039 l 1,3,-1
 97 1070 l 1,4,-1
 97 1800 l 1,5,-1
 461 1800 l 1,6,-1
 461 1207 l 1,7,-1
 718 1305 l 1,8,-1
 718 1122 l 1,9,-1
 461 1024 l 1,10,-1
 461 250 l 1,11,-1
 819 250 l 1,12,-1
 819 0 l 1,13,-1
 97 0 l 1,0,-1
EndSplineSet
EndChar

StartChar: lslash
Encoding: 322 322 250
Width: 629
GlyphClass: 2
Flags: HW
LayerCount: 2
Fore
SplineSet
163 0 m 1,0,-1
 163 924 l 1,1,-1
 -18 856 l 1,2,-1
 -18 1039 l 1,3,-1
 163 1107 l 1,4,-1
 163 1800 l 1,5,-1
 500 1800 l 1,6,-1
 500 1235 l 1,7,-1
 686 1305 l 1,8,-1
 686 1122 l 1,9,-1
 500 1052 l 1,10,-1
 500 0 l 1,11,-1
 163 0 l 1,0,-1
EndSplineSet
EndChar

StartChar: OE
Encoding: 338 338 263
Width: 1555
GlyphClass: 2
Flags: HW
LayerCount: 2
Fore
SplineSet
84 609 m 2,0,-1
 84 1180 l 2,1,2
 84 1523 84 1523 251 1679 c 0,3,4
 380 1799 380 1799 610 1799 c 2,5,-1
 1524 1799 l 1,6,-1
 1524 1550 l 1,7,-1
 1137 1550 l 1,8,-1
 1137 1060 l 1,9,-1
 1411 1060 l 1,10,-1
 1411 804 l 1,11,-1
 1137 804 l 1,12,-1
 1137 250 l 1,13,-1
 1524 250 l 1,14,-1
 1524 0 l 1,15,-1
 610 0 l 2,16,17
 84 0 84 0 84 609 c 2,0,-1
610 1537 m 2,18,19
 448 1537 448 1537 448 1271 c 2,20,-1
 448 518 l 2,21,22
 448 253 448 253 610 253 c 2,23,-1
 773 253 l 1,24,-1
 773 1537 l 1,25,-1
 610 1537 l 2,18,19
EndSplineSet
EndChar

StartChar: oe
Encoding: 339 339 264
Width: 1436
GlyphClass: 2
Flags: HW
LayerCount: 2
Fore
SplineSet
1037 384 m 1,0,-1
 1034 486 l 1,1,-1
 1368 486 l 1,2,-1
 1368 339 l 2,3,4
 1368 176 1368 176 1253 73 c 128,-1,5
 1138 -30 1138 -30 990.5 -30 c 128,-1,6
 843 -30 843 -30 731 57 c 1,7,8
 612 -30 612 -30 460.5 -30 c 128,-1,9
 309 -30 309 -30 196 73 c 128,-1,10
 83 176 83 176 83 339 c 2,11,-1
 83 894 l 2,12,13
 83 1103 83 1103 181.5 1218.5 c 128,-1,14
 280 1334 280 1334 489 1334 c 0,15,16
 633 1334 633 1334 731 1255 c 1,17,18
 835 1334 835 1334 987 1334 c 0,19,20
 1181 1334 1181 1334 1274.5 1218.5 c 128,-1,21
 1368 1103 1368 1103 1368 894 c 2,22,-1
 1368 624 l 1,23,-1
 903 624 l 1,24,-1
 903 346 l 2,25,26
 903 236 903 236 967 236 c 0,27,28
 1037 236 1037 236 1037 384 c 1,0,-1
566 339 m 1,29,-1
 566 964 l 2,30,31
 566 1063 566 1063 489 1063 c 0,32,33
 420 1063 420 1063 420 964 c 2,34,-1
 420 346 l 2,35,36
 420 266 420 266 450 246 c 0,37,38
 465 236 465 236 489 236 c 0,39,40
 564 236 564 236 566 339 c 1,29,-1
903 801 m 1,41,-1
 1034 801 l 1,42,-1
 1034 964 l 2,43,44
 1034 1063 1034 1063 968.5 1063 c 128,-1,45
 903 1063 903 1063 903 964 c 2,46,-1
 903 801 l 1,41,-1
EndSplineSet
EndChar

StartChar: uni0237
Encoding: 567 567 342
Width: 641
GlyphClass: 2
Flags: HW
LayerCount: 2
Fore
SplineSet
48 -284 m 1,0,-1
 48 -40 l 1,1,2
 104 -56 104 -56 136 -56 c 0,3,4
 212 -56 212 -56 212 55 c 2,5,-1
 212 1305 l 1,6,-1
 547 1305 l 1,7,-1
 547 26 l 2,8,9
 547 -131 547 -131 464.5 -221 c 128,-1,10
 382 -311 382 -311 227 -311 c 0,11,12
 152 -311 152 -311 48 -284 c 1,0,-1
EndSplineSet
EndChar

StartChar: circumflex
Encoding: 710 710 343
Width: 894
GlyphClass: 2
Flags: HW
LayerCount: 2
Fore
SplineSet
107 1393 m 1,0,-1
 308 1799 l 1,1,-1
 598 1799 l 1,2,-1
 804 1393 l 1,3,-1
 529 1393 l 1,4,-1
 454 1595 l 1,5,-1
 381 1393 l 1,6,-1
 107 1393 l 1,0,-1
EndSplineSet
EndChar

StartChar: caron
Encoding: 711 711 344
Width: 859
GlyphClass: 2
Flags: HW
LayerCount: 2
Fore
SplineSet
281 1385 m 1,0,-1
 80 1791 l 1,1,-1
 354 1791 l 1,2,-1
 427 1590 l 1,3,-1
 502 1791 l 1,4,-1
 777 1791 l 1,5,-1
 571 1385 l 1,6,-1
 281 1385 l 1,0,-1
EndSplineSet
EndChar

StartChar: breve
Encoding: 728 728 345
Width: 728
GlyphClass: 2
Flags: HW
LayerCount: 2
Fore
SplineSet
95 1686 m 1,0,-1
 267 1686 l 1,1,2
 267 1621 267 1621 293 1590 c 128,-1,3
 319 1559 319 1559 348 1559 c 0,4,5
 377 1560 377 1560 396 1582 c 0,6,7
 429 1621 429 1621 429 1686 c 1,8,-1
 601 1686 l 1,9,10
 601 1576 601 1576 530 1507 c 128,-1,11
 459 1438 459 1438 348 1438 c 128,-1,12
 237 1438 237 1438 166 1507 c 128,-1,13
 95 1576 95 1576 95 1686 c 1,0,-1
EndSplineSet
EndChar

StartChar: dotaccent
Encoding: 729 729 346
Width: 579
GlyphClass: 2
Flags: HW
LayerCount: 2
Fore
SplineSet
146 1499 m 1,0,-1
 146 1817 l 1,1,-1
 469 1817 l 1,2,-1
 469 1499 l 1,3,-1
 146 1499 l 1,0,-1
EndSplineSet
EndChar

StartChar: ring
Encoding: 730 730 347
Width: 757
GlyphClass: 2
Flags: HW
LayerCount: 2
Fore
SplineSet
311 1596 m 128,-1,1
 331 1559 331 1559 371 1559 c 128,-1,2
 411 1559 411 1559 430.5 1596 c 128,-1,3
 450 1633 450 1633 450 1676 c 128,-1,4
 450 1719 450 1719 430.5 1757 c 128,-1,5
 411 1795 411 1795 371.5 1795 c 128,-1,6
 332 1795 332 1795 311.5 1758 c 128,-1,7
 291 1721 291 1721 291 1677 c 128,-1,0
 291 1633 291 1633 311 1596 c 128,-1,1
119 1677 m 128,-1,9
 119 1786 119 1786 190.5 1851 c 128,-1,10
 262 1916 262 1916 372 1916 c 128,-1,11
 482 1916 482 1916 553.5 1851 c 128,-1,12
 625 1786 625 1786 625 1677 c 128,-1,13
 625 1568 625 1568 553.5 1503 c 128,-1,14
 482 1438 482 1438 372 1438 c 128,-1,15
 262 1438 262 1438 190.5 1503 c 128,-1,8
 119 1568 119 1568 119 1677 c 128,-1,9
EndSplineSet
EndChar

StartChar: ogonek
Encoding: 731 731 348
Width: 575
GlyphClass: 2
Flags: HW
LayerCount: 2
Fore
SplineSet
468 -358 m 1,0,-1
 447 -518 l 1,1,2
 426 -520 426 -520 403 -520 c 0,3,4
 359 -520 359 -520 307 -514 c 0,5,6
 227 -506 227 -506 186.5 -490 c 128,-1,7
 146 -474 146 -474 115 -451 c 0,8,9
 48 -401 48 -401 48 -309 c 128,-1,10
 48 -217 48 -217 92 -130.5 c 128,-1,11
 136 -44 136 -44 199 16 c 1,12,-1
 347 16 l 1,13,14
 340 -4 340 -4 324 -45.5 c 0,15,16
 308 -88 308 -88 299 -112 c 0,17,18
 275 -177 275 -177 275 -223 c 128,-1,19
 275 -269 275 -269 283 -290.5 c 128,-1,20
 291 -312 291 -312 308.5 -324 c 128,-1,21
 326 -336 326 -336 341.5 -343.5 c 0,22,23
 356 -351 356 -351 384 -354 c 0,24,25
 420 -358 420 -358 468 -358 c 1,0,-1
EndSplineSet
EndChar

StartChar: tilde
Encoding: 732 732 349
Width: 900
GlyphClass: 2
Flags: HW
LayerCount: 2
Fore
SplineSet
288 1430 m 1,0,-1
 121 1430 l 1,1,2
 122 1598 122 1598 172 1668 c 0,3,4
 216 1729 216 1729 297.5 1729 c 128,-1,5
 379 1729 379 1729 481.5 1700 c 128,-1,6
 584 1671 584 1671 603.5 1671 c 0,7,8
 624 1670 624 1670 632 1678 c 0,9,10
 642 1687 642 1687 642 1717 c 1,11,-1
 797 1717 l 1,12,13
 797 1419 797 1419 641 1419 c 0,14,15
 591 1419 591 1419 487.5 1455.5 c 128,-1,16
 384 1492 384 1492 353 1492 c 128,-1,17
 322 1492 322 1492 312 1487.5 c 128,-1,18
 302 1483 302 1483 297.5 1479 c 128,-1,19
 293 1475 293 1475 290.5 1463 c 128,-1,20
 288 1451 288 1451 288 1448 c 2,21,-1
 288 1430 l 1,0,-1
EndSplineSet
EndChar

StartChar: hungarumlaut
Encoding: 733 733 350
Width: 984
GlyphClass: 2
Flags: HW
LayerCount: 2
Fore
SplineSet
113 1405 m 1,0,-1
 250 1847 l 1,1,-1
 533 1847 l 1,2,-1
 318 1405 l 1,3,-1
 113 1405 l 1,0,-1
429 1405 m 1,4,-1
 566 1847 l 1,5,-1
 851 1847 l 1,6,-1
 636 1405 l 1,7,-1
 429 1405 l 1,4,-1
EndSplineSet
EndChar

StartChar: uni030F
Encoding: 783 783 351
Width: 984
GlyphClass: 2
Flags: HW
LayerCount: 2
Fore
SplineSet
328 1405 m 1,0,-1
 113 1847 l 1,1,-1
 398 1847 l 1,2,-1
 535 1405 l 1,3,-1
 328 1405 l 1,0,-1
646 1405 m 1,4,-1
 431 1847 l 1,5,-1
 714 1847 l 1,6,-1
 851 1405 l 1,7,-1
 646 1405 l 1,4,-1
EndSplineSet
EndChar

StartChar: uni0311
Encoding: 785 785 352
Width: 728
GlyphClass: 2
Flags: HW
LayerCount: 2
Fore
SplineSet
267 1438 m 1,0,-1
 95 1438 l 1,1,2
 95 1548 95 1548 166 1617 c 128,-1,3
 237 1686 237 1686 348 1686 c 128,-1,4
 459 1686 459 1686 530 1617 c 128,-1,5
 601 1548 601 1548 601 1438 c 1,6,-1
 429 1438 l 1,7,8
 429 1503 429 1503 403 1534 c 128,-1,9
 377 1565 377 1565 348 1565 c 0,10,11
 319 1564 319 1564 300 1542 c 0,12,13
 267 1502 267 1502 267 1438 c 1,0,-1
EndSplineSet
EndChar

StartChar: uni0326
Encoding: 806 806 353
Width: 506
GlyphClass: 2
Flags: HW
LayerCount: 2
Fore
SplineSet
153 -639 m 1,0,-1
 113 -473 l 1,1,-1
 128 -473 l 2,2,3
 154 -473 154 -473 163.5 -472.5 c 128,-1,4
 173 -472 173 -472 182 -464 c 0,5,6
 194 -453 194 -453 194 -396 c 1,7,-1
 84 -396 l 1,8,-1
 84 -78 l 1,9,-1
 407 -78 l 1,10,11
 407 -117 407 -117 407.5 -194.5 c 128,-1,12
 408 -272 408 -272 408 -341 c 128,-1,13
 408 -410 408 -410 398 -466 c 128,-1,14
 388 -522 388 -522 366 -561 c 0,15,16
 321 -643 321 -643 197 -643 c 0,17,18
 181 -643 181 -643 153 -639 c 1,0,-1
EndSplineSet
EndChar

StartChar: endash
Encoding: 8211 8211 362
Width: 528
GlyphClass: 2
Flags: HW
LayerCount: 2
Fore
SplineSet
4 453 m 1,0,-1
 4 676 l 1,1,-1
 521 676 l 1,2,-1
 521 453 l 1,3,-1
 4 453 l 1,0,-1
EndSplineSet
EndChar

StartChar: emdash
Encoding: 8212 8212 363
Width: 827
GlyphClass: 2
Flags: HW
LayerCount: 2
Fore
SplineSet
4 453 m 1,0,-1
 4 676 l 1,1,-1
 821 676 l 1,2,-1
 821 453 l 1,3,-1
 4 453 l 1,0,-1
EndSplineSet
EndChar

StartChar: quoteleft
Encoding: 8216 8216 364
Width: 562
GlyphClass: 2
Flags: HW
LayerCount: 2
Fore
SplineSet
425 1281 m 1,0,-1
 128 1281 l 1,1,2
 128 1308 128 1308 126 1360.5 c 128,-1,3
 124 1413 124 1413 123 1451 c 0,4,5
 123 1462 123 1462 123 1474 c 0,6,7
 122 1504 122 1504 124 1542 c 0,8,9
 126 1595 126 1595 133.5 1632.5 c 128,-1,10
 141 1670 141 1670 157 1710.5 c 0,11,12
 174 1750 174 1750 198 1776 c 0,13,14
 253 1834 253 1834 353 1834 c 1,15,-1
 436 1665 l 1,16,17
 431 1665 431 1665 425 1665 c 0,18,19
 360 1665 360 1665 330 1639 c 0,20,21
 298 1611 298 1611 297 1578 c 1,22,-1
 425 1578 l 1,23,-1
 425 1281 l 1,0,-1
EndSplineSet
EndChar

StartChar: quoteright
Encoding: 8217 8217 365
Width: 562
GlyphClass: 2
Flags: HW
LayerCount: 2
Fore
SplineSet
199 1281 m 1,0,-1
 115 1450 l 1,1,2
 119 1450 119 1450 122 1450 c 0,3,4
 250 1450 250 1450 256 1537 c 1,5,-1
 128 1537 l 1,6,-1
 128 1834 l 1,7,-1
 424 1834 l 1,8,9
 424 1807 424 1807 426 1754.5 c 128,-1,10
 428 1702 428 1702 429 1664 c 0,11,12
 429 1653 429 1653 429 1641 c 0,13,14
 430 1611 430 1611 428 1573 c 0,15,16
 426 1520 426 1520 418.5 1482.5 c 128,-1,17
 411 1445 411 1445 395 1404.5 c 0,18,19
 378 1364 378 1364 354 1338 c 0,20,21
 298 1280 298 1280 199 1281 c 1,0,-1
EndSplineSet
EndChar

StartChar: quotesinglbase
Encoding: 8218 8218 366
Width: 429
GlyphClass: 2
Flags: HW
LayerCount: 2
Fore
SplineSet
127 -321 m 1,0,-1
 57 103 l 1,1,-1
 361 103 l 1,2,-1
 290 -321 l 1,3,-1
 127 -321 l 1,0,-1
EndSplineSet
EndChar

StartChar: quotedblleft
Encoding: 8220 8220 367
Width: 962
GlyphClass: 2
Flags: HW
LayerCount: 2
Fore
SplineSet
428 1281 m 1,0,-1
 131 1281 l 1,1,2
 131 1308 131 1308 129 1361 c 128,-1,3
 127 1414 127 1414 126 1452 c 0,4,5
 126 1463 126 1463 126 1475 c 0,6,7
 126 1504 126 1504 128 1542 c 0,8,9
 130 1594 130 1594 137 1632 c 128,-1,10
 144 1670 144 1670 160.5 1711 c 0,11,12
 178 1752 178 1752 202 1777 c 0,13,14
 258 1834 258 1834 357 1834 c 1,15,-1
 440 1665 l 1,16,17
 434 1665 434 1665 429 1665 c 0,18,19
 363 1665 363 1665 334 1640 c 0,20,21
 302 1612 302 1612 300 1578 c 1,22,-1
 428 1578 l 1,23,-1
 428 1281 l 1,0,-1
813 1281 m 1,24,-1
 516 1281 l 1,25,26
 516 1308 516 1308 514 1361 c 128,-1,27
 512 1414 512 1414 511 1452 c 0,28,29
 511 1463 511 1463 511 1475 c 0,30,31
 510 1504 510 1504 512 1542 c 0,32,33
 514 1594 514 1594 521.5 1632 c 128,-1,34
 529 1670 529 1670 545.5 1711 c 128,-1,35
 562 1752 562 1752 586 1777 c 0,36,37
 642 1834 642 1834 742 1834 c 1,38,-1
 824 1665 l 1,39,40
 821 1665 821 1665 819 1665 c 0,41,42
 768 1665 768 1665 729 1646 c 0,43,44
 688 1626 688 1626 685 1578 c 1,45,-1
 813 1578 l 1,46,-1
 813 1281 l 1,24,-1
EndSplineSet
EndChar

StartChar: quotedblright
Encoding: 8221 8221 368
Width: 962
GlyphClass: 2
Flags: HW
LayerCount: 2
Fore
SplineSet
203 1281 m 1,0,-1
 119 1450 l 1,1,2
 125 1450 125 1450 130 1450 c 0,3,4
 196 1450 196 1450 226 1475 c 0,5,6
 258 1503 258 1503 259 1537 c 1,7,-1
 131 1537 l 1,8,-1
 131 1834 l 1,9,-1
 428 1834 l 1,10,11
 428 1807 428 1807 430 1754.5 c 128,-1,12
 432 1702 432 1702 433 1664 c 0,13,14
 433 1653 433 1653 433 1641 c 0,15,16
 434 1611 434 1611 432 1573 c 0,17,18
 430 1520 430 1520 422.5 1482.5 c 128,-1,19
 415 1445 415 1445 399 1404.5 c 0,20,21
 382 1364 382 1364 358 1338 c 0,22,23
 302 1280 302 1280 203 1281 c 1,0,-1
587 1281 m 1,24,-1
 503 1450 l 1,25,26
 507 1450 507 1450 510 1450 c 0,27,28
 638 1450 638 1450 644 1537 c 1,29,-1
 516 1537 l 1,30,-1
 516 1834 l 1,31,-1
 813 1834 l 1,32,33
 813 1807 813 1807 815 1754 c 128,-1,34
 817 1701 817 1701 818 1663 c 0,35,36
 818 1652 818 1652 818 1640 c 0,37,38
 818 1610 818 1610 816 1572 c 0,39,40
 814 1520 814 1520 807 1482.5 c 128,-1,41
 800 1445 800 1445 783.5 1404 c 0,42,43
 766 1363 766 1363 742 1338 c 0,44,45
 686 1281 686 1281 587 1281 c 1,24,-1
EndSplineSet
EndChar

StartChar: quotedblbase
Encoding: 8222 8222 369
Width: 762
GlyphClass: 2
Flags: HW
LayerCount: 2
Fore
SplineSet
130 -320 m 1,0,-1
 60 104 l 1,1,-1
 364 104 l 1,2,-1
 293 -320 l 1,3,-1
 130 -320 l 1,0,-1
454 -320 m 1,4,-1
 383 104 l 1,5,-1
 688 104 l 1,6,-1
 616 -320 l 1,7,-1
 454 -320 l 1,4,-1
EndSplineSet
EndChar

StartChar: daggerdbl
Encoding: 8225 8225 370
Width: 798
GlyphClass: 2
Flags: HW
LayerCount: 2
Fore
SplineSet
271 0 m 1,0,-1
 271 448 l 1,1,-1
 79 448 l 1,2,-1
 79 704 l 1,3,-1
 271 704 l 1,4,-1
 271 1024 l 1,5,-1
 79 1024 l 1,6,-1
 79 1280 l 1,7,-1
 271 1280 l 1,8,-1
 271 1536 l 1,9,-1
 527 1536 l 1,10,-1
 527 1280 l 1,11,-1
 719 1280 l 1,12,-1
 719 1024 l 1,13,-1
 527 1024 l 1,14,-1
 527 704 l 1,15,-1
 719 704 l 1,16,-1
 719 448 l 1,17,-1
 527 448 l 1,18,-1
 527 0 l 1,19,-1
 271 0 l 1,0,-1
EndSplineSet
EndChar

StartChar: bullet
Encoding: 8226 8226 371
Width: 990
GlyphClass: 2
Flags: HW
LayerCount: 2
Fore
SplineSet
494 335 m 128,-1,1
 422 335 422 335 356.5 359.5 c 0,2,3
 292 384 292 384 238 430 c 0,4,5
 122 531 122 531 121 718 c 0,6,7
 121 811 121 811 153 886.5 c 128,-1,8
 185 962 185 962 238 1008 c 0,9,10
 348 1104 348 1104 494 1105 c 0,11,12
 640 1104 640 1104 752 1008 c 0,13,14
 806 962 806 962 837.5 886.5 c 128,-1,15
 869 811 869 811 869 718.5 c 128,-1,16
 869 626 869 626 837 551.5 c 128,-1,17
 805 477 805 477 751.5 430.5 c 128,-1,18
 698 384 698 384 632 359.5 c 128,-1,0
 566 335 566 335 494 335 c 128,-1,1
EndSplineSet
EndChar

StartChar: guilsinglleft
Encoding: 8249 8249 372
Width: 618
GlyphClass: 2
Flags: HW
LayerCount: 2
Fore
SplineSet
527 64 m 1,0,-1
 79 576 l 1,1,-1
 79 704 l 1,2,-1
 527 1216 l 1,3,-1
 527 896 l 1,4,-1
 271 641 l 1,5,-1
 527 384 l 1,6,-1
 527 64 l 1,0,-1
EndSplineSet
EndChar

StartChar: guilsinglright
Encoding: 8250 8250 373
Width: 600
GlyphClass: 2
Flags: HW
LayerCount: 2
Fore
SplineSet
79 64 m 1,0,-1
 79 384 l 1,1,-1
 335 641 l 1,2,-1
 79 896 l 1,3,-1
 79 1216 l 1,4,-1
 527 704 l 1,5,-1
 527 576 l 1,6,-1
 79 64 l 1,0,-1
EndSplineSet
EndChar

StartChar: fraction
Encoding: 8260 8260 374
Width: 618
GlyphClass: 2
Flags: HW
LayerCount: 2
Fore
SplineSet
29 0 m 1,0,-1
 286 1801 l 1,1,-1
 485 1801 l 1,2,-1
 225 0 l 1,3,-1
 29 0 l 1,0,-1
EndSplineSet
EndChar

StartChar: uni2074
Encoding: 8308 8308 375
Width: 829
GlyphClass: 2
Flags: HW
LayerCount: 2
Fore
SplineSet
71 842 m 1,0,-1
 71 990 l 1,1,-1
 422 1583 l 1,2,-1
 617 1583 l 1,3,-1
 617 1000 l 1,4,-1
 747 1000 l 1,5,-1
 747 842 l 1,6,-1
 617 842 l 1,7,-1
 617 583 l 1,8,-1
 395 583 l 1,9,-1
 395 842 l 1,10,-1
 71 842 l 1,0,-1
302 1000 m 1,11,-1
 395 1000 l 1,12,-1
 395 1184 l 1,13,-1
 302 1000 l 1,11,-1
EndSplineSet
EndChar

StartChar: Euro
Encoding: 8364 8364 376
Width: 1040
GlyphClass: 2
Flags: HW
LayerCount: 2
Fore
SplineSet
361 1067 m 2,0,-1
 361 1034 l 1,1,-1
 560 1034 l 1,2,-1
 560 837 l 1,3,-1
 361 837 l 1,4,-1
 361 710 l 1,5,-1
 560 710 l 1,6,-1
 560 514 l 1,7,-1
 364 514 l 1,8,-1
 364 509 l 1,9,10
 366 475 366 475 367 457 c 128,-1,11
 368 439 368 439 372.5 405.5 c 128,-1,12
 377 372 377 372 383.5 352.5 c 128,-1,13
 390 333 390 333 402 308 c 0,14,15
 414 284 414 284 430 270 c 0,16,17
 470 236 470 236 526 236 c 0,18,19
 677 236 677 236 677 570 c 2,20,-1
 677 576 l 1,21,-1
 955 576 l 1,22,-1
 955 568 l 2,23,24
 956 244 956 244 830 96 c 0,25,26
 784 42 784 42 704.5 7.5 c 128,-1,27
 625 -27 625 -27 511 -27 c 128,-1,28
 397 -27 397 -27 310 13.5 c 0,29,30
 222 54 222 54 174 130 c 0,31,32
 87 267 87 267 77 506 c 1,33,-1
 77 514 l 1,34,-1
 7 514 l 1,35,-1
 7 710 l 1,36,-1
 76 710 l 1,37,-1
 76 837 l 1,38,-1
 7 837 l 1,39,-1
 7 1034 l 1,40,-1
 79 1034 l 1,41,-1
 79 1041 l 1,42,43
 89 1235 89 1235 130 1331.5 c 128,-1,44
 171 1428 171 1428 218 1476 c 128,-1,45
 265 1524 265 1524 340 1553.5 c 128,-1,46
 415 1583 415 1583 514 1583 c 128,-1,47
 613 1583 613 1583 689.5 1554 c 128,-1,48
 766 1525 766 1525 814 1476 c 0,49,50
 862 1428 862 1428 893 1356 c 0,51,52
 948 1229 948 1229 950 1037 c 1,53,-1
 950 1031 l 1,54,-1
 668 1031 l 1,55,-1
 668 1038 l 2,56,57
 668 1242 668 1242 586 1304 c 0,58,59
 558 1326 558 1326 519.5 1325.5 c 128,-1,60
 481 1325 481 1325 453 1314 c 128,-1,61
 425 1303 425 1303 408.5 1280.5 c 128,-1,62
 392 1258 392 1258 382 1235.5 c 128,-1,63
 372 1213 372 1213 368 1177 c 0,64,65
 362 1125 362 1125 361 1067 c 2,0,-1
EndSplineSet
EndChar

StartChar: trademark
Encoding: 8482 8482 377
Width: 2234
GlyphClass: 2
Flags: HW
LayerCount: 2
Fore
SplineSet
330 686 m 1,0,-1
 330 1364 l 1,1,-1
 167 1364 l 1,2,-1
 167 1518 l 1,3,-1
 664 1518 l 1,4,-1
 664 1364 l 1,5,-1
 500 1364 l 1,6,-1
 500 686 l 1,7,-1
 330 686 l 1,0,-1
756 686 m 1,8,-1
 756 1518 l 1,9,-1
 998 1518 l 1,10,-1
 1102 1065 l 1,11,-1
 1209 1518 l 1,12,-1
 1451 1518 l 1,13,-1
 1451 686 l 1,14,-1
 1291 686 l 1,15,-1
 1291 1241 l 1,16,-1
 1154 686 l 1,17,-1
 1051 686 l 1,18,-1
 914 1241 l 1,19,-1
 914 686 l 1,20,-1
 756 686 l 1,8,-1
EndSplineSet
EndChar

StartChar: product
Encoding: 8719 8719 378
Width: 1246
GlyphClass: 2
Flags: HW
LayerCount: 2
Fore
SplineSet
143 0 m 1,0,-1
 143 1792 l 1,1,-1
 1103 1792 l 1,2,-1
 1103 0 l 1,3,-1
 847 0 l 1,4,-1
 847 1600 l 1,5,-1
 399 1600 l 1,6,-1
 399 0 l 1,7,-1
 143 0 l 1,0,-1
EndSplineSet
EndChar

StartChar: integral
Encoding: 8747 8747 379
Width: 734
GlyphClass: 2
Flags: HW
LayerCount: 2
Fore
SplineSet
655 1526 m 1,0,-1
 569 1536 l 1,1,2
 472 1536 472 1536 464 1426 c 0,3,4
 462 1406 462 1406 463 1376 c 2,5,-1
 463 128 l 2,6,7
 463 -49 463 -49 446.5 -90 c 128,-1,8
 430 -131 430 -131 409 -164.5 c 128,-1,9
 388 -198 388 -198 358 -214 c 0,10,11
 281 -256 281 -256 196 -256 c 128,-1,12
 111 -256 111 -256 15 -244 c 1,13,-1
 15 -54 l 1,14,15
 77 -64 77 -64 103 -64 c 128,-1,16
 129 -64 129 -64 149 -55 c 128,-1,17
 169 -46 169 -46 180 -32.5 c 0,18,19
 192 -18 192 -18 198 4 c 0,20,21
 208 37 208 37 207 96 c 2,22,-1
 207 1344 l 2,23,24
 207 1521 207 1521 223.5 1562 c 128,-1,25
 240 1603 240 1603 261 1636.5 c 128,-1,26
 282 1670 282 1670 312 1686 c 0,27,28
 389 1728 389 1728 474 1728 c 128,-1,29
 559 1728 559 1728 655 1716 c 1,30,-1
 655 1526 l 1,0,-1
EndSplineSet
EndChar

StartChar: uniFB01
Encoding: 64257 64257 380
Width: 1198
GlyphClass: 3
Flags: HW
LayerCount: 2
Fore
SplineSet
141 1305 m 1,0,-1
 142 1334 l 1,1,2
 150 1562 150 1562 226 1653 c 0,3,4
 295 1735 295 1735 432 1735 c 0,5,6
 524 1735 524 1735 612 1724 c 1,7,-1
 644 1721 l 1,8,-1
 644 1469 l 1,9,10
 574 1475 574 1475 544 1475 c 0,11,12
 478 1475 478 1475 478 1366 c 2,13,-1
 478 1305 l 1,14,-1
 1102 1305 l 1,15,-1
 1102 0 l 1,16,-1
 765 0 l 1,17,-1
 765 1080 l 1,18,-1
 478 1080 l 1,19,-1
 478 0 l 1,20,-1
 141 0 l 1,21,-1
 141 1080 l 1,22,-1
 65 1080 l 1,23,-1
 65 1305 l 1,24,-1
 141 1305 l 1,0,-1
765 1419 m 1,25,-1
 765 1734 l 1,26,-1
 1102 1734 l 1,27,-1
 1102 1419 l 1,28,-1
 765 1419 l 1,25,-1
EndSplineSet
Ligature2: "'liga' Standard Ligatures lookup 0 subtable" f i
EndChar

StartChar: uniFB02
Encoding: 64258 64258 381
Width: 1189
GlyphClass: 3
Flags: HW
LayerCount: 2
Fore
SplineSet
141 1305 m 1,0,-1
 142 1334 l 1,1,2
 149 1561 149 1561 238 1653 c 0,3,4
 318 1735 318 1735 472 1735 c 0,5,6
 578 1735 578 1735 786.5 1724 c 128,-1,7
 995 1713 995 1713 1093 1709 c 1,8,-1
 1093 0 l 1,9,-1
 756 0 l 1,10,-1
 756 1470 l 1,11,12
 611 1475 611 1475 562.5 1475 c 128,-1,13
 514 1475 514 1475 496 1451.5 c 128,-1,14
 478 1428 478 1428 478 1366 c 2,15,-1
 478 1305 l 1,16,-1
 641 1305 l 1,17,-1
 641 1080 l 1,18,-1
 478 1080 l 1,19,-1
 478 0 l 1,20,-1
 141 0 l 1,21,-1
 141 1080 l 1,22,-1
 65 1080 l 1,23,-1
 65 1305 l 1,24,-1
 141 1305 l 1,0,-1
EndSplineSet
Ligature2: "'liga' Standard Ligatures lookup 0 subtable" f l
EndChar

StartChar: uniFB00
Encoding: 64256 64256 382
Width: 1279
GlyphClass: 3
Flags: HW
LayerCount: 2
Fore
SplineSet
760 1305 m 1,0,-1
 761 1334 l 1,1,2
 768 1562 768 1562 844 1653 c 0,3,4
 913 1735 913 1735 1051 1735 c 0,5,6
 1143 1735 1143 1735 1231 1724 c 1,7,-1
 1263 1721 l 1,8,-1
 1263 1469 l 1,9,10
 1194 1475 1194 1475 1164 1475 c 0,11,12
 1098 1475 1098 1475 1097 1366 c 2,13,-1
 1097 1305 l 1,14,-1
 1260 1305 l 1,15,-1
 1260 1080 l 1,16,-1
 1097 1080 l 1,17,-1
 1097 0 l 1,18,-1
 760 0 l 1,19,-1
 760 1080 l 1,20,-1
 478 1080 l 1,21,-1
 478 0 l 1,22,-1
 141 0 l 1,23,-1
 141 1080 l 1,24,-1
 65 1080 l 1,25,-1
 65 1305 l 1,26,-1
 141 1305 l 1,27,-1
 142 1334 l 1,28,29
 150 1562 150 1562 226 1653 c 0,30,31
 295 1735 295 1735 432 1735 c 0,32,33
 524 1735 524 1735 612 1724 c 1,34,-1
 644 1721 l 1,35,-1
 644 1469 l 1,36,37
 574 1475 574 1475 544 1475 c 0,38,39
 478 1475 478 1475 478 1366 c 2,40,-1
 478 1305 l 1,41,-1
 760 1305 l 1,0,-1
EndSplineSet
Ligature2: "'liga' Standard Ligatures lookup 0 subtable" f f
EndChar

StartChar: Delta
Encoding: 916 916 384
Width: 1054
GlyphClass: 2
Flags: HW
LayerCount: 2
Fore
SplineSet
376 192 m 1,0,-1
 679 192 l 1,1,-1
 527 1259 l 1,2,-1
 376 192 l 1,0,-1
79 0 m 1,3,-1
 399 1643 l 1,4,-1
 657 1643 l 1,5,-1
 977 0 l 1,6,-1
 79 0 l 1,3,-1
EndSplineSet
EndChar

StartChar: uniFB03
Encoding: 64259 64259 388
Width: 1840
GlyphClass: 3
Flags: HW
LayerCount: 2
Fore
SplineSet
760 1305 m 1,0,-1
 761 1334 l 1,1,2
 768 1562 768 1562 844 1653 c 0,3,4
 913 1735 913 1735 1051 1735 c 0,5,6
 1143 1735 1143 1735 1231 1724 c 1,7,-1
 1263 1721 l 1,8,-1
 1263 1469 l 1,9,10
 1194 1475 1194 1475 1164 1475 c 0,11,12
 1098 1475 1098 1475 1097 1366 c 2,13,-1
 1097 1305 l 1,14,-1
 1744 1305 l 1,15,-1
 1744 0 l 1,16,-1
 1407 0 l 1,17,-1
 1407 1080 l 1,18,-1
 1097 1080 l 1,19,-1
 1097 0 l 1,20,-1
 760 0 l 1,21,-1
 760 1080 l 1,22,-1
 478 1080 l 1,23,-1
 478 0 l 1,24,-1
 141 0 l 1,25,-1
 141 1080 l 1,26,-1
 65 1080 l 1,27,-1
 65 1305 l 1,28,-1
 141 1305 l 1,29,-1
 142 1334 l 1,30,31
 150 1562 150 1562 226 1653 c 0,32,33
 295 1735 295 1735 432 1735 c 0,34,35
 524 1735 524 1735 612 1724 c 1,36,-1
 644 1721 l 1,37,-1
 644 1469 l 1,38,39
 574 1475 574 1475 544 1475 c 0,40,41
 478 1475 478 1475 478 1366 c 2,42,-1
 478 1305 l 1,43,-1
 760 1305 l 1,0,-1
1407 1419 m 1,44,-1
 1407 1734 l 1,45,-1
 1744 1734 l 1,46,-1
 1744 1419 l 1,47,-1
 1407 1419 l 1,44,-1
EndSplineSet
Ligature2: "'liga' Standard Ligatures lookup 0 subtable" f f i
EndChar

StartChar: uniFB04
Encoding: 64260 64260 389
Width: 1849
GlyphClass: 3
Flags: HW
LayerCount: 2
Fore
SplineSet
801 1305 m 1,0,-1
 802 1334 l 1,1,2
 809 1560 809 1560 904 1653 c 0,3,4
 988 1735 988 1735 1146 1735 c 128,-1,5
 1304 1735 1304 1735 1753 1698 c 1,6,-1
 1753 0 l 1,7,-1
 1416 0 l 1,8,-1
 1416 1471 l 1,9,-1
 1276 1475 l 1,10,11
 1202 1475 1202 1475 1170 1451.5 c 128,-1,12
 1138 1428 1138 1428 1138 1366 c 2,13,-1
 1138 1305 l 1,14,-1
 1301 1305 l 1,15,-1
 1301 1080 l 1,16,-1
 1138 1080 l 1,17,-1
 1138 0 l 1,18,-1
 801 0 l 1,19,-1
 801 1080 l 1,20,-1
 478 1080 l 1,21,-1
 478 0 l 1,22,-1
 141 0 l 1,23,-1
 141 1080 l 1,24,-1
 65 1080 l 1,25,-1
 65 1305 l 1,26,-1
 141 1305 l 1,27,-1
 142 1334 l 1,28,29
 150 1562 150 1562 226 1653 c 0,30,31
 295 1735 295 1735 432 1735 c 0,32,33
 524 1735 524 1735 612 1724 c 1,34,-1
 644 1721 l 1,35,-1
 644 1469 l 1,36,37
 574 1475 574 1475 544 1475 c 0,38,39
 478 1475 478 1475 478 1366 c 2,40,-1
 478 1305 l 1,41,-1
 801 1305 l 1,0,-1
EndSplineSet
Ligature2: "'liga' Standard Ligatures lookup 0 subtable" f f l
EndChar

StartChar: foundryicon
Encoding: 65539 -1 390
Width: 1620
GlyphClass: 2
Flags: HW
LayerCount: 2
Fore
SplineSet
346 277 m 1,0,-1
 514 819 l 1,1,-1
 55 1157 l 1,2,-1
 627 1168 l 1,3,-1
 805 1710 l 1,4,-1
 993 1168 l 1,5,-1
 1565 1168 l 1,6,-1
 1104 819 l 1,7,-1
 1274 277 l 1,8,-1
 805 604 l 1,9,-1
 346 277 l 1,0,-1
EndSplineSet
EndChar

StartChar: minus
Encoding: 8722 8722 393
Width: 895
GlyphClass: 2
Flags: HW
LayerCount: 2
Fore
SplineSet
137 531 m 1,0,-1
 137 754 l 1,1,-1
 747 754 l 1,2,-1
 747 531 l 1,3,-1
 137 531 l 1,0,-1
EndSplineSet
EndChar

StartChar: mu
Encoding: 956 956 394
Width: 1083
GlyphClass: 2
Flags: HW
LayerCount: 2
Fore
SplineSet
134 -179 m 1,0,-1
 134 1305 l 1,1,-1
 470 1305 l 1,2,-1
 470 302 l 2,3,4
 470 219 470 219 516 219 c 0,5,6
 536 219 536 219 560 236 c 0,7,8
 584 252 584 252 594 264 c 2,9,-1
 622 299 l 1,10,-1
 622 1305 l 1,11,-1
 957 1305 l 1,12,-1
 957 0 l 1,13,-1
 621 0 l 1,14,-1
 621 113 l 1,15,16
 553 30 553 30 469 -6 c 1,17,-1
 469 -179 l 1,18,-1
 134 -179 l 1,0,-1
EndSplineSet
EndChar

StartChar: tt
Encoding: 65540 -1 395
Width: 1263
GlyphClass: 2
Flags: HW
LayerCount: 2
Fore
SplineSet
117 448 m 2,0,-1
 117 1080 l 1,1,-1
 21 1080 l 1,2,-1
 21 1305 l 1,3,-1
 117 1305 l 1,4,-1
 117 1734 l 1,5,-1
 453 1734 l 1,6,-1
 453 1305 l 1,7,-1
 719 1305 l 1,8,-1
 719 1734 l 1,9,-1
 1055 1734 l 1,10,-1
 1055 1305 l 1,11,-1
 1218 1305 l 1,12,-1
 1218 1080 l 1,13,-1
 1055 1080 l 1,14,-1
 1055 367 l 2,15,16
 1055 313 1055 313 1075.5 286.5 c 128,-1,17
 1096 260 1096 260 1150.5 260 c 128,-1,18
 1205 260 1205 260 1245 266 c 1,19,-1
 1245 5 l 1,20,21
 1179 -15 1179 -15 1076 -15 c 128,-1,22
 973 -15 973 -15 925.5 -1 c 128,-1,23
 878 13 878 13 845.5 36.5 c 128,-1,24
 813 60 813 60 789.5 96 c 128,-1,25
 766 132 766 132 752.5 169.5 c 0,26,27
 740 207 740 207 732 257 c 0,28,29
 720 340 720 340 719 448 c 2,30,-1
 719 1080 l 1,31,-1
 453 1080 l 1,32,-1
 453 367 l 2,33,34
 453 313 453 313 473.5 286.5 c 128,-1,35
 494 260 494 260 548.5 260 c 128,-1,36
 603 260 603 260 643 266 c 1,37,-1
 643 5 l 1,38,39
 577 -15 577 -15 474 -15 c 128,-1,40
 371 -15 371 -15 323.5 -1 c 128,-1,41
 276 13 276 13 243.5 36.5 c 128,-1,42
 211 60 211 60 187.5 96 c 128,-1,43
 164 132 164 132 150.5 169.5 c 0,44,45
 138 207 138 207 130 257 c 0,46,47
 118 340 118 340 117 448 c 2,0,-1
EndSplineSet
EndChar

StartChar: commaaccent
Encoding: 65544 -1 403
Width: 506
GlyphClass: 2
Flags: HW
LayerCount: 2
Fore
SplineSet
153 -639 m 1,0,-1
 113 -473 l 1,1,-1
 128 -473 l 2,2,3
 154 -473 154 -473 163.5 -472.5 c 128,-1,4
 173 -472 173 -472 182 -464 c 0,5,6
 194 -453 194 -453 194 -396 c 1,7,-1
 84 -396 l 1,8,-1
 84 -78 l 1,9,-1
 407 -78 l 1,10,11
 410 -146 410 -146 410 -206 c 0,12,13
 410 -390 410 -390 384 -488 c 0,14,15
 345 -638 345 -638 153 -639 c 1,0,-1
EndSplineSet
EndChar

